<svg xmlns="https://www.w3.org/2000/svg" xmlns:xlink="https://www.w3.org/1999/xlink" viewBox="0 0 22.41 22.41"><defs><style>.cls-1{fill:none;}.cls-2{isolation:isolate;}.cls-3{clip-path:url(#clip-path);}.cls-4{mix-blend-mode:multiply;}.cls-5{clip-path:url(#clip-path-3);}.cls-6{fill:#769780;}</style><clipPath id="clip-path" transform="translate(0 0)"><rect class="cls-1" width="22.41" height="22.41"/></clipPath><clipPath id="clip-path-3" transform="translate(0 0)"><rect class="cls-1" x="-9" y="-7" width="40.41" height="30.41"/></clipPath></defs><g class="cls-2"><g id="Layer_1" data-name="Layer 1"><g class="cls-3"><g class="cls-3"><g class="cls-4"><g class="cls-5"><path class="cls-6" d="M21.23,11.2a10,10,0,1,0-10,10,10,10,0,0,0,10-10m1.18,0A11.2,11.2,0,1,1,11.2,0a11.2,11.2,0,0,1,11.2,11.2M16.48,9.73l-5,5a.57.57,0,0,1-.83,0L5.93,10a.58.58,0,1,1,.83-.82l4.33,4.33L15.66,8.9a.58.58,0,0,1,.83.82" transform="translate(0 0)"/></g></g></g></g></g></g></svg>