<?xml version="1.0" encoding="utf-8"?>
<!-- Generator: Adobe Illustrator 19.2.1, SVG Export Plug-In . SVG Version: 6.00 Build 0)  -->
<svg version="1.1" id="Layer_1" xmlns="https://www.w3.org/2000/svg" xmlns:xlink="https://www.w3.org/1999/xlink" x="0px" y="0px"
	 viewBox="0 0 315.6 81.1" style="enable-background:new 0 0 315.6 81.1;" xml:space="preserve">
<style type="text/css">
	.st0{fill:#F5ECB4;}
</style>
<g>
	<g>
		<g>
			<path class="st0" d="M83.8,69.3c1.6-0.1,2.3-0.2,3.9-0.3c0,0.6,0,0.8,0,1.4c-0.4,0-0.7,0-1.1,0.1c0,3.3,0,5,0,8.3
				c0.4,0,0.7,0,1.1-0.1c0,0.6,0,0.8,0,1.4c-1.6,0.1-2.3,0.2-3.9,0.3c0-0.6,0-0.8,0-1.4c0.4,0,0.7,0,1.1-0.1c0-3.2,0-4.8,0-8
				c-1.3,3.9-2,5.8-3.3,9.7c-0.6,0-0.9,0.1-1.5,0.1c-1.4-3.7-2.1-5.5-3.5-9.2c0,3.2,0,4.8,0,8c0.4,0,0.7-0.1,1.1-0.1
				c0,0.6,0,0.8,0,1.4c-1.6,0.1-2.3,0.2-3.9,0.3c0-0.6,0-0.8,0-1.4c0.4,0,0.7-0.1,1.1-0.1c0-3.3,0-5,0-8.3c-0.4,0-0.7,0.1-1.1,0.1
				c0-0.6,0-0.8,0-1.4c1.5-0.1,2.3-0.2,3.9-0.3c1.3,3.3,1.9,5,3.1,8.4C82.1,74.6,82.6,72.8,83.8,69.3z"/>
			<path class="st0" d="M91.6,78.4c-1.1-1-1.6-2.3-1.6-3.9c0-1.6,0.5-3,1.6-4.1c1.1-1.1,2.4-1.8,4-1.9c1.6-0.1,2.9,0.4,4,1.4
				c1.1,1,1.6,2.3,1.6,3.9c0,1.6-0.5,3-1.6,4.1c-1.1,1.1-2.4,1.8-4,1.9C94,79.8,92.7,79.4,91.6,78.4z M92.8,71.3
				c-0.8,0.9-1.1,1.9-1.1,3.1s0.4,2.2,1.1,2.9c0.8,0.8,1.7,1.1,2.8,1.1c1.1-0.1,2-0.5,2.8-1.4c0.8-0.9,1.1-1.9,1.1-3.1
				s-0.4-2.2-1.1-2.9c-0.8-0.8-1.7-1.1-2.8-1.1C94.5,69.9,93.6,70.4,92.8,71.3z"/>
			<path class="st0" d="M108.7,77.6c0.4,0,0.7-0.1,1-0.2c0.3-0.1,0.5-0.2,0.7-0.5c0.2-0.2,0.4-0.6,0.5-1c0.1-0.4,0.1-1,0.1-1.7
				c0-2.1,0-3.1,0-5.2c-0.4,0-0.7,0-1.1,0c0-0.6,0-0.8,0-1.4c1.6-0.1,2.3-0.1,3.9-0.2c0,0.6,0,0.8,0,1.4c-0.4,0-0.7,0-1.1,0
				c0,2.1,0,3.1,0,5.2c0,0.9-0.1,1.7-0.3,2.3c-0.2,0.6-0.5,1.1-0.9,1.4c-0.4,0.3-0.8,0.6-1.2,0.7c-0.4,0.1-1,0.2-1.5,0.3
				c-0.6,0-1.1,0-1.6-0.1c-0.4-0.1-0.9-0.3-1.2-0.6c-0.4-0.3-0.7-0.8-0.9-1.4c-0.2-0.6-0.3-1.4-0.3-2.3c0-2.1,0-3.1,0-5.2
				c-0.4,0-0.7,0-1.1,0.1c0-0.6,0-0.8,0-1.4c1.6-0.1,2.3-0.1,3.9-0.2c0,0.6,0,0.8,0,1.4c-0.4,0-0.7,0-1.1,0.1c0,2.1,0,3.1,0,5.2
				c0,0.7,0,1.2,0.1,1.6c0.1,0.4,0.2,0.7,0.5,0.9c0.2,0.2,0.4,0.3,0.7,0.4C108,77.6,108.3,77.7,108.7,77.6z"/>
			<path class="st0" d="M127.8,67.2c0,0.6,0,0.8,0,1.4c-0.4,0-0.7,0-1.1,0c0,3.9,0,5.8,0,9.7c-0.8,0-1.2,0-2,0.1
				c-1.9-3.8-2.9-5.6-4.8-9.4c0,3.3,0,4.9,0,8.1c0.4,0,0.7,0,1.1,0c0,0.6,0,0.8,0,1.4c-1.6,0.1-2.3,0.1-3.9,0.1c0-0.6,0-0.8,0-1.4
				c0.4,0,0.7,0,1.1,0c0-3.3,0-5,0-8.3c-0.4,0-0.7,0-1.1,0c0-0.6,0-0.8,0-1.4c1.6-0.1,2.4-0.1,4-0.1c1.6,3.1,2.4,4.6,3.9,7.7
				c0-2.6,0-3.8,0-6.4c-0.4,0-0.7,0-1.1,0c0-0.6,0-0.8,0-1.4C125.4,67.2,126.2,67.2,127.8,67.2z"/>
			<path class="st0" d="M174.7,66.9c0,0.6,0,0.8,0,1.4c-0.4,0-0.7,0-1.1,0c0,3.9,0,5.8,0,9.7c-0.8,0-1.2,0-2,0
				c-1.9-3.8-2.9-5.8-4.8-9.6c0,3.3,0,4.9,0,8.1c0.4,0,0.7,0,1.1,0c0,0.6,0,0.8,0,1.4c-1.6,0-2.3,0-3.9,0c0-0.6,0-0.8,0-1.4
				c0.4,0,0.7,0,1.1,0c0-3.3,0-5,0-8.3c-0.4,0-0.7,0-1.1,0c0-0.6,0-0.8,0-1.4c1.6,0,2.4,0,4,0c1.6,3.1,2.4,4.7,3.9,7.9
				c0-2.6,0-3.8,0-6.4c-0.4,0-0.7,0-1.1,0c0-0.6,0-0.8,0-1.4C172.3,66.9,173.1,66.9,174.7,66.9z"/>
			<path class="st0" d="M137.3,78.1c-1.6,0-2.3,0-3.9,0.1c0-0.6,0-0.8,0-1.4c0.4,0,0.7,0,1.1,0c0-3.3,0-5,0-8.3
				c-0.9,0-1.4,0-2.4,0.1c0,0.5,0,0.7,0,1.2c-0.6,0-0.8,0-1.4,0c0-1,0-1.6,0-2.6c3.7-0.1,5.5-0.1,9.2-0.2c0,1,0,1.6,0,2.6
				c-0.6,0-0.8,0-1.4,0c0-0.5,0-0.7,0-1.2c-0.9,0-1.4,0-2.4,0c0,3.3,0,5,0,8.3c0.4,0,0.7,0,1.1,0C137.3,77.2,137.3,77.5,137.3,78.1z
				"/>
			<path class="st0" d="M152.7,77.9c-1.3,0-2,0-3.3,0c0-0.6,0-0.8,0-1.4c0.3,0,0.4,0,0.7,0c-0.3-0.9-0.4-1.3-0.7-2.2
				c-1.6,0-2.4,0-4,0c-0.3,0.9-0.5,1.3-0.8,2.2c0.3,0,0.4,0,0.7,0c0,0.6,0,0.8,0,1.4c-1.3,0-2,0-3.3,0c0-0.6,0-0.8,0-1.4
				c0.3,0,0.5,0,0.8,0c1.5-3.9,2.2-5.9,3.7-9.9c0.7,0,1,0,1.7,0c1.5,3.9,2.3,5.9,3.8,9.8c0.3,0,0.4,0,0.7,0
				C152.7,77.1,152.7,77.3,152.7,77.9z M148.9,72.9c-0.6-1.8-0.9-2.6-1.5-4.4c-0.6,1.8-0.9,2.7-1.5,4.4
				C147.1,72.9,147.7,72.9,148.9,72.9z"/>
			<path class="st0" d="M160.5,77.9c-1.8,0-2.7,0-4.5,0c0-0.6,0-0.8,0-1.4c0.6,0,0.8,0,1.4,0c0-3.3,0-5,0-8.3c-0.6,0-0.8,0-1.4,0
				c0-0.6,0-0.8,0-1.4c1.8,0,2.7,0,4.5,0c0,0.6,0,0.8,0,1.4c-0.6,0-0.8,0-1.4,0c0,3.3,0,5,0,8.3c0.6,0,0.8,0,1.4,0
				C160.5,77.1,160.5,77.3,160.5,77.9z"/>
			<path class="st0" d="M193.2,74.9c0,1,0,1.5,0,2.5c-1,0.8-2.4,1.1-4.1,1.1c-1.6,0-2.9-0.6-4-1.7c-1.1-1.1-1.6-2.5-1.6-4.1
				c0-1.6,0.5-2.9,1.6-4c1.1-1.1,2.4-1.6,4-1.5c1.6,0,2.9,0.6,4,1.8c-0.4,0.4-0.5,0.6-0.9,1c-0.9-0.9-2-1.4-3.1-1.4
				c-1.1,0-2,0.3-2.8,1.1c-0.8,0.8-1.1,1.8-1.1,3c0,1.2,0.4,2.2,1.1,3c0.8,0.8,1.7,1.3,2.8,1.3c1,0,1.7-0.1,2.4-0.4
				c0-0.7,0-1.1,0-1.9c-0.4,0-0.6,0-1,0c0-0.6,0-0.8,0-1.4c1.5,0,2.2,0.1,3.7,0.1c0,0.6,0,0.8,0,1.4
				C193.8,74.9,193.6,74.9,193.2,74.9z"/>
			<path class="st0" d="M201.5,78.9c-1.6-0.1-2.3-0.1-3.9-0.2c0-0.6,0-0.8,0-1.4c0.4,0,0.7,0,1.1,0c0-3.3,0-5,0-8.3
				c-0.4,0-0.7,0-1.1,0c0-0.6,0-0.8,0-1.4c1.8,0.1,2.8,0.1,4.6,0.2c1.4,0.1,2.4,0.4,3,0.9c0.6,0.6,0.9,1.4,0.9,2.4
				c0,0.7-0.2,1.3-0.6,1.8c-0.4,0.5-1,0.8-1.7,1c0.8,1.5,1.2,2.2,2,3.7c0.4,0,0.7,0,1.1,0.1c0,0.6,0,0.8,0,1.4
				c-0.9,0-1.4-0.1-2.3-0.1c-1-2-1.5-3-2.5-4.9c-0.7,0-1,0-1.7-0.1c0,1.4,0,2.1,0,3.4c0.4,0,0.7,0,1.1,0
				C201.5,78,201.5,78.3,201.5,78.9z M202.2,69.2c-0.7,0-1.1,0-1.8-0.1c0,1.4,0,2.1,0,3.5c0.8,0,1.2,0,2,0.1c0.7,0,1.2-0.1,1.5-0.3
				c0.4-0.2,0.5-0.7,0.5-1.3c0-0.7-0.2-1.1-0.6-1.4C203.5,69.3,202.9,69.2,202.2,69.2z"/>
			<path class="st0" d="M215.5,79.5c-1.8-0.1-2.7-0.1-4.5-0.2c0-0.6,0-0.8,0-1.4c0.6,0,0.8,0,1.4,0.1c0-3.3,0-5,0-8.3
				c-0.6,0-0.8,0-1.4-0.1c0-0.6,0-0.8,0-1.4c1.8,0.1,2.7,0.1,4.5,0.2c0,0.6,0,0.8,0,1.4c-0.6,0-0.8,0-1.4-0.1c0,3.3,0,5,0,8.3
				c0.6,0,0.8,0,1.4,0.1C215.5,78.7,215.5,79,215.5,79.5z"/>
			<path class="st0" d="M227.9,80.3c-3.4-0.2-5.1-0.3-8.4-0.5c0-0.6,0-0.8,0-1.4c0.4,0,0.7,0,1.1,0.1c0-3.3,0-5,0-8.3
				c-0.4,0-0.7,0-1.1-0.1c0-0.6,0-0.8,0-1.4c1.6,0.1,2.3,0.1,3.9,0.2c0,0.6,0,0.8,0,1.4c-0.4,0-0.7,0-1.1-0.1c0,3.3,0,5,0,8.3
				c1.7,0.1,2.5,0.2,4.2,0.3c0-0.5,0-0.7,0-1.2c0.6,0,0.8,0.1,1.4,0.1C227.9,78.7,227.9,79.3,227.9,80.3z"/>
			<path class="st0" d="M239.3,81.1c-3.4-0.3-5.1-0.4-8.4-0.6c0-0.6,0-0.8,0-1.4c0.4,0,0.7,0,1.1,0.1c0-3.3,0-5,0-8.3
				c-0.4,0-0.7,0-1.1-0.1c0-0.6,0-0.8,0-1.4c1.6,0.1,2.3,0.2,3.9,0.3c0,0.6,0,0.8,0,1.4c-0.4,0-0.7,0-1.1-0.1c0,3.3,0,5,0,8.3
				c1.7,0.1,2.5,0.2,4.2,0.3c0-0.5,0-0.7,0-1.2c0.6,0,0.8,0.1,1.4,0.1C239.3,79.6,239.3,80.1,239.3,81.1z"/>
		</g>
	</g>
	<g>
		<g>
			<path class="st0" d="M24.3,8c1.9,1.6,2.8,2.5,4.7,4.1c0,7.5,0,11.2,0,18.7c-1.9,2.1-2.8,3.1-4.7,5.2c1.9,1.6,2.8,2.5,4.7,4.1
				c0,8,0,12,0,19.9c-1.9,2.1-2.8,3.1-4.7,5.2C14.6,66.5,9.7,67.2,0,68.6c0-19.1,0-38.3,0-57.4C9.7,9.8,14.6,9.1,24.3,8z M18.3,32.3
				c0.4-0.5,0.6-0.8,1.1-1.3c0-4.9,0-7.3,0-12.2c-0.4-0.4-0.6-0.6-1.1-1c-3.5,0.4-5.2,0.7-8.7,1.1c0,5.8,0,8.7,0,14.4
				C13.1,32.9,14.9,32.7,18.3,32.3z M18.3,41.6c-3.5,0.4-5.2,0.7-8.7,1.1c0,6.1,0,9.1,0,15.2c3.5-0.5,5.2-0.7,8.7-1.1
				c0.4-0.5,0.6-0.8,1.1-1.3c0-5.2,0-7.8,0-13C19,42.1,18.8,41.9,18.3,41.6z"/>
			<path class="st0" d="M68.9,56.2c-1.9,2-2.8,3-4.7,5.1c-7.7,0.6-11.6,1-19.3,1.8c-1.9-1.7-2.8-2.5-4.7-4.2c0-17.6,0-35.1,0-52.7
				c3.8-0.4,5.7-0.6,9.6-1c0,15.7,0,31.4,0,47c0.4,0.4,0.6,0.6,1.1,1c3-0.3,4.4-0.4,7.4-0.7c0.4-0.5,0.6-0.7,1.1-1.2
				c0-15.7,0-31.4,0-47c3.8-0.3,5.8-0.5,9.6-0.8C68.9,21.1,68.9,38.7,68.9,56.2z"/>
			<path class="st0" d="M80.7,55.4c0-16,0-32,0-48c1.9-2,2.8-3,4.7-5c7.7-0.5,11.6-0.7,19.4-1.1c1.9,1.8,2.8,2.7,4.7,4.5
				c0,4.7,0,7.1,0,11.9c-3.8,0.2-5.8,0.3-9.6,0.5c0-2.4,0-3.6,0-6c-0.5-0.4-0.7-0.6-1.1-1.1c-2.9,0.2-4.4,0.2-7.3,0.4
				c-0.5,0.5-0.7,0.7-1.1,1.2c0,14.6,0,21.8,0,36.4c0.5,0.4,0.7,0.6,1.1,1.1c2.9-0.2,4.4-0.3,7.3-0.4c0.5-0.5,0.7-0.7,1.1-1.2
				c0-2.4,0-3.6,0-6c3.8-0.2,5.8-0.3,9.6-0.5c0,4.7,0,7.1,0,11.9c-1.9,2-2.8,2.9-4.7,4.9C97,59,93.1,59.2,85.4,59.7
				C83.5,58,82.6,57.1,80.7,55.4z"/>
			<path class="st0" d="M140.3,25.5c5.5,12.7,8.3,19.1,13.8,31.9c-4.2,0-6.3,0-10.5,0.1c-3.6-8.4-5.4-12.6-9.1-21
				c-1.8,3.4-2.7,5-4.5,8.4c0,5.1,0,7.7,0,12.8c-3.8,0.1-5.7,0.1-9.5,0.3c0-19.1,0-38.3,0-57.4c3.8-0.1,5.7-0.2,9.5-0.3
				c0,10.5,0,15.7,0,26.2c5.4-10.6,8.1-15.9,13.5-26.5C147.7,0,149.9,0,154.1,0C148.6,10.2,145.8,15.3,140.3,25.5z"/>
			<path class="st0" d="M172.8,0.1c0,9.5,0,14.2,0,23.7c4.3,0.1,6.5,0.1,10.8,0.2c0-9.5,0-14.2,0-23.7c3.8,0.1,5.8,0.1,9.6,0.3
				c0,19.1,0,38.3,0,57.4c-3.8-0.1-5.8-0.2-9.6-0.3c0-9.8,0-14.6,0-24.4c-4.3-0.1-6.5-0.1-10.8-0.2c0,9.8,0,14.6,0,24.4
				c-3.8-0.1-5.8-0.1-9.6-0.1c0-19.1,0-38.3,0-57.4C167,0,168.9,0,172.8,0.1z"/>
			<path class="st0" d="M205,58.4c0-19.1,0-38.3,0-57.4c11,0.5,16.5,0.8,27.5,1.5c0,3.7,0,5.6,0,9.3c-7.2-0.5-10.7-0.7-17.9-1.1
				c0,5.7,0,8.6,0,14.3c5.3,0.3,8,0.4,13.3,0.8c0,3.7,0,5.6,0,9.3c-5.3-0.3-8-0.5-13.3-0.8c0,6.1,0,9.2,0,15.3
				c7.2,0.4,10.8,0.6,17.9,1.1c0,3.7,0,5.6,0,9.3C221.5,59.1,216,58.8,205,58.4z"/>
			<path class="st0" d="M265,50.1c-4.7-0.5-7.1-0.7-11.8-1.1c-1,4.9-1.5,7.3-2.6,12.2c-3.9-0.3-5.9-0.5-9.8-0.8
				c4.5-18.8,9.1-37.5,13.6-56.3c3.7,0.3,5.6,0.5,9.4,0.9c4.5,19.6,9.1,39.2,13.6,58.8c-3.9-0.4-5.9-0.6-9.8-1
				C266.5,57.7,266,55.2,265,50.1z M263.1,40.7c-1.6-7.9-2.4-11.8-4-19.7c-1.6,7.6-2.4,11.4-4,19C258.3,40.2,259.9,40.4,263.1,40.7z
				"/>
			<path class="st0" d="M310.9,10.5c1.9,2.1,2.8,3.2,4.7,5.3c0,16,0,32,0,48c-1.9,1.6-2.8,2.4-4.7,4c-9.7-1.3-14.5-2-24.2-3.1
				c0-19.1,0-38.3,0-57.4C296.4,8.6,301.3,9.2,310.9,10.5z M304.8,57.7c0.4-0.4,0.6-0.6,1.1-1c0-14.6,0-22,0-36.6
				c-0.4-0.5-0.6-0.8-1.1-1.3c-3.4-0.5-5.1-0.7-8.5-1.1c0,13,0,25.9,0,38.9C299.7,57,301.4,57.3,304.8,57.7z"/>
		</g>
	</g>
</g>
</svg>
