<?xml version="1.0" encoding="utf-8"?>
<!-- Generator: Adobe Illustrator 19.2.1, SVG Export Plug-In . SVG Version: 6.00 Build 0)  -->
<svg version="1.1" id="Layer_1" xmlns="http://www.w3.org/2000/svg" xmlns:xlink="http://www.w3.org/1999/xlink" x="0px" y="0px"
	 viewBox="0 0 303.3 233.3" style="enable-background:new 0 0 303.3 233.3;" xml:space="preserve">
<style type="text/css">
	.st0{fill:#A1C4A7;}
	.st1{fill:#DE7126;}
	.st2{fill:#F1A21F;}
</style>
<g>
	<path class="st0" d="M212.6,188.8c-1.9,1-5.1,1.4-7.8,1.2c-2.8-0.2-5.3-0.9-6.9-1.8c-1.7,0.8-4.2,1.2-7.1,1.1
		c-2.5-0.1-5.5-0.7-7.3-2c-1.9,1.1-5.3,1.5-7.9,1.4c-2.8-0.1-5.3-0.7-6.9-1.6c-1.6,0.9-4.2,1.4-7,1.3c-2.5,0-5.8-0.5-7.6-1.8
		c-1.8,1.2-4.9,1.7-7.7,1.7c-2.9,0-5.4-0.5-7-1.3c-1.6,0.9-4.1,1.5-7,1.6c-2.5,0.1-5.7-0.3-7.5-1.5c-1.8,1.2-4.9,1.9-7.8,2.1
		c-2.8,0.1-5.4-0.3-7.1-1.1c-1.6,1-4,1.7-6.9,1.8c-2.7,0.2-5.9-0.1-7.8-1.3c-0.6,0.5-1.3,0.9-2.2,1.3c2.8,2.5,5.7,4.7,8.6,6.8
		c14.6-3.6,32.5-5.8,51.8-5.8c19.5,0,37.5,2.2,52.2,5.9c2.9-2.1,5.8-4.4,8.7-6.9C213.8,189.6,213.1,189.2,212.6,188.8z"/>
	<path class="st0" d="M133.4,213.8c10.4,4.1,18.4,6.1,20.5,6.5c2.1-0.5,10-2.4,20.4-6.5c-6.6-0.6-13.5-0.9-20.7-0.9
		C146.7,213,139.9,213.3,133.4,213.8z"/>
	<path class="st0" d="M220,183.3c-2.5-0.2-5.6-0.9-7.4-2.3c-1.9,1-5.1,1.4-7.8,1.2c-2.8-0.2-5.3-0.9-6.9-1.8
		c-1.7,0.8-4.2,1.2-7.1,1.1c-2.5-0.1-5.5-0.7-7.3-2c-1.9,1.1-5.3,1.5-7.9,1.4c-2.8-0.1-5.3-0.7-6.9-1.6c-1.6,0.9-4.2,1.4-7,1.3
		c-2.5,0-5.8-0.5-7.6-1.8c-1.8,1.2-4.9,1.7-7.7,1.7c-2.9,0-5.4-0.5-7-1.3c-1.6,0.9-4.1,1.5-7,1.6c-2.5,0.1-5.7-0.3-7.5-1.5
		c-1.8,1.2-4.9,1.9-7.8,2.1c-2.8,0.1-5.4-0.3-7.1-1.1c-1.6,1-4,1.7-6.9,1.8c-2.7,0.2-5.9-0.1-7.8-1.3c-1.6,1.5-4.8,2.2-7.5,2.5
		c-0.5,0-1.1,0.1-1.6,0.1c1.5,1.6,3.1,3.1,4.7,4.5c1.9-0.5,2.9-1.2,3-1.6c0.1-0.6,0.6-1,1.2-1l0.1,0c0.6,0,1.1,0.3,1.3,0.8
		c0.2,0.4,2.5,1.5,6.5,1.2c3.1-0.2,5.3-1,6.1-1.8c0.4-0.4,1.1-0.4,1.6-0.1c0.9,0.6,3.2,1.2,6.3,1.1c3.8-0.2,6.4-1.3,6.7-1.9
		c0.4-0.7,1.6-0.8,2.1-0.1c0.4,0.6,2.8,1.5,6.4,1.4c3.1-0.1,5.3-0.8,6.2-1.5c0.5-0.4,1.1-0.4,1.6,0c0.9,0.7,3.1,1.4,6.2,1.3
		c3.4,0,5.9-0.9,6.6-1.5c0.2-0.4,0.7-0.7,1.1-0.7c0.3,0,0.6,0.1,0.9,0.3c0.1,0.1,0.2,0.2,0.3,0.3c0.6,0.7,3.1,1.5,6.5,1.5
		c3.1,0,5.4-0.6,6.2-1.3c0.5-0.4,1.2-0.4,1.6,0c0.8,0.7,3.1,1.5,6.2,1.5c3.5,0.1,6.4-0.7,7-1.3c0.2-0.3,0.6-0.4,0.9-0.4
		c0.2,0,0.4,0,0.6,0.1c0.2,0.1,0.3,0.2,0.5,0.4c0.6,0.8,3,1.7,6.3,1.8c3.1,0.1,5.4-0.4,6.3-1.1c0.5-0.4,1.2-0.3,1.6,0.1
		c0.8,0.7,3,1.6,6.1,1.8c3.6,0.2,6.2-0.5,6.8-1.2c0.2-0.3,0.6-0.4,0.9-0.4c0.3,0,0.5,0.1,0.7,0.2c0.2,0.1,0.3,0.2,0.4,0.4
		c0.3,0.4,1.3,1,2.9,1.5c1.6-1.4,3.1-3,4.7-4.5C221,183.4,220.5,183.4,220,183.3z"/>
	<path class="st0" d="M220.1,175.7c-3.5-0.3-6.5-1.4-7.3-2.7c-0.1,0,0,0-0.1,0c-1,1.1-4.3,1.8-7.8,1.6c-3.1-0.2-5.7-1-6.9-2.1
		c-1.3,0.9-4,1.5-7.1,1.3c-3.4-0.2-6.3-1.1-7.2-2.3c0,0,0,0,0,0c-1,1.1-4.6,1.8-8,1.8c-3.1-0.1-5.8-0.8-7-1.8c-1.2,1-3.9,1.6-7,1.6
		c-3.6,0-6.8-0.9-7.6-2.2c0,0,0,0,0,0c-0.9,1.2-4.1,2.1-7.7,2.2c-3.1,0-5.8-0.6-7-1.6c-1.2,1-3.8,1.8-7,1.8
		c-3.6,0.1-6.6-0.7-7.5-1.9c0,0,0,0,0,0c-0.8,1.3-4.2,2.3-7.8,2.5c-3.1,0.1-5.8-0.4-7.1-1.3c-1.2,1.1-3.8,1.9-6.9,2.1
		c-4,0.3-7.3-0.6-7.8-2c0,0-0.1,0-0.1,0c-0.3,1.5-3.5,2.8-7.4,3.2c-3.1,0.3-5.8-0.2-7.1-1.1c-0.3,0.3-0.8,0.6-1.4,0.9
		c1.4,1.8,2.9,3.5,4.4,5.2c1.1,0.2,2.4,0.2,3.9,0.1c4.1-0.3,6.1-1.7,6.3-2.1c0.1-0.6,0.6-1,1.2-1l0.1,0c0.6,0,1.1,0.3,1.3,0.8
		c0.2,0.4,2.5,1.5,6.5,1.2c3.1-0.2,5.3-1,6.1-1.8c0.4-0.4,1.1-0.4,1.6-0.1c0.9,0.6,3.2,1.2,6.3,1.1c3.8-0.2,6.4-1.3,6.7-1.9
		c0.4-0.7,1.6-0.8,2.1-0.1c0.4,0.6,2.8,1.5,6.4,1.4c3.1-0.1,5.3-0.8,6.2-1.5c0.5-0.4,1.1-0.4,1.6,0c0.9,0.7,3.1,1.3,6.2,1.3
		c3.4,0,5.9-0.9,6.6-1.5c0.2-0.4,0.7-0.7,1.1-0.7c0.3,0,0.6,0.1,0.9,0.3c0.1,0.1,0.2,0.2,0.3,0.3c0.6,0.7,3.1,1.5,6.5,1.5
		c3.1,0.1,5.4-0.6,6.2-1.3c0.5-0.4,1.2-0.4,1.6,0c0.8,0.7,3.1,1.5,6.2,1.5c3.5,0.1,6.4-0.7,7-1.3c0.2-0.3,0.6-0.4,0.9-0.4
		c0.2,0,0.4,0,0.6,0.1c0.2,0.1,0.3,0.2,0.5,0.4c0.6,0.8,3,1.7,6.3,1.8c3.1,0.1,5.4-0.4,6.3-1.1c0.5-0.4,1.2-0.3,1.6,0.1
		c0.8,0.7,3,1.6,6.1,1.8c3.6,0.2,6.2-0.5,6.8-1.2c0.2-0.3,0.6-0.4,0.9-0.4c0.3,0,0.5,0.1,0.7,0.2c0.2,0.1,0.3,0.2,0.4,0.4
		c0.4,0.7,2.7,1.8,6.3,2.1c1.5,0.1,2.8,0.1,3.8-0.1c1.5-1.7,3-3.4,4.5-5.2c-0.5-0.3-1-0.6-1.3-0.9
		C225.9,175.5,223.2,175.9,220.1,175.7z"/>
</g>
<g>
	<path class="st0" d="M153.1,172.1L153.1,172.1C153.1,172.1,153.1,172.1,153.1,172.1z"/>
	<path class="st0" d="M153.1,172.1L153.1,172.1C153.2,172.1,153.2,172.1,153.1,172.1z"/>
</g>
<g>
	<g>
		<path class="st1" d="M86.9,158.6c1.4-0.1,2.1-0.1,3.6-0.2c0,0.5,0,0.8,0,1.3c-0.4,0-0.6,0-1,0.1c0,3,0,4.5,0,7.5
			c0.4,0,0.6,0,1-0.1c0,0.5,0,0.8,0,1.3c-1.4,0.1-2.1,0.1-3.5,0.2c0-0.5,0-0.8,0-1.3c0.4,0,0.6,0,1-0.1c0-2.9,0-4.4,0-7.3
			c-1.2,3.5-1.8,5.3-3,8.8c-0.5,0-0.8,0.1-1.4,0.1c-1.3-3.3-1.9-5-3.1-8.4c0,2.9,0,4.4,0,7.3c0.4,0,0.6,0,1-0.1c0,0.5,0,0.8,0,1.3
			c-1.4,0.1-2.1,0.2-3.5,0.3c0-0.5,0-0.8,0-1.3c0.4,0,0.6,0,1-0.1c0-3,0-4.5,0-7.5c-0.4,0-0.6,0-1,0.1c0-0.5,0-0.8,0-1.3
			c1.4-0.1,2.1-0.2,3.5-0.3c1.1,3,1.7,4.6,2.8,7.6C85.3,163.3,85.8,161.7,86.9,158.6z"/>
		<path class="st1" d="M93.9,166.8c-1-0.9-1.5-2.1-1.5-3.6c0-1.5,0.5-2.7,1.5-3.7c1-1,2.2-1.6,3.6-1.7c1.4-0.1,2.7,0.3,3.6,1.3
			c1,0.9,1.5,2.1,1.5,3.6c0,1.4-0.5,2.7-1.5,3.7c-1,1-2.2,1.6-3.6,1.7C96.1,168.1,94.9,167.7,93.9,166.8z M95,160.4
			c-0.7,0.8-1,1.7-1,2.8s0.3,2,1,2.7c0.7,0.7,1.5,1,2.5,1c1-0.1,1.8-0.5,2.5-1.3c0.7-0.8,1-1.7,1-2.8s-0.3-2-1-2.7
			c-0.7-0.7-1.5-1-2.5-1C96.6,159.1,95.7,159.6,95,160.4z"/>
		<path class="st1" d="M109.5,166.1c0.4,0,0.7-0.1,0.9-0.1c0.2-0.1,0.4-0.2,0.6-0.4c0.2-0.2,0.3-0.5,0.4-0.9
			c0.1-0.4,0.1-0.9,0.1-1.5c0-1.9,0-2.8,0-4.7c-0.4,0-0.6,0-1,0c0-0.5,0-0.8,0-1.3c1.4-0.1,2.1-0.1,3.5-0.2c0,0.5,0,0.8,0,1.3
			c-0.4,0-0.6,0-1,0c0,1.9,0,2.8,0,4.7c0,0.8-0.1,1.5-0.3,2.1c-0.2,0.6-0.4,1-0.8,1.3c-0.3,0.3-0.7,0.5-1.1,0.7
			c-0.4,0.1-0.9,0.2-1.4,0.2c-0.5,0-1,0-1.4-0.1c-0.4-0.1-0.8-0.3-1.1-0.6c-0.3-0.3-0.6-0.7-0.8-1.2c-0.2-0.6-0.3-1.2-0.3-2.1
			c0-1.9,0-2.8,0-4.7c-0.4,0-0.6,0-1,0.1c0-0.5,0-0.8,0-1.3c1.4-0.1,2.1-0.1,3.5-0.2c0,0.5,0,0.8,0,1.3c-0.4,0-0.6,0-1,0
			c0,1.9,0,2.8,0,4.7c0,0.6,0,1.1,0.1,1.5c0.1,0.4,0.2,0.7,0.4,0.9c0.2,0.2,0.4,0.3,0.6,0.4C108.8,166.1,109.1,166.2,109.5,166.1z"
			/>
		<path class="st1" d="M126.8,156.6c0,0.5,0,0.8,0,1.3c-0.4,0-0.6,0-1,0c0,3.5,0,5.3,0,8.8c-0.7,0-1.1,0-1.9,0.1
			c-1.7-3.4-2.6-5.1-4.4-8.5c0,3,0,4.4,0,7.4c0.4,0,0.6,0,1,0c0,0.5,0,0.8,0,1.3c-1.4,0-2.1,0.1-3.5,0.1c0-0.5,0-0.8,0-1.3
			c0.4,0,0.6,0,1,0c0-3,0-4.5,0-7.5c-0.4,0-0.6,0-1,0c0-0.5,0-0.8,0-1.3c1.5-0.1,2.2-0.1,3.7-0.1c1.4,2.8,2.1,4.2,3.6,7
			c0-2.3,0-3.5,0-5.8c-0.4,0-0.6,0-1,0c0-0.5,0-0.8,0-1.3C124.7,156.7,125.4,156.7,126.8,156.6z"/>
		<path class="st1" d="M169.4,156.4c0,0.5,0,0.8,0,1.3c-0.4,0-0.6,0-1,0c0,3.5,0,5.3,0,8.8c-0.7,0-1.1,0-1.9,0
			c-1.7-3.5-2.6-5.2-4.4-8.7c0,3,0,4.4,0,7.4c0.4,0,0.6,0,1,0c0,0.5,0,0.8,0,1.3c-1.4,0-2.1,0-3.5,0c0-0.5,0-0.8,0-1.3
			c0.4,0,0.6,0,1,0c0-3,0-4.5,0-7.5c-0.4,0-0.6,0-1,0c0-0.5,0-0.8,0-1.3c1.5,0,2.2,0,3.7,0c1.4,2.8,2.1,4.3,3.6,7.1
			c0-2.3,0-3.5,0-5.8c-0.4,0-0.6,0-1,0c0-0.5,0-0.8,0-1.3C167.2,156.4,168,156.4,169.4,156.4z"/>
		<path class="st1" d="M135.4,166.5c-1.4,0-2.1,0-3.5,0.1c0-0.5,0-0.8,0-1.3c0.4,0,0.6,0,1,0c0-3,0-4.5,0-7.5c-0.9,0-1.3,0-2.1,0
			c0,0.4,0,0.7,0,1.1c-0.5,0-0.8,0-1.3,0c0-0.9,0-1.4,0-2.4c3.3-0.1,5-0.1,8.4-0.2c0,0.9,0,1.4,0,2.4c-0.5,0-0.8,0-1.3,0
			c0-0.4,0-0.7,0-1.1c-0.9,0-1.3,0-2.1,0c0,3,0,4.5,0,7.5c0.4,0,0.6,0,1,0C135.4,165.8,135.4,166,135.4,166.5z"/>
		<path class="st1" d="M149.4,166.4c-1.2,0-1.8,0-3,0c0-0.5,0-0.8,0-1.3c0.2,0,0.4,0,0.6,0c-0.3-0.8-0.4-1.2-0.7-2
			c-1.4,0-2.2,0-3.6,0c-0.3,0.8-0.4,1.2-0.7,2c0.3,0,0.4,0,0.7,0c0,0.5,0,0.8,0,1.3c-1.2,0-1.8,0-3,0c0-0.5,0-0.8,0-1.3
			c0.3,0,0.4,0,0.7,0c1.4-3.6,2-5.4,3.4-8.9c0.6,0,0.9,0,1.5,0c1.4,3.6,2,5.3,3.4,8.9c0.2,0,0.4,0,0.6,0
			C149.4,165.6,149.4,165.9,149.4,166.4z M146,161.9c-0.5-1.6-0.8-2.4-1.4-4c-0.6,1.6-0.8,2.4-1.4,4
			C144.3,161.9,144.9,161.9,146,161.9z"/>
		<path class="st1" d="M156.5,166.4c-1.6,0-2.5,0-4.1,0c0-0.5,0-0.8,0-1.3c0.5,0,0.8,0,1.3,0c0-3,0-4.5,0-7.5c-0.5,0-0.8,0-1.3,0
			c0-0.5,0-0.8,0-1.3c1.6,0,2.5,0,4.1,0c0,0.5,0,0.8,0,1.3c-0.5,0-0.8,0-1.3,0c0,3,0,4.5,0,7.5c0.5,0,0.8,0,1.3,0
			C156.5,165.6,156.5,165.9,156.5,166.4z"/>
		<path class="st1" d="M186.2,163.7c0,0.9,0,1.3,0,2.2c-0.9,0.7-2.2,1-3.7,1c-1.4,0-2.7-0.6-3.6-1.6c-1-1-1.5-2.2-1.5-3.7
			c0-1.5,0.5-2.7,1.5-3.6c1-1,2.2-1.4,3.6-1.4c1.5,0,2.7,0.6,3.7,1.6c-0.3,0.4-0.5,0.6-0.8,0.9c-0.8-0.8-1.8-1.2-2.8-1.3
			c-1,0-1.8,0.3-2.5,1c-0.7,0.7-1,1.6-1,2.7s0.3,2,1,2.8c0.7,0.8,1.5,1.2,2.5,1.2c0.9,0,1.6-0.1,2.2-0.3c0-0.7,0-1,0-1.7
			c-0.4,0-0.5,0-0.9,0c0-0.5,0-0.8,0-1.3c1.3,0,2,0.1,3.3,0.1c0,0.5,0,0.8,0,1.3C186.7,163.7,186.6,163.7,186.2,163.7z"/>
		<path class="st1" d="M193.8,167.2c-1.4-0.1-2.1-0.1-3.5-0.1c0-0.5,0-0.8,0-1.3c0.4,0,0.6,0,1,0c0-3,0-4.5,0-7.5c-0.4,0-0.6,0-1,0
			c0-0.5,0-0.8,0-1.3c1.7,0.1,2.5,0.1,4.2,0.2c1.2,0.1,2.1,0.3,2.7,0.8c0.6,0.5,0.8,1.2,0.8,2.2c0,0.7-0.2,1.2-0.6,1.6
			c-0.4,0.4-0.9,0.7-1.6,0.9c0.7,1.4,1.1,2,1.8,3.4c0.4,0,0.6,0,1,0c0,0.5,0,0.8,0,1.3c-0.8,0-1.3-0.1-2.1-0.1
			c-0.9-1.8-1.4-2.7-2.3-4.5c-0.6,0-0.9,0-1.5-0.1c0,1.2,0,1.9,0,3.1c0.4,0,0.6,0,1,0C193.8,166.5,193.8,166.7,193.8,167.2z
			 M194.4,158.4c-0.7,0-1,0-1.6-0.1c0,1.3,0,1.9,0,3.2c0.7,0,1.1,0,1.8,0.1c0.6,0,1.1-0.1,1.4-0.3c0.3-0.2,0.5-0.6,0.5-1.2
			c0-0.6-0.2-1-0.5-1.3C195.5,158.6,195,158.5,194.4,158.4z"/>
		<path class="st1" d="M206.4,167.9c-1.6-0.1-2.5-0.1-4.1-0.2c0-0.5,0-0.8,0-1.3c0.5,0,0.8,0,1.3,0.1c0-3,0-4.5,0-7.5
			c-0.5,0-0.8,0-1.3-0.1c0-0.5,0-0.8,0-1.3c1.6,0.1,2.5,0.1,4.1,0.2c0,0.5,0,0.8,0,1.3c-0.5,0-0.8,0-1.3-0.1c0,3,0,4.5,0,7.5
			c0.5,0,0.8,0,1.3,0.1C206.4,167.1,206.4,167.4,206.4,167.9z"/>
		<path class="st1" d="M217.7,168.6c-3.1-0.2-4.6-0.3-7.7-0.5c0-0.5,0-0.8,0-1.3c0.4,0,0.6,0,1,0.1c0-3,0-4.5,0-7.5
			c-0.4,0-0.6,0-1-0.1c0-0.5,0-0.8,0-1.3c1.4,0.1,2.1,0.1,3.5,0.2c0,0.5,0,0.8,0,1.3c-0.4,0-0.6,0-1-0.1c0,3,0,4.5,0,7.5
			c1.5,0.1,2.3,0.1,3.8,0.2c0-0.4,0-0.7,0-1.1c0.5,0,0.8,0.1,1.3,0.1C217.7,167.2,217.7,167.6,217.7,168.6z"/>
		<path class="st1" d="M228.1,169.3c-3.1-0.2-4.6-0.4-7.7-0.6c0-0.5,0-0.8,0-1.3c0.4,0,0.6,0,1,0.1c0-3,0-4.5,0-7.5
			c-0.4,0-0.6,0-1-0.1c0-0.5,0-0.8,0-1.3c1.4,0.1,2.1,0.2,3.5,0.3c0,0.5,0,0.8,0,1.3c-0.4,0-0.6,0-1-0.1c0,3,0,4.5,0,7.5
			c1.5,0.1,2.3,0.2,3.8,0.3c0-0.4,0-0.7,0-1.1c0.5,0,0.8,0.1,1.3,0.1C228.1,167.9,228.1,168.4,228.1,169.3z"/>
	</g>
</g>
<g>
	<g>
		<path class="st1" d="M25.5,97.6c1.8,1.6,2.7,2.3,4.4,3.9c0,7.1,0,10.7,0,17.8c-1.8,2-2.7,3-4.4,5c1.8,1.6,2.7,2.3,4.4,3.9
			c0,7.6,0,11.3,0,18.9c-1.8,2-2.7,3-4.4,5c-9.2,1.1-13.8,1.7-23.1,3c0-18.1,0-36.3,0-54.4C11.7,99.3,16.3,98.7,25.5,97.6z
			 M19.9,120.6c0.4-0.5,0.6-0.7,1-1.2c0-4.6,0-6.9,0-11.5c-0.4-0.4-0.6-0.6-1-1c-3.3,0.4-5,0.6-8.3,1.1c0,5.5,0,8.2,0,13.7
			C14.9,121.3,16.6,121.1,19.9,120.6z M19.9,129.5c-3.3,0.4-5,0.6-8.3,1.1c0,5.8,0,8.6,0,14.4c3.3-0.4,5-0.7,8.3-1.1
			c0.4-0.5,0.6-0.7,1-1.2c0-4.9,0-7.4,0-12.3C20.5,130,20.3,129.8,19.9,129.5z"/>
		<path class="st1" d="M67.9,143.4c-1.8,1.9-2.7,2.9-4.4,4.8c-7.3,0.6-11,1-18.3,1.7c-1.8-1.6-2.7-2.4-4.4-4c0-16.7,0-33.3,0-50
			c3.6-0.4,5.5-0.6,9.1-0.9c0,14.9,0,29.8,0,44.6c0.4,0.4,0.6,0.5,1,0.9c2.8-0.3,4.2-0.4,7-0.6c0.4-0.4,0.6-0.7,1-1.1
			c0-14.9,0-29.8,0-44.6c3.6-0.3,5.5-0.5,9.1-0.8C67.9,110,67.9,126.7,67.9,143.4z"/>
		<path class="st1" d="M79.1,142.6c0-15.2,0-30.4,0-45.6c1.8-1.9,2.7-2.8,4.4-4.7c7.3-0.5,11-0.7,18.4-1c1.8,1.7,2.7,2.5,4.4,4.2
			c0,4.5,0,6.7,0,11.2c-3.6,0.2-5.5,0.2-9.1,0.4c0-2.3,0-3.4,0-5.7c-0.4-0.4-0.6-0.6-1.1-1c-2.8,0.1-4.1,0.2-6.9,0.4
			c-0.4,0.5-0.6,0.7-1.1,1.1c0,13.8,0,20.7,0,34.5c0.4,0.4,0.6,0.6,1.1,1c2.8-0.2,4.1-0.2,6.9-0.4c0.4-0.5,0.6-0.7,1.1-1.1
			c0-2.3,0-3.4,0-5.7c3.6-0.2,5.5-0.3,9.1-0.4c0,4.5,0,6.7,0,11.2c-1.8,1.9-2.7,2.8-4.4,4.6c-7.3,0.3-11,0.6-18.4,1
			C81.7,145,80.8,144.2,79.1,142.6z"/>
		<path class="st1" d="M135.6,114.2c5.2,12.1,7.8,18.1,13.1,30.3c-4,0-6,0-10,0.1c-3.4-8-5.2-12-8.6-19.9c-1.7,3.2-2.6,4.8-4.3,8
			c0,4.9,0,7.3,0,12.2c-3.6,0.1-5.4,0.1-9,0.3c0-18.1,0-36.3,0-54.4c3.6-0.1,5.4-0.2,9-0.3c0,9.9,0,14.9,0,24.9
			c5.1-10.1,7.7-15.1,12.9-25.1c4-0.1,6-0.1,10.1-0.1C143.5,99.7,140.8,104.5,135.6,114.2z"/>
		<path class="st1" d="M166.4,90.1c0,9,0,13.5,0,22.5c4.1,0.1,6.2,0.1,10.3,0.2c0-9,0-13.5,0-22.5c3.6,0.1,5.5,0.1,9.1,0.2
			c0,18.1,0,36.3,0,54.4c-3.6-0.1-5.5-0.2-9.1-0.2c0-9.3,0-13.9,0-23.1c-4.1-0.1-6.2-0.1-10.3-0.2c0,9.3,0,13.9,0,23.1
			c-3.6,0-5.5-0.1-9.1-0.1c0-18.1,0-36.3,0-54.4C160.9,90.1,162.8,90.1,166.4,90.1z"/>
		<path class="st1" d="M197,145.4c0-18.1,0-36.3,0-54.4c10.5,0.4,15.7,0.7,26.1,1.4c0,3.5,0,5.3,0,8.8c-6.8-0.5-10.2-0.7-17-1
			c0,5.4,0,8.1,0,13.5c5.1,0.3,7.6,0.4,12.6,0.7c0,3.5,0,5.3,0,8.8c-5-0.3-7.6-0.5-12.6-0.7c0,5.8,0,8.7,0,14.5
			c6.8,0.3,10.2,0.5,17,1c0,3.5,0,5.3,0,8.8C212.7,146.1,207.4,145.9,197,145.4z"/>
		<path class="st1" d="M253.9,137.6c-4.5-0.4-6.7-0.6-11.2-1c-1,4.6-1.5,6.9-2.4,11.5c-3.7-0.3-5.6-0.5-9.3-0.7
			c4.3-17.8,8.6-35.6,12.9-53.4c3.6,0.3,5.3,0.5,8.9,0.8c4.3,18.6,8.6,37.2,12.9,55.8c-3.7-0.4-5.6-0.6-9.3-1
			C255.4,144.8,254.9,142.4,253.9,137.6z M252.1,128.6c-1.5-7.5-2.3-11.2-3.8-18.7c-1.5,7.2-2.3,10.8-3.8,18
			C247.6,128.2,249.1,128.3,252.1,128.6z"/>
		<path class="st1" d="M297.5,100c1.8,2,2.7,3,4.4,5.1c0,15.2,0,30.4,0,45.6c-1.8,1.5-2.7,2.3-4.4,3.8c-9.2-1.3-13.8-1.9-23-2.9
			c0-18.1,0-36.3,0-54.4C283.7,98.2,288.3,98.7,297.5,100z M291.7,144.8c0.4-0.4,0.6-0.6,1-0.9c0-13.9,0-20.8,0-34.7
			c-0.4-0.5-0.6-0.7-1-1.2c-3.2-0.4-4.8-0.6-8.1-1c0,12.3,0,24.6,0,36.9C286.9,144.2,288.5,144.4,291.7,144.8z"/>
	</g>
</g>
<path class="st1" d="M160.7,43.1l1-0.5l-0.2-0.6l-0.4-0.9l-0.9-0.1l-0.7-1.5c0,0-3-0.9-3.1-0.9c-0.1,0-1.7-1.2-1.7-1.2l-1.7-2.8l0,0
	l-0.4-1.5l1.4-0.3l0.9-1.6l-1.9,0.3l-0.8,0.7l-0.7-0.1l0-0.2l0.8-0.7l2.3-0.3l3.7-2l1.3-1.2l0.1-1.4l-0.4,1.2l-0.8,0.6l-0.2-0.2
	l0.9-2l0-2.3l-0.3-1.4l-0.7-0.4l0.5,0.7L159,24l-0.3,1.8l-0.4,0.7l0.2-1.2l-0.4-1.1l0.2,1.2l-0.4,1.9l-0.2,0.7l-0.8,0.4l0.4-1.7
	l-0.3-1.3l-0.7-1l-0.1,0.2l0.5,1.1l0.1,1.1l-0.1,0.6l-0.6-0.7l0.3,1l-0.3,1.1l-1.1,1.2l-0.9,0.4l0.6-1l0.3-0.9l-0.7,1l-0.9,0.7
	l-1.3,0.3l0.9-1.4l0.5-2l-1.1,2.1l-1.1,1.2l-0.5,0.1l-0.5-0.2l-0.7-1.4l-0.6-2.3l0,2.1l0.6,1.5l-1.1-0.7l-0.7-1l-0.4-1.1l0.1,1
	l0.4,1.1l-0.7-0.6l-0.7-1.4l0-1.1l0.6-0.9l-0.8,0.5l0.1-0.6l0.3-1l0.8-0.9l0-0.3l-1,0.8l-0.7,1.2l0,1.8l-0.6-0.6l0-0.8l0.1-1.9
	l0.5-1.2l-0.7,1l-0.1,1.2l-0.2-0.8l0.2-1.8l0.5-1.3l0.6-0.5l-0.7,0.2l-0.7,1.3l-0.5,2.2l0.4,2.1l-0.2,0.1l-0.6-0.8l-0.1-1.3
	l-0.3,1.4l1,1.5l3.1,2.9l2.1,0.9l0.6,0.9l-0.1,0.2l-0.1,0l-0.5,0.1l-0.5-0.5l-1.6,0l0.8,1.2l0.8,0.3l-0.2,0.9l-1.8,2.3l0.9,0.7
	l0.5-0.1l1.7-0.7l0,0.4l0.4,3.2l-0.6,3.2l1.8,3.9l2.6,7.5l1.9,1.7l-3.2-7.6l-0.5-2.5l0.4-0.6l0.5,0.9l0.2,2.8l0.1,3.3l1.1,1.1
	l-0.1-3.5l0.3-2.2l0.4-0.9l1.4,1.2l-0.7,3.1l-0.4,1.6l2,0.3l-0.4-1.4l1.1-3.6l-1.3-3.2l2.6,3.7l-1.5,5.1l0.6,0.5l2.7-6l-1.1-2.7
	L160.7,43.1z"/>
<polygon class="st2" points="150,31.7 149,32.1 148.6,33.8 146.8,36.1 147.7,36.8 150.3,34.1 152.2,32.2 150.9,31.9 "/>
<polygon class="st2" points="154.9,31.2 153,31.5 152.2,32.2 151.2,33.1 "/>
<polygon class="st2" points="149.7,36 151.7,34.7 153.2,39.7 154.9,43 154.2,47.6 154.3,53.1 153.8,53.4 153.3,50 153.1,46.5 
	152.7,45.4 152.3,45.8 152.9,48.4 153.8,50.6 153.9,53.8 153.7,53.6 152.1,49 149.5,42.6 150.1,39.4 "/>
<g>
	<path class="st2" d="M153.6,193.9c-17.9,0-34.6,1.9-48.5,5.1c4,2.7,7.9,5,11.6,7c4,2.2,7.9,4,11.6,5.7c8-0.8,16.5-1.3,25.3-1.3
		c9,0,17.6,0.5,25.8,1.3c3.7-1.6,7.7-3.5,11.7-5.7c3.6-2,7.5-4.3,11.5-6.9C188.6,195.8,171.7,193.9,153.6,193.9z M132.3,207.8
		c-0.7,0.1-1.1,0.1-1.8,0.2c-0.6-1.4-0.9-2.1-1.5-3.4c-0.3,0.6-0.5,0.9-0.8,1.5c0,0.9,0,1.3,0,2.2c-0.6,0.1-1,0.1-1.6,0.2
		c0-3.9,0-5.8,0-9.7c0.6-0.1,1-0.1,1.6-0.2c0,1.8,0,2.7,0,4.4c0.9-1.9,1.4-2.8,2.3-4.7c0.7-0.1,1.1-0.1,1.8-0.2
		c-0.9,1.8-1.4,2.7-2.3,4.5C130.9,204.6,131.4,205.7,132.3,207.8z M136.4,204.1c0,1.4,0,2,0,3.4c-0.6,0-1,0.1-1.6,0.1
		c0-1.4,0-2,0-3.4c-0.9-2.5-1.3-3.7-2.2-6.1c0.7-0.1,1.1-0.1,1.8-0.1c0.5,1.6,0.8,2.4,1.3,4c0.5-1.7,0.8-2.5,1.3-4.2
		c0.7,0,1.1-0.1,1.8-0.1C137.7,200.2,137.3,201.5,136.4,204.1z M143.6,207.8c-0.7,0-1,0-1.7,0.1c0.7-3.9,1.2-7.2,1.9-11.1
		c0.7,0,1,0,1.7-0.1C144.8,200.6,144.2,203.9,143.6,207.8z M150.7,206.9c-0.7,0-1,0-1.6,0c0-3.9,0-5.8,0-9.7c0.7,0,1,0,1.6,0
		C150.7,201.1,150.7,203,150.7,206.9z M157.4,206.9c-0.7,0-1.1,0-1.8,0c-0.8-2.4-1.3-3.6-2.1-6c0,2.4,0,3.6,0,6c-0.7,0-1,0-1.6,0
		c0-3.9,0-5.8,0-9.7c0.7,0,1.1,0,1.8,0c0.8,2.4,1.3,3.6,2.1,6c0-2.4,0-3.6,0-6c0.7,0,1,0,1.6,0C157.4,201.1,157.4,203,157.4,206.9z
		 M162.7,207.7c-0.7,0-1,0-1.7-0.1c0.7-3.9,1.2-6.9,1.9-10.7c0.7,0,1,0,1.7,0.1C163.9,200.8,163.4,203.9,162.7,207.7z M173.2,206.9
		c-0.3,0.3-0.5,0.4-0.8,0.7c-1.3-0.1-2-0.2-3.3-0.2c-0.3-0.3-0.5-0.5-0.8-0.8c0-3.3,0-4.9,0-8.1c0.3-0.3,0.5-0.4,0.8-0.7
		c1.3,0.1,2,0.1,3.3,0.2c0.3,0.3,0.5,0.5,0.8,0.9C173.2,202.1,173.2,203.7,173.2,206.9z M179.3,208.3c-0.6-0.1-1-0.1-1.6-0.2
		c0-1.7,0-2.5,0-4.1c-0.7-0.1-1.1-0.1-1.8-0.2c0,1.7,0,2.5,0,4.1c-0.6-0.1-1-0.1-1.6-0.1c0-3.9,0-5.8,0-9.7c0.6,0.1,1,0.1,1.6,0.1
		c0,1.6,0,2.4,0,4c0.7,0.1,1.1,0.1,1.8,0.2c0-1.6,0-2.4,0-4c0.6,0.1,1,0.1,1.6,0.2C179.3,202.5,179.3,204.4,179.3,208.3z"/>
	<path class="st2" d="M170.1,199.4c-0.1,0.1-0.1,0.1-0.2,0.2c0,2.5,0,3.7,0,6.2c0.1,0.1,0.1,0.1,0.2,0.2c0.5,0,0.7,0.1,1.2,0.1
		c0.1-0.1,0.1-0.1,0.2-0.2c0-2.5,0-3.7,0-6.2c-0.1-0.1-0.1-0.1-0.2-0.2C170.8,199.4,170.6,199.4,170.1,199.4z"/>
</g>
<g>
	<path class="st2" d="M237,82.8c-0.9-1.7-1.5-2.9-2.6-4.9c0,0-2.9,0.8-3.2,0.8c1.4,1.6,2.3,2.6,3.5,3.9
		C235.5,82.7,236.2,82.7,237,82.8z"/>
	<path class="st2" d="M214.9,81.3c-0.4-4.7-1-10-1.3-10.1c-0.6-0.2-14.4,3.6-14.4,3.6c-5.9,2-8.8,3-14.6,5.1c0,0,0,0,0,0
		c5.4,0.2,9.6,0.4,13.7,0.7C203.9,80.7,209.5,81,214.9,81.3z"/>
	<path class="st2" d="M151.2,79.5c8.1-0.1,16.2-0.1,24.4,0c-0.8-2.2-1.2-3.3-2.1-5.4c1.5-1.3,2.3-1.9,3.9-3.2
		c0.2-5.4,0.2-8.2,0.4-13.6c-10.4,8.5-15.4,12.9-25.1,21.8c1.3-10.8,2-16.2,3.4-26.9c-4.3,2.6-6.5,4-10.8,6.7
		c-7,8.3-10.5,12.6-17,21C135.7,79.6,143.4,79.5,151.2,79.5z"/>
	<path class="st2" d="M101,80.8c-2.2-6.1-5.1-13.9-5.5-14C94.9,66.8,81.9,73,81.9,73c-3.4,3.9-5.4,6.2-8.2,9.5
		C82.2,81.9,91.4,81.3,101,80.8z"/>
	<path class="st2" d="M128,79.8c4-8.1,6.1-12.3,10.4-20.4c-1.7,1.9-2.6,2.8-4.2,4.7c-2.6,6.3-3.9,9.5-6.4,15.8
		C127.8,79.8,127.9,79.8,128,79.8z"/>
	<path class="st2" d="M126.7,79.8c-0.4-6-0.6-9.1-1-15.2c-5,3-7.5,4.5-12.4,7.5c-3,3.4-4.6,5.3-7.2,8.4
		C112.9,80.3,119.7,80,126.7,79.8z"/>
</g>
<g>
	<path class="st1" d="M170.9,79.4c11.1,0.2,18,0.5,27.1,1.1c3,0.1,6,0.3,8.9,0.4c-11.2-9.6-17.1-14.4-29.2-23.6
		c-4.3,7.6-6.3,11.5-10.4,19.2C168.8,77.6,169.5,78.2,170.9,79.4z"/>
	<path class="st1" d="M173.1,61.2c-6.9-3.9-10.1-5.4-17.1-9c-2.2,10.9-3.2,16.3-5.2,27.2c1.3,0,1.9,0,3.2,0
		C161.5,72.1,165.1,68.1,173.1,61.2z"/>
	<path class="st1" d="M234.8,82.6c-1.2-1.3-2.1-2.3-3.5-3.8c-7-3.2-10.5-4.7-17.7-7.7c0.2,4.1,0.4,6.2,0.6,10.1
		C221.3,81.7,228.2,82.1,234.8,82.6z"/>
	<path class="st1" d="M244.7,83.4L244.7,83.4c-3.9-1.8-6.3-3.4-10.3-5.5c1,2,1.5,3.2,2.3,4.8C239.4,83,242.1,83.2,244.7,83.4z"/>
	<path class="st1" d="M127.7,79.8c2.5-6.3,3.8-9.5,6.4-15.8c-3.4,0.2-5,0.3-8.4,0.6c0.3,6.1,0.5,9.2,0.8,15.2
		C126.9,79.8,127.3,79.8,127.7,79.8z"/>
	<path class="st1" d="M79.2,82.1c0.9-3.2,1.6-5.4,2.7-9.1c-3.3,3.8-4.7,3.9-7.7,7.3l-12.9,3.2C66.9,83,72.9,82.5,79.2,82.1z"/>
	<path class="st1" d="M128.7,79.8c6.3-8.4,9.7-12.7,16.5-21c-2.7,0.2-4.1,0.3-6.9,0.6c-4.3,8.1-6.4,12.3-10.4,20.4
		C128.2,79.8,128.5,79.8,128.7,79.8z"/>
	<path class="st1" d="M106.2,80.6c2.6-3.1,4.2-5,7.1-8.4c-7.1-2.2-10.7-3.3-17.9-5.3c2.2,5.6,3.4,8.6,5.4,14
		C102.6,80.7,104.4,80.6,106.2,80.6z"/>
</g>
<g>
	<path class="st0" d="M55.7,77.2l4.3-0.5l6.2-2.5l5.2-3.3l5-9.5l5.3-2.8l5.2-0.1l6.8-6.2l7.1-3.3l0-0.1l4.8-0.8l3.7,2.6l1.3,3.5
		l5.9-0.5c-0.1-1.2-0.2-2.3-0.2-3.5c0-12.1,5.4-23,13.9-30.3L117.1,17l-6.9,4.2l-2.9-0.2l-4.6,2.9l-4.2-5.5l-5.3,3.3l-2.7,2.2
		l-1.1,3.3l-4,0.7l-1.1,4.2l-4.8,7.5l-6.2,2.2l-6.2,4.1l0.3,4.4L63.8,53L61,53.5l-0.7,3.2l-1.9,0c-0.5,2.9-1,5.9-1.4,9.1
		C56.5,69.3,56,73.1,55.7,77.2z M97.1,38.6l1.3-1.8l-0.7,3.7l-3.2-2.7L97.1,38.6z M84.3,52.9l1.2-1.8L85,54.9l-4.5-4L84.3,52.9z"/>
	<path class="st0" d="M238.1,39.9c0-0.1,0-0.1-0.1-0.2l-4.5-3.2l-2.4-7.3l-3.5-0.7l-2.7-3.3l-4.4-0.7l-5.1-3.1l-1.5-1.9
		c-1.2-0.3-2.4-0.6-3.7-0.9l-3,2.4l-2.9-0.2l-8,1.8l-8-1.3l-6.6-3.8l-5.2-1.7c11.7,7,19.5,19.7,19.5,34.3c0,1.8-0.1,3.5-0.3,5.2
		l2.4-0.2l11.4,6l15.7-0.4l6.2,4.4l8.9,2.4c0,0,6.2,2.2,10.4,3.7c-0.2-1.9-0.4-3.7-0.7-5.5c-1.3-9.2-3-17.3-4.6-23.6l-1-0.2
		L238.1,39.9z M212.5,44.6l0.7-4.2l0.7,2.5l5.5,0.2L212.5,44.6z M235.2,60.2l-0.9-4l1.5,1.2l4.6-1.8L235.2,60.2z"/>
</g>
<g>
	<path class="st1" d="M243.6,157.3c-12.1,26.5-34.2,43-51.5,52.3c-18.7,10.1-35.4,14.2-38.7,14.9c-3.2-0.7-20-4.8-38.7-14.9
		c-17.2-9.3-39.4-25.7-51.4-52.2c-2.1,0.2-4.1,0.4-6.1,0.5c10,23.2,28.9,42.8,55,56.9c21.4,11.6,39.9,15.3,40.7,15.5l0.3,0.1h0.6
		l0.3-0.1c0.8-0.2,19.3-3.9,40.7-15.5c26.1-14.1,44.9-33.7,55-56.9C247.7,157.6,245.7,157.5,243.6,157.3z"/>
	<path class="st1" d="M51.6,84.6c0.3-7.5,1.1-14.5,1.9-20.6c2.8-20,7.5-34.8,8.9-39c7.7-2.9,49.8-17.7,90.7-17l0.6,0
		c40.9-0.7,82.9,14.1,90.6,17c1.4,4.2,6.1,19.1,8.9,39c0.8,6.1,1.6,13,1.9,20.5c2,0.2,4,0.4,5.9,0.6c-0.3-8.1-1.1-15.6-2-22.1
		c-3.4-24.2-9.4-40.6-9.6-41.3l-0.4-1.2l-1.2-0.5c-0.5-0.2-47.9-18.7-94-17.9l-0.5,0C107.1,1.2,59.6,19.8,59.1,20l-1.2,0.5l-0.5,1.2
		c-0.3,0.7-6.2,17.1-9.6,41.3c-0.9,6.5-1.7,14-2,22.1C47.7,84.9,49.6,84.7,51.6,84.6z"/>
</g>
</svg>
