<?xml version="1.0" encoding="utf-8"?>
<!-- Generator: Adobe Illustrator 20.1.0, SVG Export Plug-In . SVG Version: 6.00 Build 0)  -->
<svg version="1.1" id="Layer_1" xmlns="https://www.w3.org/2000/svg" xmlns:xlink="https://www.w3.org/1999/xlink" x="0px" y="0px"
	 viewBox="0 0 261 276.5" style="enable-background:new 0 0 261 276.5;" xml:space="preserve">
<style type="text/css">
	.st0{clip-path:url(#SVGID_2_);fill:#FFF7E5;}
</style>
<title>BUCK_Mobile_Headline_Menu</title>
<g>
	<defs>
		<rect id="SVGID_1_" width="261" height="276.5"/>
	</defs>
	<path class="st0" d="M95.9,56c-0.4-0.2-0.7-0.6-1.1-1c0.5-0.4,1-0.8,1.1-0.8c0.3,0.3,0.7,0.7,0.8,1.1C96.6,55.5,96,56.1,95.9,56
		 M72.6,31.7c-0.2-0.2-0.3-0.4-0.5-0.6c0.5-0.5,1.1-1,1.6-1.6c0.2,0.3,0.4,0.5,0.6,0.8C73.8,30.8,73.2,31.3,72.6,31.7 M97.2,53.9
		c-6.5,0.3-13,0.6-19.4,1V38.1c5.8-0.4,8.7-0.5,14.4-0.8V27c-5.8,0.3-8.7,0.4-14.4,0.8V12c6.5-0.4,13-0.8,19.4-1V0.7
		c-10,0.5-19.9,1-29.9,1.8V66c9.9-0.7,19.9-1.3,29.9-1.8V53.9z"/>
	<path class="st0" d="M129.8,154.3c0.3-0.1,0.6-0.3,0.9-0.4c0.1,0,0.4,0.4,0.4,0.5c-0.1,0.3-0.4,0.5-0.7,0.9
		C130.1,154.9,130,154.6,129.8,154.3 M130.7,150.7c0.3,0.1,0.4,0.4,0.8,0.8c-0.5,0.2-0.8,0.3-1.1,0.4c-0.1-0.3-0.3-0.6-0.3-0.9
		C130.1,150.9,130.6,150.6,130.7,150.7 M136.4,147.3c2.6,0,3.9,0,6.5,0.1c0.3,0.3,0.4,0.5,0.7,0.8v10.1c-0.3,0.3-0.4,0.5-0.7,0.8
		c-2.6,0-3.9-0.1-6.5-0.1V147.3z M136.4,181.5v-15.9c1.6,0,2.4,0,4,0c1.3,6.4,2,9.6,3.3,16c2.6,0,4,0.1,6.6,0.1
		c-1.3-6.4-2-9.6-3.3-16c1.3-1.3,2-2,3.3-3.3v-18.3c-1.3-1.4-2-2-3.3-3.4c-6.9-0.1-10.4-0.2-17.3-0.2v40.9
		C132.4,181.5,133.7,181.5,136.4,181.5"/>
	<path class="st0" d="M45.6,222.7c-4.3,0.4-6.4,0.7-10.7,1.2v-9.3c3.2-0.4,4.7-0.6,7.9-0.9v-5.7c-3.2,0.3-4.8,0.5-7.9,0.9v-8.7
		c4.3-0.5,6.4-0.7,10.7-1.2v-5.7c-6.6,0.7-9.8,1.1-16.4,1.9v35c6.5-0.8,9.8-1.2,16.4-1.9V222.7z"/>
	<path class="st0" d="M221,258.5c0.9-4.5,1.4-6.7,2.3-11.2c0.9,4.7,1.4,7,2.3,11.7C223.8,258.8,222.9,258.7,221,258.5 M220.7,237.3
		c-2.6,11.1-5.3,22.1-7.9,33.2c2.3,0.2,3.4,0.3,5.7,0.6c0.6-2.9,0.9-4.3,1.5-7.2c2.7,0.3,4.1,0.5,6.8,0.8c0.6,3,0.9,4.5,1.5,7.5
		c2.3,0.3,3.4,0.4,5.7,0.7c-2.6-11.7-5.2-23.3-7.9-35C223.9,237.6,222.8,237.5,220.7,237.3"/>
	<path class="st0" d="M29.4,154.3c0.3-0.3,0.4-0.5,0.7-0.8c2-0.3,3-0.4,5-0.6c0.3,0.3,0.5,0.4,0.8,0.7v26.1
		c-0.3,0.3-0.5,0.5-0.8,0.8c-2,0.2-3,0.4-5,0.6c-0.3-0.3-0.4-0.4-0.7-0.7V154.3z M39.5,186.6c1.3-1.5,2-2.2,3.3-3.7
		c0-11.4,0-22.8,0-34.2c-1.3-1.2-2-1.8-3.3-3c-5.4,0.6-8.1,0.9-13.5,1.6c-1.3,1.5-2,2.3-3.3,3.8v34.2c1.3,1.2,2,1.7,3.3,2.9
		C31.4,187.5,34.1,187.2,39.5,186.6"/>
	<path class="st0" d="M254.3,167.9c2,0.3,3.5-1.1,3.5-3.1c0-2-1.6-3.9-3.5-4.2c-2-0.3-3.5,1.1-3.5,3.1
		C250.8,165.8,252.4,167.6,254.3,167.9"/>
	<path class="st0" d="M101.7,123.9c-7,0.2-10.5,0.4-17.4,0.8V73.5c-4,0.2-6,0.4-10.1,0.6v61c9.2-0.6,18.3-1.1,27.5-1.4V123.9z"/>
	<path class="st0" d="M195.1,250.3C195.1,250.3,195.1,250.3,195.1,250.3C195.1,250.3,195.1,250.4,195.1,250.3v18.5
		c6.4,0.5,9.6,0.8,15.9,1.4c0-2.2,0-3.3,0-5.5c-4.2-0.4-6.2-0.6-10.4-1c0-3.6,0-5.4,0-9c3.1,0.3,4.6,0.4,7.7,0.7v-5.5
		c-3.1-0.3-4.6-0.4-7.7-0.7v-8.5c4.2,0.4,6.2,0.6,10.4,1v-5.5c-6.4-0.6-9.6-0.9-15.9-1.4V250.3z"/>
	<path class="st0" d="M174.8,195.8c2.5,0.1,3.7,0.2,6.2,0.4v29.3c2.3,0.1,3.4,0.2,5.7,0.4v-29.3c2.5,0.2,3.7,0.3,6.2,0.4v-5.7
		c-7.2-0.6-10.9-0.8-18.1-1.2V195.8z"/>
	<path class="st0" d="M105.4,195.1c2.1-0.1,3.1-0.1,5.2-0.1c0.3,0.3,0.4,0.4,0.7,0.6v8.7c-0.3,0.3-0.4,0.4-0.7,0.7
		c-2.1,0.1-3.1,0.1-5.2,0.1V195.1z M105.4,210.7c3.5-0.1,5.3-0.2,8.9-0.2c1.1-1.2,1.7-1.7,2.8-2.9v-15.6c-1.1-1.1-1.7-1.7-2.8-2.8
		c-5.8,0.1-8.8,0.2-14.6,0.4v35c2.3-0.1,3.4-0.1,5.7-0.2V210.7z"/>
	<path class="st0" d="M15.1,118.4c1.4-7,2.8-14.1,4.2-21.1c1.4,6.7,2.8,13.3,4.2,20C20.1,117.7,18.4,117.9,15.1,118.4 M28,139.7
		c4.1-0.5,6.1-0.8,10.2-1.2c-4.7-19.8-9.4-39.5-14.1-59.3c-3.9,0.5-5.8,0.8-9.7,1.3C9.7,101.6,5,122.6,0.3,143.7
		c4.1-0.7,6.1-1,10.2-1.6c1.1-5.4,1.6-8.1,2.7-13.6c4.9-0.7,7.3-1,12.2-1.7C26.4,132,27,134.6,28,139.7"/>
	<path class="st0" d="M122.1,130.8c-0.2,0-0.5-0.5-0.7-0.8c0.4-0.3,0.7-0.6,1.1-0.7c0.2,0,0.5,0.4,1,0.9
		C122.9,130.5,122.5,130.8,122.1,130.8 M134.2,102c0.3,0.2,0.7,0.4,0.7,0.7c0,0.3-0.4,0.6-0.6,1c-0.4-0.3-0.7-0.5-1-0.7
		C133.7,102.7,133.9,102.4,134.2,102 M128.7,107.6c5.5,0,8.3,0,13.8,0.1v-9.9c-5.5-0.1-8.3-0.1-13.8-0.1V82.1c6.2,0,12.5,0,18.7,0.2
		v-9.9c-9.6-0.2-19.1-0.2-28.7-0.1v61c4-0.1,6-0.1,10-0.1V107.6z"/>
	<path class="st0" d="M19.4,154.8v-6.6C13.1,149,6.7,150,0.3,151v30.8c0.4-1.7,0.6-2.6,0.9-3.7c1.6,1.6,1.6,1.6-0.9,3.8v10
		c2.7-0.4,4-0.6,6.7-1v-17.2c3.7-0.6,5.5-0.8,9.2-1.4v-6.6c-3.7,0.5-5.5,0.8-9.2,1.4v-10.5C12,155.8,14.5,155.5,19.4,154.8"/>
	<path class="st0" d="M199,181v-37.6c-2.7-0.2-4-0.3-6.7-0.5v33.5c-0.3,0.3-0.4,0.4-0.7,0.7c-0.7-0.1-1.3-0.1-1.9-0.1
		c0.2,0.3,0.5,0.7,0.7,1c-0.3,0.2-0.6,0.4-0.9,0.6c-0.4-0.6-0.7-1.1-1.1-1.7c-0.6,0-1.2-0.1-2-0.1c-0.3-0.3-0.4-0.5-0.7-0.8v-33.5
		c-2.7-0.2-4-0.3-6.7-0.4v37.6c1.3,1.4,2,2.1,3.3,3.5c5.4,0.3,8.1,0.5,13.5,1C197,182.9,197.7,182.3,199,181"/>
	<path class="st0" d="M131.8,232.3c-2.2,0-3.3,0-5.6,0v20.9c-2.4-6.9-4.8-13.9-7.2-20.8c-2.4,0-3.6,0.1-6,0.1v34
		c2.2,0,3.3-0.1,5.6-0.1v-20.9c2.4,6.9,4.8,13.9,7.2,20.8c2.4,0,3.6,0,6,0C131.8,254.9,131.8,243.6,131.8,232.3"/>
	<path class="st0" d="M151.9,224.2v-29.3c2.5,0.1,3.7,0.1,6.2,0.2v-5.7c-7.2-0.2-10.9-0.3-18.1-0.4v5.7c2.5,0,3.7,0,6.2,0.1
		c0,9.8,0,19.5,0,29.3C148.4,224.1,149.6,224.2,151.9,224.2"/>
	<path class="st0" d="M206.8,221.2c-0.3,0.2-0.4,0.3-0.7,0.6c-1.7-0.2-2.6-0.2-4.3-0.4c-0.3-0.3-0.4-0.4-0.6-0.7
		c0-7.4,0-14.9,0-22.3c0.3-0.2,0.4-0.4,0.6-0.6c1.7,0.2,2.6,0.2,4.3,0.4c0.3,0.3,0.4,0.4,0.7,0.7
		C206.8,206.3,206.8,213.8,206.8,221.2 M198.2,191.8c-1.1,1-1.7,1.6-2.8,2.6c0,9.8,0,19.5,0,29.3c1.1,1.2,1.7,1.8,2.8,3.1
		c4.6,0.4,6.9,0.6,11.5,1c1.1-1,1.7-1.5,2.8-2.6c0-9.8,0-19.5,0-29.3c-1.1-1.3-1.7-1.9-2.8-3.1C205.1,192.4,202.8,192.2,198.2,191.8
		"/>
	<path class="st0" d="M243,274c0-9.5,0-19,0-28.5c2.4,0.3,3.6,0.5,6,0.9v-5.5c-7-1-10.5-1.5-17.5-2.4v5.5c2.4,0.3,3.6,0.5,6,0.8
		v28.5C239.7,273.6,240.8,273.7,243,274"/>
	<path class="st0" d="M256.3,228.4c-0.6,0.5-0.9,0.8-1.6,1.4v3.2c0.6,0.7,0.9,1.1,1.6,1.9c0.6,0.1,0.9,0.1,1.5,0.2
		c0.1,0.2,0.2,0.3,0.4,0.5v0.6c-0.7,0.7-1.1,1-1.9,1.6v1.7c1.1-0.5,1.7-0.7,2.8-1.2c0.8-0.7,1.1-1,1.9-1.6v-6
		c-0.6-0.7-0.9-1.1-1.6-1.9C258.2,228.7,257.6,228.6,256.3,228.4"/>
	<path class="st0" d="M219.6,167.2c-0.3-0.1-0.5-0.4-0.9-0.7c0.5-0.2,0.8-0.5,1-0.4c0.2,0.1,0.4,0.5,0.4,0.8
		C220.1,166.9,219.7,167.2,219.6,167.2 M217,162.7c-0.3,0.3-0.5,0.4-0.8,0.7c-2.4-0.3-3.6-0.4-6.1-0.6v-11.7
		c2.4,0.2,3.6,0.4,6.1,0.6c0.3,0.3,0.5,0.5,0.8,0.8V162.7z M205.7,157.2c0,0-0.2-0.2-0.2-0.3c0.1-0.2,0.2-0.4,0.3-0.5
		c0.1,0.2,0.3,0.3,0.4,0.5C206,157,205.9,157.1,205.7,157.2 M203.5,143.8v40.9c2.7,0.2,4,0.4,6.7,0.6v-15.9
		c4.1,0.4,6.2,0.6,10.3,1.1c1.3-1.2,2-1.8,3.3-3v-18.3c-1.3-1.5-2-2.2-3.3-3.7C213.7,144.8,210.3,144.5,203.5,143.8"/>
	<path class="st0" d="M253.1,179c-0.1-0.2-0.3-0.3-0.4-0.5c0.2-0.1,0.3-0.3,0.5-0.4c0,0,0.2,0.2,0.2,0.3
		C253.4,178.6,253.3,178.8,253.1,179 M257.9,179.6c0-2-1.6-3.9-3.5-4.2c-2-0.3-3.5,1.1-3.5,3.1c0,2,1.6,3.9,3.5,4.2
		C256.3,183,257.9,181.6,257.9,179.6"/>
	<path class="st0" d="M45.8,83.9c1.6-0.6,2.6-1,3.9-1.6C48.6,84.3,48.6,84.3,45.8,83.9 M45.7,97.3c-0.3-0.2-0.6-0.5-0.6-0.5
		c0.2-0.3,0.4-0.5,0.6-0.8c0.2,0.2,0.5,0.4,0.5,0.4C46.1,96.7,45.8,97,45.7,97.3 M69.8,125.6c-7,0.5-10.4,0.8-17.4,1.5V75.9
		c-4,0.4-6,0.6-10.1,1v61c9.1-0.9,18.3-1.8,27.4-2.5V125.6z"/>
	<path class="st0" d="M167.7,7.9c0.1,0.2,0.2,0.4,0.3,0.5c0,0-0.2,0.2-0.3,0.2c-0.2-0.1-0.4-0.2-0.5-0.3
		C167.3,8.1,167.5,8,167.7,7.9 M176.1,40.8c-3.5-0.2-5.2-0.3-8.7-0.4c1.4-7.1,2.9-14.1,4.3-21.2C173.2,26.4,174.7,33.6,176.1,40.8
		 M162.6,64.2c1.1-5.4,1.7-8.2,2.8-13.6c5.1,0.2,7.7,0.3,12.8,0.6c1.1,5.6,1.7,8.3,2.8,13.9c4.3,0.3,6.4,0.4,10.7,0.7
		c-4.9-21.5-9.8-43-14.8-64.5c-4.1-0.2-6.1-0.3-10.2-0.5c-4.9,21-9.9,42-14.8,63C156.2,63.9,158.3,64,162.6,64.2"/>
	<path class="st0" d="M58.2,202.2c1,4.6,1.4,6.9,2.4,11.6c-1.9,0.2-2.9,0.2-4.8,0.4C56.8,209.4,57.3,207,58.2,202.2 M47.3,228.2
		c2.3-0.2,3.5-0.4,5.9-0.6c0.6-3.1,0.9-4.6,1.5-7.7c2.8-0.3,4.2-0.4,7-0.6c0.6,3,0.9,4.5,1.5,7.4c2.3-0.2,3.5-0.3,5.9-0.5
		c-2.7-11.4-5.4-22.9-8.1-34.3c-2.2,0.2-3.4,0.3-5.6,0.5C52.7,204.4,50,216.3,47.3,228.2"/>
	<path class="st0" d="M249.6,268c-1.9-0.3-3.5,1.1-3.5,3.1s1.6,3.8,3.5,4.1c1.9,0.3,3.5-1.1,3.5-3S251.5,268.3,249.6,268"/>
	<path class="st0" d="M114.8,143.1c-0.1,0-0.3-0.3-0.4-0.5c0.3-0.2,0.5-0.4,0.8-0.6c0,0,0.3,0.3,0.5,0.6
		C115.3,142.8,115.1,143,114.8,143.1 M125.5,152.4v-8.5c-1.3-1.3-2-2-3.3-3.3c-5.6,0.1-8.4,0.1-14,0.3c-1.3,1.4-2,2.1-3.3,3.4v34.2
		c1.3,1.3,2,1.9,3.3,3.2c5.6-0.2,8.4-0.2,14-0.3c1.3-1.3,2-2,3.3-3.4v-19.1c-4,0-6,0-10,0.1v6.7c1.3,0,2,0,3.3-0.1v8.2
		c-0.3,0.3-0.4,0.5-0.7,0.8c-2.2,0-3.3,0.1-5.6,0.1c-0.3-0.3-0.5-0.5-0.8-0.8v-26.1c0.3-0.3,0.5-0.5,0.8-0.8c2.2,0,3.3-0.1,5.6-0.1
		c0.3,0.3,0.4,0.5,0.7,0.8v4.5C121.5,152.4,122.8,152.4,125.5,152.4"/>
	<path class="st0" d="M61.7,156.7c2.6-2.2,3.4,0,5.3,0.6C64.1,159.3,63.5,157.1,61.7,156.7 M62.3,167.8c-0.1-0.4-0.1-0.7-0.2-1.1
		c0.7-0.1,1.5-0.3,2.2-0.4c0.1,0.3,0.1,0.5,0.2,0.8C63.8,167.3,63,167.5,62.3,167.8 M60.5,177.1c-0.3,0.3-0.5,0.5-0.8,0.8
		c-2,0.2-3,0.3-5.1,0.5c-0.3-0.3-0.4-0.4-0.7-0.7v-26.1c0.3-0.3,0.4-0.5,0.7-0.8c2-0.2,3-0.3,5.1-0.5c0.3,0.3,0.5,0.4,0.8,0.7V177.1
		z M67.2,146.4c-1.3-1.2-2-1.8-3.3-3.1c-5.4,0.4-8.1,0.7-13.5,1.2c-1.3,1.5-2,2.2-3.3,3.7v34.2c1.3,1.2,2,1.8,3.3,3
		c5.4-0.5,8.1-0.8,13.5-1.2c1.3-1.4,2-2.2,3.3-3.6V146.4z"/>
	<path class="st0" d="M50.3,49c0.3-0.1,0.6,0.2,1,0.3c-0.2,0.4-0.4,0.8-1.2,2.1c-0.3-0.9-0.5-1.3-0.4-1.6C49.7,49.5,50,49.1,50.3,49
		 M12.1,72.2c5.2-0.8,7.8-1.1,13-1.8c2.1-14.8,4.3-29.6,6.4-44.5c2.2,14.3,4.3,28.6,6.5,42.9c5.2-0.6,7.8-0.9,13.1-1.4
		c4-21.5,7.9-43.1,11.9-64.6c-4.2,0.3-6.3,0.5-10.6,0.9c-2.6,15.6-5.1,31.1-7.7,46.7c-2.5-15-5-30.1-7.4-45.1
		c-4.6,0.5-6.9,0.8-11.4,1.4c-2.5,15.6-5,31.3-7.4,46.9c-2.6-14.9-5.1-29.9-7.7-44.8C6.6,9.4,4.5,9.7,0.3,10.4
		C4.3,31,8.2,51.6,12.1,72.2"/>
	<path class="st0" d="M176.8,86.5c-0.1-0.2-0.4-0.4-0.4-0.6c0-0.1,0.2-0.3,0.4-0.5c0.2,0.1,0.4,0.3,0.5,0.4
		C177.2,86.1,177,86.3,176.8,86.5 M171.1,124.4c-3-0.2-4.5-0.2-7.6-0.3c-0.4-0.5-0.7-0.7-1.1-1.2v-39c0.4-0.4,0.7-0.6,1.1-1.1
		c3,0.1,4.5,0.2,7.6,0.3c0.5,0.5,0.7,0.7,1.2,1.2v39C171.8,123.7,171.5,123.9,171.1,124.4 M170.7,130.1c-0.3-0.2-0.7-0.4-0.7-0.4
		c0.1-0.3,0.3-0.6,0.4-0.8c0.2,0.1,0.6,0.2,0.6,0.4C171,129.5,170.9,129.8,170.7,130.1 M160.1,76.6c3,1.3,3,1.3,3.4,3.4
		C161.5,80,160.9,78.8,160.1,76.6 M155.3,110.4c1.5-0.5,2.2-0.8,3-1c0.2,0.5,0.4,0.7,0.4,0.9C158.1,112.1,157.2,112.1,155.3,110.4
		 M153.6,111.5c-0.3-0.2-0.5-0.4-0.8-0.6c0,0,0.2-0.3,0.7-1c0.2,0.4,0.3,0.8,0.4,1.1C154,111.1,153.7,111.3,153.6,111.5 M169.2,77.5
		c0.2,0,0.5,0.4,0.8,0.7c-0.3,0.3-0.5,0.6-0.7,0.8c-0.3-0.3-0.6-0.6-0.8-0.9C168.7,77.9,169,77.5,169.2,77.5 M182.3,129.9v-3.8
		c-0.1,0-0.3,0-0.4,0c0-0.4-0.1-0.8-0.1-1.2c0.2,0,0.4,0,0.6-0.1v-3.2c-0.1-0.3-0.2-0.5-0.2-0.8c0,0,0.1-0.1,0.2-0.1c0-14,0-28,0-42
		c-2-2.1-2.9-3.2-4.9-5.3c-6.7-0.4-13.4-0.7-20.2-0.9c-2,1.9-2.9,2.9-4.9,4.8v51.1c2,2,2.9,3.1,4.9,5.1c6.7,0.2,13.5,0.5,20.2,0.9
		C179.4,132.7,180.4,131.8,182.3,129.9"/>
	<path class="st0" d="M211.3,18.7c-0.1-0.2-0.2-0.4-0.3-0.6c0-0.1,0.2-0.3,0.2-0.2c0.2,0.1,0.3,0.2,0.5,0.4
		C211.6,18.4,211.4,18.6,211.3,18.7 M219,5.4c-0.2-0.1-0.4-0.2-0.6-0.3c0.1-0.1,0.2-0.2,0.3-0.3c-1.7-0.2-3.4-0.4-5.6-0.6
		c-2.6,15.5-5.2,31-7.9,46.5c-2.6-16-5.2-32-7.9-47.9c-4.2-0.3-6.2-0.5-10.4-0.8c3.9,21.5,7.8,43,11.6,64.4c5.3,0.4,8,0.7,13.3,1.2
		c3.9-20.8,7.7-41.5,11.6-62.3c-1.7-0.2-3-0.3-4.3-0.5C219.1,5,219,5.2,219,5.4"/>
	<path class="st0" d="M40.9,271.2c6.4-0.7,9.6-1,15.9-1.6v-5.5c-4.2,0.4-6.2,0.6-10.4,1c0-3.6,0-5.4,0-9c3.1-0.3,4.6-0.5,7.7-0.8
		c0-2.2,0-3.3,0-5.5c-3.1,0.3-4.6,0.4-7.7,0.8V245c-0.6-0.3-1.1-1.1-1.2-1.7c0-0.6,0.9-1.2,1.4-1.9c0.2,0.2,0.5,0.4,0.7,0.6
		c3.6-0.4,5.6-0.6,9.5-0.9v-5.5c-6.4,0.6-9.6,0.9-15.9,1.6V271.2z"/>
	<path class="st0" d="M252.7,208.3V201c-1.1-1.3-1.7-2-2.8-3.3c-4.6-0.7-6.9-1-11.6-1.6c-1.1,1-1.7,1.5-2.8,2.5v14.3
		c1.1,1.3,1.7,1.9,2.8,3.2c3.2,0.4,4.8,0.6,7.9,1.1c0.3,0.3,0.4,0.5,0.7,0.8v7.9c-0.3,0.2-0.4,0.4-0.7,0.6c-1.7-0.2-2.6-0.4-4.4-0.6
		c-0.3-0.3-0.4-0.5-0.7-0.8v-3.7c-2.3-0.3-3.4-0.5-5.7-0.8c0,2.9,0,4.3,0,7.2c1.1,1.3,1.7,1.9,2.8,3.2c4.6,0.6,7,0.9,11.6,1.6
		c1.1-1,1.7-1.5,2.8-2.4v-14.9c-1.1-1.3-1.7-2-2.8-3.3c-3.2-0.5-4.8-0.7-8-1.1c-0.3-0.3-0.4-0.5-0.7-0.8v-7.3
		c0.3-0.2,0.4-0.4,0.7-0.6c1.7,0.2,2.6,0.4,4.4,0.6c0.3,0.3,0.4,0.5,0.7,0.8v3.7C249.3,207.7,250.4,207.9,252.7,208.3"/>
	<path class="st0" d="M71.5,249c-0.2,0.3-0.4,0.4-0.6,0.7c-2.1,0.2-3.2,0.2-5.3,0.4v-9.7c2.1-0.2,3.2-0.3,5.3-0.4
		c0.2,0.2,0.4,0.3,0.6,0.6V249z M59.9,235.3v34c2.2-0.2,3.3-0.3,5.6-0.5v-13.2c1.3-0.1,2-0.2,3.3-0.3c1.1,5.2,1.6,7.8,2.7,13
		c2.2-0.2,3.3-0.2,5.5-0.4c-1.1-5.2-1.6-7.8-2.7-13.1c1.1-1.2,1.6-1.8,2.7-3v-15.2c-1.1-1-1.6-1.6-2.7-2.6
		C68.6,234.6,65.7,234.8,59.9,235.3"/>
	<path class="st0" d="M166.4,199.8c1,4.8,1.4,7.1,2.4,11.9c-1.9-0.1-2.9-0.1-4.8-0.2C165,206.8,165.5,204.4,166.4,199.8
		 M162.9,217.1c2.8,0.1,4.2,0.2,7,0.3c0.6,3,0.9,4.6,1.5,7.6c2.3,0.1,3.5,0.2,5.9,0.3c-2.7-11.8-5.4-23.6-8.1-35.4
		c-2.2-0.1-3.4-0.2-5.6-0.2c-2.7,11.6-5.4,23.1-8.1,34.7c2.3,0.1,3.5,0.1,5.9,0.2C162,221.5,162.3,220,162.9,217.1"/>
	<path class="st0" d="M233.6,40.7c0.9,3.1,0.1,3.9-4.4,3.9C231,43,232.3,41.9,233.6,40.7 M238.7,66.1c0.8,0,1.5,0.7,2.3,1.1
		c-0.2,0.3-0.4,0.7-0.5,1h-3.6C237.7,67.2,238.2,66.1,238.7,66.1 M257.5,73.5V63.2c-6.4-1-12.9-2-19.3-2.8V43.5
		c5.7,0.8,8.6,1.2,14.3,2V35.2c-5.7-0.9-8.6-1.3-14.3-2V17.4c6.4,0.8,12.9,1.8,19.3,2.8V9.9c-9.9-1.5-19.8-2.9-29.7-4.1
		c0,21.2,0,42.4,0,63.6C237.7,70.6,247.6,72,257.5,73.5"/>
	<path class="st0" d="M27.4,258.3c3.1-0.4,4.6-0.6,7.7-0.9v-5.5c-3.1,0.4-4.6,0.6-7.7,0.9v-8.5c4.1-0.5,6.2-0.8,10.4-1.3v-5.5
		c-6.4,0.7-9.5,1.1-15.9,2c0,11.3,0,22.7,0,34c6.4-0.9,9.5-1.2,15.9-2V266c-4.1,0.5-6.2,0.7-10.4,1.3V258.3z"/>
	<path class="st0" d="M25.4,230.7v-35c-2.8,0.4-4.3,0.6-7.1,1c-2.2,6.9-3.4,10.4-5.6,17.3c-2.2-6.3-3.4-9.4-5.6-15.7
		c-2.8,0.4-4.2,0.7-7.1,1.1c0,11.7,0,23.3,0,35c2.3-0.4,3.4-0.5,5.7-0.9v-23.6c2.2,6.1,3.3,9.2,5.5,15.3c1.2-0.2,1.8-0.3,3-0.4
		c2.2-6.8,3.3-10.1,5.5-16.9v23.6C22,231.2,23.1,231,25.4,230.7"/>
	<path class="st0" d="M146.8,260.2c-0.2,0.3-0.4,0.4-0.6,0.7c-2,0-3-0.1-5-0.1v-23c2,0,3,0,5,0.1c0.2,0.3,0.4,0.4,0.6,0.7
		C146.8,245.7,146.8,253,146.8,260.2 M135.6,232.3c0,11.3,0,22.7,0,34c5.7,0,8.5,0.1,14.1,0.2c1.1-1.1,1.6-1.6,2.7-2.7v-28.5
		c-1.1-1.1-1.6-1.7-2.7-2.8C144,232.4,141.2,232.3,135.6,232.3"/>
	<path class="st0" d="M12.9,254.1c-0.2,0.3-0.4,0.5-0.6,0.8c-2,0.3-3,0.4-5.1,0.8V247c2-0.3,3-0.5,5.1-0.8c0.2,0.2,0.4,0.3,0.6,0.6
		V254.1z M12.9,268.6c-0.2,0.3-0.4,0.5-0.6,0.8c-2,0.3-3,0.4-5.1,0.8v-9c2-0.3,3-0.5,5.1-0.8c0.2,0.2,0.4,0.3,0.6,0.5V268.6z
		 M18.4,259.4c-1.1-1-1.6-1.4-2.7-2.4c1.1-1.3,1.6-1.9,2.7-3.2v-11.1c-1.1-1-1.6-1.4-2.7-2.4c-5.6,0.8-8.5,1.2-14.1,2.1v34
		c5.6-0.9,8.4-1.3,14.1-2.1c1.1-1.3,1.6-1.9,2.7-3.2V259.4z"/>
	<path class="st0" d="M242.2,167.5c-0.2-0.3-0.5-0.5-0.7-0.8c0.3-0.2,0.6-0.4,0.7-0.4c0.2,0.1,0.4,0.4,0.4,0.6
		C242.6,167.1,242.3,167.3,242.2,167.5 M247.2,186.5v-17.4c-1.3-1.5-2-2.3-3.3-3.8c-3.7-0.5-5.6-0.8-9.4-1.3
		c-0.3-0.4-0.5-0.5-0.8-0.9v-8.5c0.3-0.3,0.5-0.4,0.8-0.7c2,0.3,3.1,0.4,5.1,0.7c0.3,0.4,0.5,0.5,0.8,0.9v4.3c2.7,0.4,4,0.6,6.7,0.9
		v-8.5c-1.3-1.5-2-2.3-3.3-3.8c-5.4-0.8-8.1-1.1-13.6-1.8c-1.3,1.2-2,1.8-3.3,2.9v16.7c1.3,1.5,2,2.2,3.3,3.7
		c3.7,0.5,5.6,0.7,9.3,1.2c0.3,0.4,0.5,0.5,0.8,0.9v9.3c-0.3,0.3-0.5,0.4-0.8,0.7c-2-0.3-3.1-0.4-5.1-0.7c-0.3-0.4-0.5-0.5-0.8-0.9
		v-4.4c-0.9-0.1-1.6-0.2-2.3-0.3c0,0.1-0.1,0.1-0.1,0.2c0-0.1-0.1-0.1-0.1-0.2c-1.3-0.2-2.4-0.3-4.1-0.5v8.5c1.3,1.5,2,2.2,3.3,3.7
		c5.4,0.7,8.1,1,13.6,1.8C245.2,188.3,245.9,187.7,247.2,186.5"/>
	<path class="st0" d="M139,37.9c0.1,0,0.4,0.5,0.7,0.9c-0.4,0.2-0.8,0.5-1.1,0.5c-0.3-0.1-0.5-0.5-0.8-0.7
		C138.2,38.4,138.6,38.1,139,37.9 M137.1,26.3c-4.7,0-7,0-11.7,0V0c-4.2,0-6.3,0.1-10.4,0.1v63.6c4.2-0.1,6.3-0.1,10.4-0.1v-27
		c4.7,0,7,0,11.7,0c0,9,0,18,0,27c4.2,0,6.3,0.1,10.4,0.2c0-21.2,0-42.4,0-63.6c-4.2-0.1-6.3-0.1-10.4-0.2V26.3z"/>
	<path class="st0" d="M232.7,201.1v-5.7c-6.5-0.8-9.8-1.2-16.4-1.9c0,11.7,0,23.3,0,35c6.6,0.7,9.8,1.1,16.4,1.9v-5.7
		c-4.3-0.5-6.4-0.8-10.7-1.3v-9.3c3.2,0.4,4.8,0.5,7.9,0.9v-5.7c-3.2-0.4-4.7-0.6-7.9-0.9v-8.7C226.3,200.3,228.5,200.5,232.7,201.1
		"/>
	<path class="st0" d="M131.6,217.7c-0.3,0.3-0.4,0.4-0.7,0.6c-1.7,0-2.6,0-4.3,0c-0.3-0.3-0.4-0.4-0.6-0.6c0-7.4,0-14.9,0-22.3
		c0.3-0.3,0.4-0.4,0.6-0.6c1.7,0,2.6,0,4.3,0c0.3,0.3,0.4,0.4,0.7,0.6V217.7z M137.4,191.9c-1.1-1.2-1.7-1.7-2.8-2.9
		c-4.6,0-6.9,0-11.6,0c-1.1,1.2-1.7,1.7-2.8,2.9v29.3c1.1,1.1,1.7,1.7,2.8,2.8c4.6,0,6.9,0,11.6,0c1.1-1.1,1.7-1.7,2.8-2.8
		C137.4,211.4,137.4,201.6,137.4,191.9"/>
	<path class="st0" d="M246.2,106.6c-0.4,0.4-0.7,0.6-1.1,1c-3.8-0.5-5.7-0.8-9.6-1.3V88.9c3.8,0.5,5.7,0.8,9.6,1.3
		c0.4,0.5,0.7,0.8,1.1,1.3V106.6z M252.9,114.6c0.2,0,0.4,0.1,0.6,0.1c-0.1,0.2-0.2,0.4-0.3,0.6c-0.2-0.1-0.4-0.3-0.5-0.4
		C252.7,114.9,252.8,114.6,252.9,114.6 M251.3,118.4c1.9-1.7,2.9-2.5,4.8-4.2V86.9c-1.9-2.3-2.9-3.4-4.8-5.7
		c-8.6-1.3-17.1-2.4-25.7-3.4c0,20.3,0,40.7,0,61c4,0.5,6,0.7,10,1.2v-23.8c2.4,0.3,3.6,0.5,6,0.8c1.6,8.2,3.2,16.3,4.9,24.5
		c3.9,0.6,5.9,0.9,9.8,1.5C254.5,134.8,252.9,126.6,251.3,118.4"/>
	<path class="st0" d="M85.2,175.3c-0.3,0.3-0.4,0.5-0.7,0.8c-2.4,0.1-3.6,0.2-6,0.4v-27.7c2.4-0.2,3.6-0.2,6-0.4
		c0.3,0.3,0.4,0.5,0.7,0.8V175.3z M92,144.8c-1.3-1.3-2-1.9-3.3-3.2c-6.8,0.3-10.2,0.6-17,1v1c1.1-1.3,2.2-0.9,3.2-0.5
		c0,0.4,0,0.8,0,1.2h-3.2v39.2c6.8-0.5,10.2-0.7,17-1c1.3-1.4,2-2.1,3.3-3.5V144.8z"/>
	<path class="st0" d="M179,249.8c-2.2-6.6-3.3-9.8-5.5-16.4c-2.8-0.1-4.2-0.2-6.9-0.3c0,11.3,0,22.7,0,34c2.2,0.1,3.3,0.2,5.6,0.3
		v-23c2.2,6.4,3.2,9.6,5.4,16c1.2,0.1,1.7,0.1,2.9,0.2c2.2-6.1,3.2-9.2,5.4-15.3c0,7.7,0,15.3,0,23c2.2,0.2,3.3,0.2,5.6,0.4v-34
		c-2.8-0.2-4.2-0.3-6.9-0.5C182.3,240.3,181.2,243.5,179,249.8"/>
	<path class="st0" d="M97.7,254.1c0.9-4.6,1.4-6.9,2.3-11.5c0.9,4.5,1.4,6.8,2.3,11.4C100.5,254,99.6,254,97.7,254.1 M97.3,232.9
		c-2.6,11.5-5.3,22.9-7.9,34.4c2.3-0.1,3.4-0.2,5.7-0.3c0.6-3,0.9-4.4,1.5-7.4c2.7-0.1,4.1-0.2,6.9-0.3c0.6,2.9,0.9,4.4,1.5,7.3
		c2.3-0.1,3.4-0.1,5.7-0.2c-2.6-11.3-5.3-22.5-7.9-33.8C100.6,232.8,99.5,232.8,97.3,232.9"/>
	<path class="st0" d="M218.7,123.3c-0.5,1.7-1.2,2.4-3,1.8C216.1,123.4,217,123,218.7,123.3 M197.1,81.3c-0.4-0.4-0.9-0.8-1.3-1.2
		c0.5-0.6,1-1.1,1.5-1.7c0.4,0.4,0.8,0.7,1.1,1.1C198,80.1,197.5,80.7,197.1,81.3 M192.8,120.3c-0.3-0.1-0.5-0.3-0.9-0.6
		c0.5-0.3,0.8-0.4,1-0.6c0.1,0.3,0.3,0.5,0.4,0.8C193.3,120,192.9,120.3,192.8,120.3 M200.1,126.3c-0.4-0.5-0.7-0.7-1.1-1.2
		c0-16.7,0-33.4,0-50c-4-0.3-6-0.5-10-0.8c0,18.7,0,37.4,0,56.1c2,2.1,2.9,3.2,4.9,5.3c6.7,0.5,13.4,1.1,20.1,1.8
		c1.9-1.8,2.9-2.7,4.9-4.5V77c-4-0.4-6-0.6-10-1c0,16.7,0,33.4,0,50c-0.4,0.4-0.7,0.6-1.1,1C204.7,126.7,203.2,126.6,200.1,126.3"/>
	<path class="st0" d="M167.7,175c-0.3,0.3-0.5,0.4-0.8,0.7c-2-0.1-3-0.1-5.1-0.2c-0.3-0.3-0.4-0.5-0.7-0.8v-26.1
		c0.3-0.3,0.4-0.4,0.7-0.7c2,0.1,3,0.1,5.1,0.2c0.3,0.3,0.5,0.5,0.8,0.8V175z M159,145.5c-0.2-0.1-0.4-0.2-0.6-0.3
		c0.2-0.2,0.3-0.3,0.5-0.4c0,0,0.3,0.1,0.3,0.2C159.2,145.1,159.1,145.3,159,145.5 M174.5,179.3v-34.2c-1.3-1.4-2-2.1-3.3-3.5
		c-5.4-0.3-8.1-0.4-13.5-0.6c-1.3,1.3-2,1.9-3.3,3.2v34.2c1.3,1.4,2,2.1,3.3,3.4c5.4,0.2,8.1,0.3,13.5,0.6
		C172.5,181.2,173.2,180.6,174.5,179.3"/>
	<path class="st0" d="M84.7,190.3c-7.2,0.4-10.9,0.7-18.1,1.2v5.7c2.5-0.2,3.7-0.3,6.2-0.5V226c2.3-0.2,3.4-0.2,5.7-0.4v-29.3
		c2.5-0.2,3.7-0.2,6.2-0.4V190.3z"/>
	<path class="st0" d="M87.2,221.4c-0.6-0.6-0.9-0.9-1.6-1.5c-1.3,0.1-1.9,0.1-3.2,0.2c-0.6,0.7-0.9,1-1.6,1.7v3.2
		c0.6,0.6,0.9,0.9,1.6,1.5c0.6,0,0.9-0.1,1.5-0.1c0.1,0.2,0.2,0.2,0.4,0.4v0.6c-0.7,0.8-1.1,1.2-1.9,2v1.7c1.1-0.7,1.7-1.1,2.8-1.8
		c0.8-0.8,1.1-1.2,1.9-2V221.4z"/>
</g>
</svg>
