<?xml version="1.0" encoding="utf-8"?>
<!-- Generator: Adobe Illustrator 21.0.1, SVG Export Plug-In . SVG Version: 6.00 Build 0)  -->
<svg version="1.1" id="Layer_1" xmlns="https://www.w3.org/2000/svg" xmlns:xlink="https://www.w3.org/1999/xlink" x="0px" y="0px"
	 viewBox="0 0 950 635" style="enable-background:new 0 0 950 635;" xml:space="preserve">
<style type="text/css">
	.st0{clip-path:url(#SVGID_2_);fill:#FFF9E5;}
	.st1{clip-path:url(#SVGID_4_);fill:#FFF9E5;}
	.st2{clip-path:url(#SVGID_6_);fill:#FFF9E5;}
	.st3{clip-path:url(#SVGID_8_);fill:#FFF9E5;}
	.st4{clip-path:url(#SVGID_10_);fill:#FFF9E5;}
	.st5{clip-path:url(#SVGID_12_);fill:#FFF9E5;}
	.st6{clip-path:url(#SVGID_14_);fill:#FFF9E5;}
	.st7{clip-path:url(#SVGID_16_);fill:#FFF9E5;}
	.st8{clip-path:url(#SVGID_18_);fill:#FFF9E5;}
	.st9{clip-path:url(#SVGID_20_);fill:#FFF9E5;}
	.st10{clip-path:url(#SVGID_22_);fill:#FFF9E5;}
	.st11{clip-path:url(#SVGID_24_);fill:#FFF9E5;}
	.st12{clip-path:url(#SVGID_26_);fill:#FFF9E5;}
	.st13{clip-path:url(#SVGID_28_);fill:#FFF9E5;}
	.st14{clip-path:url(#SVGID_30_);fill:#FFF9E5;}
	.st15{clip-path:url(#SVGID_32_);fill:#FFF9E5;}
	.st16{clip-path:url(#SVGID_34_);fill:#FFF9E5;}
	.st17{clip-path:url(#SVGID_36_);fill:#FFF9E5;}
	.st18{clip-path:url(#SVGID_38_);fill:#FFF9E5;}
	.st19{clip-path:url(#SVGID_40_);fill:#FFF9E5;}
	.st20{clip-path:url(#SVGID_42_);fill:#FFF9E5;}
	.st21{clip-path:url(#SVGID_44_);fill:#FFF9E5;}
	.st22{clip-path:url(#SVGID_46_);fill:#FFF9E5;}
	.st23{clip-path:url(#SVGID_48_);fill:#FFF9E5;}
	.st24{clip-path:url(#SVGID_50_);fill:#FFF9E5;}
	.st25{clip-path:url(#SVGID_52_);fill:#FFF9E5;}
	.st26{clip-path:url(#SVGID_54_);fill:#FFF9E5;}
	.st27{clip-path:url(#SVGID_56_);fill:#FFF9E5;}
	.st28{clip-path:url(#SVGID_58_);fill:#FFF9E5;}
	.st29{clip-path:url(#SVGID_60_);fill:#FFF9E5;}
	.st30{clip-path:url(#SVGID_62_);fill:#FFF9E5;}
	.st31{clip-path:url(#SVGID_64_);fill:#FFF9E5;}
	.st32{clip-path:url(#SVGID_66_);fill:#FFF9E5;}
	.st33{clip-path:url(#SVGID_68_);fill:#FFF9E5;}
</style>
<g>
	<g>
		<g>
			<defs>
				<rect id="SVGID_1_" x="41.4" y="110.1" width="867.3" height="438.7"/>
			</defs>
			<clipPath id="SVGID_2_">
				<use xlink:href="#SVGID_1_"  style="overflow:visible;"/>
			</clipPath>
			<path class="st0" d="M324.1,226c0.9,1.2,1.8,2.4,2.6,3.6l-1.8,1.2c-0.8-1.2-1.7-2.4-2.4-3.8C323.1,226.6,323.6,226.3,324.1,226
				 M336.8,132.9c7.8-0.4,11.6-0.5,19.4-0.9l2.2,2.1v29.8l-2.2,2.4c-7.8,0.3-11.6,0.5-19.4,0.9V132.9z M359.6,186.8
				c-0.4,0.2-0.8,0.5-1.2,0.6c0,0-0.4-0.4-0.4-0.6c0.2-0.4,0.5-0.8,0.8-1.1L359.6,186.8z M368.2,159.8c0.4,0.2,0.8,0.5,1.1,0.8
				l-1,0.9c-0.2-0.4-0.4-0.8-0.6-1.2C367.6,160.1,368.1,159.8,368.2,159.8L368.2,159.8z M336.8,233.8v-47l12.1-0.6l9.9,46.5
				c7.9-0.3,11.9-0.5,19.9-0.7l-9.9-46.6l9.9-10.2v-53.8l-9.9-9.4c-17.4,0.7-34.8,1.5-52.2,2.4V235
				C324.6,234.4,328.8,234.2,336.8,233.8"/>
		</g>
	</g>
	<g>
		<g>
			<defs>
				<rect id="SVGID_3_" x="41.4" y="110.1" width="867.3" height="438.7"/>
			</defs>
			<clipPath id="SVGID_4_">
				<use xlink:href="#SVGID_3_"  style="overflow:visible;"/>
			</clipPath>
			<path class="st1" d="M363.1,266.4l1.7-1.8l11.9-0.4l1.9,1.7v59.9l-1.9,1.8l-11.9,0.4l-1.7-1.7V266.4z M366.1,340
				c-0.3-6,0-6.4,6.9-5.8C371,336.8,370.1,340,366.1,340L366.1,340z M386.6,342.5l7.7-7.9v-78.5l-7.7-7.4c-12.7,0.4-19,0.6-31.7,1.1
				l-7.7,8v78.6l7.7,7.3C367.6,343,374.1,342.8,386.6,342.5"/>
		</g>
	</g>
	<g>
		<g>
			<defs>
				<rect id="SVGID_5_" x="41.4" y="110.1" width="867.3" height="438.7"/>
			</defs>
			<clipPath id="SVGID_6_">
				<use xlink:href="#SVGID_5_"  style="overflow:visible;"/>
			</clipPath>
			<path class="st2" d="M261.9,162.2c0.1,0,0.6,0.3,0.6,0.4c-0.1,0.4-0.3,0.8-0.4,1.2l-1.2-0.7C261.2,162.8,261.5,162.5,261.9,162.2
				 M285.7,130c0.4,0.2,1.2,0.5,1.2,0.7c-0.1,0.6-0.3,1.3-0.6,1.9c-0.5-0.2-1-0.5-1.4-0.8C285,131.2,285.4,130.6,285.7,130
				L285.7,130z M247.6,239.5c19.3-1.5,38.5-2.9,57.8-4.1v-19.5c-12.6,0.7-25.1,1.6-37.6,2.5v-32c11.1-0.8,16.8-1.2,27.9-1.9V165
				c-11.2,0.7-16.8,1.1-28,1.9v-30c12.5-0.9,25.1-1.8,37.6-2.5v-19.5c-19.3,1.1-38.6,2.5-57.8,4.1v120.5H247.6z"/>
		</g>
	</g>
	<g>
		<g>
			<defs>
				<rect id="SVGID_7_" x="41.4" y="110.1" width="867.3" height="438.7"/>
			</defs>
			<clipPath id="SVGID_8_">
				<use xlink:href="#SVGID_7_"  style="overflow:visible;"/>
			</clipPath>
			<path class="st3" d="M452,333.6v-86.1c-6.3,0-9.4,0-15.7,0.1v76.9l-1.7,1.8l-12.1,0.2l-1.7-1.7v-76.9c-6.3,0.1-9.4,0.2-15.7,0.3
				v86.2l7.7,7.5c12.7-0.3,19-0.4,31.7-0.5L452,333.6z"/>
		</g>
	</g>
	<g>
		<g>
			<defs>
				<rect id="SVGID_9_" x="41.4" y="110.1" width="867.3" height="438.7"/>
			</defs>
			<clipPath id="SVGID_10_">
				<use xlink:href="#SVGID_9_"  style="overflow:visible;"/>
			</clipPath>
			<path class="st4" d="M411.5,225.8c-1.4-1.9-3.1-3.3-2.8-4.1c0.5-1.4,2.1-2.4,3.3-3.6c0.9,1.2,2.3,2.4,2.4,3.7
				C414.4,222.8,412.8,223.8,411.5,225.8 M448.8,211.1c-12.6,0.1-25.1,0.3-37.7,0.5v-32c11.2-0.2,16.8-0.3,28-0.4v-19.5
				c-11.2,0.1-16.8,0.2-28,0.4v-30c12.6-0.3,25.1-0.5,37.7-0.5v-19.5c-19.3,0.1-38.6,0.5-57.9,1v120.6c19.3-0.5,38.6-0.9,57.9-1
				V211.1z"/>
		</g>
	</g>
	<g>
		<g>
			<defs>
				<rect id="SVGID_11_" x="41.4" y="110.1" width="867.3" height="438.7"/>
			</defs>
			<clipPath id="SVGID_12_">
				<use xlink:href="#SVGID_11_"  style="overflow:visible;"/>
			</clipPath>
			<path class="st5" d="M202.8,176.6c-0.3-0.6-0.4-1.2-0.5-1.8c0-0.2,0.9-0.7,1.2-0.6c0.5,0.3,0.9,0.8,1.6,1.6L202.8,176.6z
				 M204.2,181.9c-0.4,0.7-0.8,1.4-1.4,1.9l-1.1-2.2c0.5-0.3,1.1-0.6,1.8-0.7C203.6,180.8,204.2,181.8,204.2,181.9 M185.6,134.1
				c-0.5,0-1-1-1.5-1.5c0.7-0.6,1.5-1.1,2.3-1.5c0.4-0.1,1,0.9,2.1,1.8C187.7,133.4,186.7,133.8,185.6,134.1 M191.2,174v-49.8
				c-8.1,0.8-12.1,1.2-20.1,2.1v30.4l0.1-0.1c0.4,0.4,0.7,0.8,1.1,1.2c-0.4,0.2-0.8,0.5-1.2,0.7v18.7c0.6-0.4,1.2-0.8,1.9-1.2l1,1.7
				c-0.9,0.4-1.8,0.7-2.7,1c0,0-0.1,0-0.1-0.1V247c8-0.9,12.1-1.3,20.1-2.1v-51.2c9.1-0.9,13.6-1.4,22.7-2.2v51.2
				c8.1-0.8,12.1-1.1,20.1-1.8V120.2c-8.1,0.7-12.1,1.1-20.1,1.8v49.8C204.9,172.6,200.2,173.1,191.2,174"/>
		</g>
	</g>
	<g>
		<g>
			<defs>
				<rect id="SVGID_13_" x="41.4" y="110.1" width="867.3" height="438.7"/>
			</defs>
			<clipPath id="SVGID_14_">
				<use xlink:href="#SVGID_13_"  style="overflow:visible;"/>
			</clipPath>
			<path class="st6" d="M55.5,300l-0.5-1.2c0.4-0.1,0.8-0.2,1.2-0.3c0.1,0,0.4,0.5,0.3,0.6C56.2,299.5,55.9,299.8,55.5,300
				 M43.2,281v86.2l7.6,6.5c12.6-1.9,18.9-2.9,31.5-4.7l7.6-8.7v-86.2c-6.2,0.9-9.4,1.3-15.6,2.2v76.9l-1.7,2L60.5,357l-1.7-1.5
				v-76.9C52.6,279.6,49.5,280.1,43.2,281"/>
		</g>
	</g>
	<g>
		<g>
			<defs>
				<rect id="SVGID_15_" x="41.4" y="110.1" width="867.3" height="438.7"/>
			</defs>
			<clipPath id="SVGID_16_">
				<use xlink:href="#SVGID_15_"  style="overflow:visible;"/>
			</clipPath>
			<path class="st7" d="M146.5,293.8v-19.4l-7.6-6.7c-12.7,1.5-19.1,2.3-31.8,4l-7.6,8.7v38.4l7.6,6.6c8.7-1.2,13.1-1.7,21.8-2.8
				l1.8,1.6v21.2l-1.9,2.1l-11.9,1.5l-1.9-1.6v-10c-6.3,0.8-9.4,1.2-15.6,2.1V359l7.6,6.6c12.7-1.7,19-2.5,31.8-4.1l7.6-8.6V313
				l-7.6-6.7c-8.8,1.1-13.2,1.6-21.9,2.8l-1.9-1.7v-19.5l1.9-2.1l11.9-1.5l1.9,1.6v9.9C137,295,140.2,294.6,146.5,293.8"/>
		</g>
	</g>
	<g>
		<g>
			<defs>
				<rect id="SVGID_17_" x="41.4" y="110.1" width="867.3" height="438.7"/>
			</defs>
			<clipPath id="SVGID_18_">
				<use xlink:href="#SVGID_17_"  style="overflow:visible;"/>
			</clipPath>
			<path class="st8" d="M176.9,356.8c6.3-0.7,9.4-1,15.7-1.6v-93.8c-6.3,0.6-9.4,1-15.7,1.6V356.8z"/>
		</g>
	</g>
	<g>
		<g>
			<defs>
				<rect id="SVGID_19_" x="41.4" y="110.1" width="867.3" height="438.7"/>
			</defs>
			<clipPath id="SVGID_20_">
				<use xlink:href="#SVGID_19_"  style="overflow:visible;"/>
			</clipPath>
			<path class="st9" d="M61.7,206.6l4.6-0.8l0.4,1.5l-4.6,1.4L61.7,206.6z M141.1,180.2c0.4,0.2,0.7,0.5,1,0.8l-1.2,0.7
				c-0.2-0.4-0.3-0.8-0.5-1.2C140.4,180.5,141,180.1,141.1,180.2 M89.5,257.1c4.2-28.2,8.3-56.4,12.5-84.6l12.5,81.1
				c10.1-1.3,15.2-2,25.3-3.2c7.6-41.1,15.3-82.2,22.9-123.2c-8.2,0.9-12.3,1.4-20.4,2.4c-4.9,29.7-9.9,59.3-14.8,88.9l-14.4-85.2
				c-8.9,1.2-13.3,1.8-22.1,3l-3.6,22.5l0.9,0.3v2.4h-1.4c-3.4,21.3-6.9,42.6-10.3,63.9l-6.4-36.7c-4.6,2.1-6-1.5-9.4-2.2
				c4.4-3.6,6.3-1.3,9,0.3l-8-46.2c-8.2,1.1-12.3,1.8-20.4,3.1l22.9,117.1C74.4,259.2,79.4,258.5,89.5,257.1"/>
		</g>
	</g>
	<g>
		<g>
			<defs>
				<rect id="SVGID_21_" x="41.4" y="110.1" width="867.3" height="438.7"/>
			</defs>
			<clipPath id="SVGID_22_">
				<use xlink:href="#SVGID_21_"  style="overflow:visible;"/>
			</clipPath>
			<path class="st10" d="M478.1,262.8c6,0,9.1,0,15.1,0.1l1.7,1.7v23.2l-1.7,1.8c-6,0-9.1-0.1-15.1-0.1V262.8z M478.1,341.2v-36.5
				h9.4l7.7,36.6c6.2,0.1,9.3,0.1,15.5,0.2L503,305l7.7-7.5v-42l-7.7-7.8c-13.5-0.1-27.1-0.2-40.6-0.2v93.8L478.1,341.2L478.1,341.2
				z"/>
		</g>
	</g>
	<g>
		<g>
			<defs>
				<rect id="SVGID_23_" x="41.4" y="110.1" width="867.3" height="438.7"/>
			</defs>
			<clipPath id="SVGID_24_">
				<use xlink:href="#SVGID_23_"  style="overflow:visible;"/>
			</clipPath>
			<path class="st11" d="M732.7,315.5l-1.2-2.1c0.5-0.4,1.1-0.6,1.7-0.8c0.2,0,0.9,0.8,0.8,1C733.7,314.1,733.2,314.8,732.7,315.5
				L732.7,315.5z M752.8,262.2c-7.4,13.5-14.7,27.1-22.1,40.6V260c-6.2-0.6-9.3-0.9-15.4-1.4v93.8c6.2,0.6,9.3,0.8,15.4,1.4v-21
				l7.4-12.8l14.9,36c6.9,0.7,10.3,1.1,17.1,1.9c-7.5-18.3-14.9-36.5-22.4-54.7c7.5-13,14.9-26.1,22.4-39.1
				C763.2,263.3,759.8,262.9,752.8,262.2"/>
		</g>
	</g>
	<g>
		<g>
			<defs>
				<rect id="SVGID_25_" x="41.4" y="110.1" width="867.3" height="438.7"/>
			</defs>
			<clipPath id="SVGID_26_">
				<use xlink:href="#SVGID_25_"  style="overflow:visible;"/>
			</clipPath>
			<path class="st12" d="M819.1,133.8c-2.2-0.2-3.1-0.3-3.2-1.5c-6-0.8-10-1.2-16.9-2.1v73.9c-8.7-25.7-17.4-51.3-26.1-77
				c-8.7-1-13-1.4-21.7-2.3v120.6c8,0.8,12.1,1.2,20.1,2.2v-74c8.7,25.6,17.4,51.3,26.1,77c8.7,1.1,13,1.6,21.7,2.7L819.1,133.8z"/>
		</g>
	</g>
	<g>
		<g>
			<defs>
				<rect id="SVGID_27_" x="41.4" y="110.1" width="867.3" height="438.7"/>
			</defs>
			<clipPath id="SVGID_28_">
				<use xlink:href="#SVGID_27_"  style="overflow:visible;"/>
			</clipPath>
			<path class="st13" d="M42.4,417.8c11.2-1.8,16.9-2.6,28.1-4.3V545c10.4-1.5,15.7-2.3,26.1-3.7V409.8c11.3-1.5,16.9-2.3,28.2-3.7
				v-25.4c-27.5,3.5-55,7.5-82.4,11.7V417.8z"/>
		</g>
	</g>
	<g>
		<g>
			<defs>
				<rect id="SVGID_29_" x="41.4" y="110.1" width="867.3" height="438.7"/>
			</defs>
			<clipPath id="SVGID_30_">
				<use xlink:href="#SVGID_29_"  style="overflow:visible;"/>
			</clipPath>
			<path class="st14" d="M895.7,281c-14.9-2.4-29.8-4.6-44.8-6.7v93.8c6.2,0.9,9.4,1.3,15.6,2.3V331c8.6,1.2,12.9,1.9,21.5,3.3
				v-15.2c-8.6-1.3-12.9-2-21.5-3.3v-24.1c11.7,1.7,17.5,2.6,29,4.5L895.7,281z"/>
		</g>
	</g>
	<g>
		<g>
			<defs>
				<rect id="SVGID_31_" x="41.4" y="110.1" width="867.3" height="438.7"/>
			</defs>
			<clipPath id="SVGID_32_">
				<use xlink:href="#SVGID_31_"  style="overflow:visible;"/>
			</clipPath>
			<path class="st15" d="M880.2,406.8c0.4,0.1,0.9,0.2,1.3,0.4l-0.7,1.1c-0.3-0.3-0.6-0.5-0.9-0.9L880.2,406.8 M834.1,394.9
				l-4.1-2.2l0.7-1.6l4.4,1.9L834.1,394.9z M868.2,542.8l1.5,0.9c-0.4,0.5-0.9,1-1.5,1.4c-0.2,0.1-0.8-0.4-1.2-0.7L868.2,542.8z
				 M844.7,528.8l-0.5-1.8l3.2-0.8l0.4,1.2L844.7,528.8z M816.9,381.2l-12.8,11.2v64.2c5.1,5.7,7.7,8.6,12.8,14.4l3.1,0.4
				c0.4-0.5,0.9-0.8,1.2-0.8c0.8,0.1,1.5,0.6,2,1.2c10,1.3,20,2.7,30.1,4.1l3.1,3.5V515l-3.1,2.6c-8-1.1-12-1.7-19.9-2.8l-3.1-3.5
				v-16.7c-10.5-1.4-15.7-2.1-26.1-3.4v32.4c5.1,5.7,7.7,8.6,12.8,14.4c17.7,2.3,35.4,4.8,53,7.4l12.7-10.9v-66.9
				c-5.1-5.9-7.6-8.8-12.7-14.7c-12.2-1.8-24.4-3.6-36.6-5.2l-3.1-3.5v-32.7l3.1-2.7c8,1.1,12,1.6,19.9,2.8l3.1,3.5v16.6l5.4,0.8
				c0-0.2-0.1-0.5-0.1-0.7l2.3-1l0.9,2.2c5.8,0.8,10.5,1.6,17.8,2.7v-32.4c-5.1-5.9-7.6-8.8-12.7-14.7
				C852.3,386,834.7,383.6,816.9,381.2"/>
		</g>
	</g>
	<g>
		<g>
			<defs>
				<rect id="SVGID_33_" x="41.4" y="110.1" width="867.3" height="438.7"/>
			</defs>
			<clipPath id="SVGID_34_">
				<use xlink:href="#SVGID_33_"  style="overflow:visible;"/>
			</clipPath>
			<path class="st16" d="M737.8,123.4c-8.1-0.8-12.1-1.2-20.1-1.9V242c8.1,0.7,12.1,1.1,20.1,1.9V123.4z"/>
		</g>
	</g>
	<g>
		<g>
			<defs>
				<rect id="SVGID_35_" x="41.4" y="110.1" width="867.3" height="438.7"/>
			</defs>
			<clipPath id="SVGID_36_">
				<use xlink:href="#SVGID_35_"  style="overflow:visible;"/>
			</clipPath>
			<path class="st17" d="M886.2,242.1l-9.3-4.4C882.2,233.8,884.4,234.8,886.2,242.1L886.2,242.1z M872.8,238.6l-2.2,2.1
				c-7.1-1.1-10.7-1.6-17.8-2.6v-81.7c7.1,1,10.7,1.5,17.8,2.6l2.2,2.7V238.6z M869.1,152.4c0.4,0.2,0.8,0.4,1.2,0.6l-1,0.9
				c-0.3-0.4-0.5-0.7-0.7-1.1C868.7,152.9,868.9,152.4,869.1,152.4 M893.2,254.1v-101l-9.8-11.4c-16.9-2.5-33.9-5-50.8-7.3V255
				c16.9,2.3,33.9,4.8,50.8,7.3L893.2,254.1z"/>
		</g>
	</g>
	<g>
		<g>
			<defs>
				<rect id="SVGID_37_" x="41.4" y="110.1" width="867.3" height="438.7"/>
			</defs>
			<clipPath id="SVGID_38_">
				<use xlink:href="#SVGID_37_"  style="overflow:visible;"/>
			</clipPath>
			<path class="st18" d="M594.8,250.3c-6.3-0.3-9.4-0.4-15.7-0.7v57.5c-6.8-19.4-13.6-38.9-20.4-58.3c-6.8-0.2-10.2-0.3-16.9-0.5
				v93.8c6.3,0.2,9.4,0.3,15.7,0.5v-57.5c6.8,19.4,13.6,38.8,20.4,58.3c6.8,0.3,10.2,0.4,16.9,0.7V250.3z"/>
		</g>
	</g>
	<g>
		<g>
			<defs>
				<rect id="SVGID_39_" x="41.4" y="110.1" width="867.3" height="438.7"/>
			</defs>
			<clipPath id="SVGID_40_">
				<use xlink:href="#SVGID_39_"  style="overflow:visible;"/>
			</clipPath>
			<path class="st19" d="M517.2,167.8c-0.7,0.5-1.4,0.8-2.2,1.1c0-1.1-0.2-2,0.2-2.3c0.3-0.3,1.2-0.2,1.9,0
				C517.2,166.9,517.3,167.3,517.2,167.8L517.2,167.8z M515.6,147.6c0.4,0.2,0.8,0.4,1.2,0.7l-1,0.9c-0.3-0.4-0.5-0.7-0.7-1.1
				C515.1,148.1,515.5,147.6,515.6,147.6 M546.8,111.2c-21.2-0.6-42.5-0.9-63.8-1.1v19.5c8.7,0,13.1,0.1,21.8,0.2v101
				c8.1,0.1,12.1,0.2,20.2,0.3v-101c8.7,0.2,13.1,0.3,21.8,0.5V111.2z"/>
		</g>
	</g>
	<g>
		<g>
			<defs>
				<rect id="SVGID_41_" x="41.4" y="110.1" width="867.3" height="438.7"/>
			</defs>
			<clipPath id="SVGID_42_">
				<use xlink:href="#SVGID_41_"  style="overflow:visible;"/>
			</clipPath>
			<path class="st20" d="M650.3,268.6v-15.1c-15-1-30-1.9-45-2.6v93.8c15,0.8,30,1.6,45,2.6v-15.2c-11.7-0.8-17.6-1.1-29.3-1.8v-25
				c8.7,0.5,13.1,0.8,21.8,1.3v-15.2c-8.7-0.6-13.1-0.8-21.8-1.3v-23.4C632.8,267.5,638.7,267.8,650.3,268.6"/>
		</g>
	</g>
	<g>
		<g>
			<defs>
				<rect id="SVGID_43_" x="41.4" y="110.1" width="867.3" height="438.7"/>
			</defs>
			<clipPath id="SVGID_44_">
				<use xlink:href="#SVGID_43_"  style="overflow:visible;"/>
			</clipPath>
			<path class="st21" d="M595.8,211.9l-2.4,2.1c-6-0.3-9.2-0.4-15.3-0.7l-2.2-2.3v-76.9l2.2-2.1c6,0.2,9.2,0.4,15.3,0.7l2.4,2.3
				V211.9z M573.4,182.1c-0.5-0.4-0.9-0.9-1.2-1.5l1.6-0.7l0.9,1.7C574.2,181.8,573.7,182.3,573.4,182.1 M570.2,171.5
				c0.3-0.7,0.9-1.2,1.6-1.5c0.7-0.2,1.5,0.3,2.7,0.5l-3.3,2.6C570.8,172.6,570.1,171.9,570.2,171.5L570.2,171.5z M562.9,139.4
				c-0.2-0.4-0.5-0.8-0.6-1.2c0,0,0.4-0.5,0.6-0.4c0.4,0.2,0.8,0.5,1.1,0.7L562.9,139.4z M616.2,224.8v-1.2l-4.1,0.2l-0.2-2.4
				c1.4-1.7,2.7-2.1,4.3-1.1v-96.4l-9.8-10.4c-13.5-0.7-27.1-1.3-40.7-1.8l-9.9,9.5v100.9l9.9,10.2c13.6,0.5,27.1,1.1,40.7,1.8
				L616.2,224.8z"/>
		</g>
	</g>
	<g>
		<g>
			<defs>
				<rect id="SVGID_45_" x="41.4" y="110.1" width="867.3" height="438.7"/>
			</defs>
			<clipPath id="SVGID_46_">
				<use xlink:href="#SVGID_45_"  style="overflow:visible;"/>
			</clipPath>
			<path class="st22" d="M905.4,530.5c-2-2-4.7-3.2-7.6-3.1c-2.9,0-5.6,1.1-7.6,3.1c-2.1,2-3.2,4.7-3.2,7.6c0,2.9,1.1,5.6,3.1,7.6
				c2,2.1,4.8,3.2,7.7,3.2c2.9,0.1,5.7-1.1,7.7-3.1s3.1-4.8,3.1-7.6C908.7,535.2,907.4,532.4,905.4,530.5"/>
		</g>
	</g>
	<g>
		<g>
			<defs>
				<rect id="SVGID_47_" x="41.4" y="110.1" width="867.3" height="438.7"/>
			</defs>
			<clipPath id="SVGID_48_">
				<use xlink:href="#SVGID_47_"  style="overflow:visible;"/>
			</clipPath>
			<path class="st23" d="M824.8,347.6l-1.9,1.4l-11.8-1.5l-1.7-1.9v-59.9l1.7-1.5l11.8,1.5l1.8,2L824.8,347.6L824.8,347.6z
				 M840.4,359v-78.5l-7.6-8.7c-10.3-1.4-16.4-2.2-25.2-3.3l1.4,0.9c-0.5,0.6-1,1.3-1.6,1.8c-1.1-0.7-2.2-1.6-3.3-2.4
				c0.2-0.2,0.4-0.4,0.6-0.6l-3.4-0.4l-7.6,6.7V353l7.6,8.6c12.6,1.5,18.9,2.4,31.5,4.1L840.4,359z"/>
		</g>
	</g>
	<g>
		<g>
			<defs>
				<rect id="SVGID_49_" x="41.4" y="110.1" width="867.3" height="438.7"/>
			</defs>
			<clipPath id="SVGID_50_">
				<use xlink:href="#SVGID_49_"  style="overflow:visible;"/>
			</clipPath>
			<path class="st24" d="M297.5,445.4c0.1,0,0.1,0.6,0,0.7c-0.4,0.2-0.8,0.3-1.2,0.4c0-0.4,0-0.9-0.1-1.3
				C296.7,445.1,297,445.1,297.5,445.4L297.5,445.4z M261.9,456.5c12.1-0.9,24.2-1.8,36.4-2.5v-25.4c-12.1,0.8-24.2,1.6-36.4,2.5
				v-39c16.3-1.2,32.6-2.3,49-3.3v-25.4c-25.1,1.5-50.2,3.3-75.2,5.4v156.8c25.1-2.1,50.1-3.9,75.2-5.4v-25.4
				c-16.3,0.9-32.7,2-49,3.3V456.5z"/>
		</g>
	</g>
	<g>
		<g>
			<defs>
				<rect id="SVGID_51_" x="41.4" y="110.1" width="867.3" height="438.7"/>
			</defs>
			<clipPath id="SVGID_52_">
				<use xlink:href="#SVGID_51_"  style="overflow:visible;"/>
			</clipPath>
			<path class="st25" d="M439.4,463.6l-0.9-1c0.4-0.2,0.8-0.4,1.2-0.6c0.2,0.1,0.4,0.3,0.5,0.4C440,462.9,439.6,463.2,439.4,463.6
				L439.4,463.6z M407.2,455.6c-0.7-0.5-1.3-1.2-1.8-2c0.7-0.2,1.5-0.7,2.1-0.6s1.1,0.8,2,1.6C408.6,455.2,407.6,455.9,407.2,455.6
				L407.2,455.6z M378.9,429.2c-0.7-0.5-1.3-1-1.8-1.6c1-0.4,1.8-1,2.1-0.8c0.5,0.5,0.8,1.1,0.8,1.7
				C380,428.8,379.1,429.4,378.9,429.2L378.9,429.2z M372,440c-0.4-0.3-0.7-0.6-1-0.9c0-0.1,0.2-0.6,0.3-0.6c0.4,0,0.8,0.1,1.2,0.3
				L372,440z M459.6,472.2c-6.3-37.7-12.6-75.4-18.8-113.2c-11.6,0.1-17.4,0.2-29,0.4c-6.3,37.9-12.6,75.8-18.8,113.7
				c-6.5-37.6-12.9-75.1-19.5-112.7c-10.7,0.4-16,0.6-26.7,1.1c10,51.9,20,103.8,30,155.7c13.3-0.4,19.9-0.6,33.1-0.9
				c5.4-36,10.9-72,16.4-108l16.4,107.5c13.3-0.1,19.9-0.1,33.1-0.1c10-52.2,20-104.4,30-156.6c-10.7-0.1-16-0.2-26.7-0.2
				C472.6,396.8,466.1,434.5,459.6,472.2"/>
		</g>
	</g>
	<g>
		<g>
			<defs>
				<rect id="SVGID_53_" x="41.4" y="110.1" width="867.3" height="438.7"/>
			</defs>
			<clipPath id="SVGID_54_">
				<use xlink:href="#SVGID_53_"  style="overflow:visible;"/>
			</clipPath>
			<path class="st26" d="M325.6,251.1l-12.2,40l-12.2-38.7c-6.8,0.4-10.2,0.6-17.1,1.1c7.2,19.9,14.3,39.8,21.5,59.7V346
				c6.2-0.4,9.4-0.5,15.6-0.9v-32.7l21.5-62.2C335.8,250.6,332.4,250.8,325.6,251.1"/>
		</g>
	</g>
	<g>
		<g>
			<defs>
				<rect id="SVGID_55_" x="41.4" y="110.1" width="867.3" height="438.7"/>
			</defs>
			<clipPath id="SVGID_56_">
				<use xlink:href="#SVGID_55_"  style="overflow:visible;"/>
			</clipPath>
			<path class="st27" d="M568.8,489.4l-3.1,2.8c-7.9-0.3-11.9-0.4-19.9-0.6l-2.9-3V388.4l2.9-2.8c7.9,0.2,11.9,0.4,19.9,0.6l3.1,3
				V489.4z M528.1,436.4l-0.7-1.3l0.9-1.1l1,1.7L528.1,436.4z M522.1,457.9c-0.6-1.3-1.4-2.1-1.2-2.6c0.5-1,1.2-2,1.9-2.9
				c0.7,0.5,2.1,1.4,2,1.5C524,455.4,523.1,456.8,522.1,457.9L522.1,457.9z M595.4,374.8c-5.1-5.4-7.7-8-12.8-13.3
				c-17.7-0.7-35.3-1.3-53-1.7l-12.8,12.5v131.2l12.8,13.1c17.7,0.4,35.3,1,53,1.7l12.8-12.2V374.8z"/>
		</g>
	</g>
	<g>
		<g>
			<defs>
				<rect id="SVGID_57_" x="41.4" y="110.1" width="867.3" height="438.7"/>
			</defs>
			<clipPath id="SVGID_58_">
				<use xlink:href="#SVGID_57_"  style="overflow:visible;"/>
			</clipPath>
			<path class="st28" d="M649.8,196.3l0.3,0.7l-0.3,0.1v39.4c8.1,0.5,12.1,0.8,20.2,1.4v-50.4c11.1,0.8,16.7,1.2,27.8,2.2v-19.5
				c-11.1-0.9-16.7-1.4-27.8-2.2v-31c12.5,0.9,25.1,1.9,37.6,3v-19.4c-19.3-1.8-38.5-3.2-57.8-4.5V196.3z"/>
		</g>
	</g>
	<g>
		<g>
			<defs>
				<rect id="SVGID_59_" x="41.4" y="110.1" width="867.3" height="438.7"/>
			</defs>
			<clipPath id="SVGID_60_">
				<use xlink:href="#SVGID_59_"  style="overflow:visible;"/>
			</clipPath>
			<path class="st29" d="M664.9,494.6l-3.1,2.7c-7.9-0.6-11.9-0.8-19.8-1.3l-2.9-3.1V392.8l2.9-2.7c7.9,0.5,11.9,0.8,19.8,1.3
				l3.1,3.1V494.6z M650.4,510.1c-0.8-0.7-1.5-1.4-2-2.3c-0.1-0.3,1.1-1.6,1.4-1.5c0.9,0.4,1.6,0.9,2.3,1.5L650.4,510.1z
				 M625.8,363.5l-12.8,12v131.2l12.8,13.5c17.6,1.1,35.3,2.3,52.9,3.6l12.8-11.8V380.9c-5.1-5.5-7.7-8.3-12.8-13.8
				C661.1,365.8,643.3,364.5,625.8,363.5"/>
		</g>
	</g>
	<g>
		<g>
			<defs>
				<rect id="SVGID_61_" x="41.4" y="110.1" width="867.3" height="438.7"/>
			</defs>
			<clipPath id="SVGID_62_">
				<use xlink:href="#SVGID_61_"  style="overflow:visible;"/>
			</clipPath>
			<path class="st30" d="M666.8,254.6l-7.7,7.1v78.5l7.7,8.2c12.7,0.9,19,1.4,31.6,2.5l7.7-7v-19.4c-6.3-0.5-9.4-0.8-15.7-1.3v9.9
				l-1.8,1.7l-11.9-0.9l-1.9-2v-38.3l-0.1-0.2l0.1-0.1v-21l1.9-1.7l11.9,0.9l1.9,2v9.9c6.3,0.5,9.4,0.8,15.7,1.3v-19.4l-7.7-8.3
				C685.8,256,679.4,255.5,666.8,254.6"/>
		</g>
	</g>
	<g>
		<g>
			<defs>
				<rect id="SVGID_63_" x="41.4" y="110.1" width="867.3" height="438.7"/>
			</defs>
			<clipPath id="SVGID_64_">
				<use xlink:href="#SVGID_63_"  style="overflow:visible;"/>
			</clipPath>
			<path class="st31" d="M787.1,470.6c0.1,0.4,0.5,1.2,0.4,1.3c-0.6,0.4-1.2,0.7-1.8,1l-0.5-1.6L787.1,470.6z M761.6,502.9l-2.9,2.8
				c-9.3-1-14-1.5-23.3-2.4V397c9.3,0.9,14,1.4,23.3,2.4l2.9,3.4V502.9z M725.3,515.6c-0.4-0.6-0.6-1.2-0.8-1.9
				c0-0.2,0.7-0.6,1.1-0.9c0.4,0.5,0.8,1.1,1.1,1.7C726.8,514.6,725.9,515.1,725.3,515.6 M708.9,369.5v156.8
				c22.2,2,44.3,4.2,66.4,6.7l12.7-11.3V390.5c-5.1-5.7-7.7-8.6-12.8-14.3C753.2,373.9,731.1,371.5,708.9,369.5"/>
		</g>
	</g>
	<g>
		<g>
			<defs>
				<rect id="SVGID_65_" x="41.4" y="110.1" width="867.3" height="438.7"/>
			</defs>
			<clipPath id="SVGID_66_">
				<use xlink:href="#SVGID_65_"  style="overflow:visible;"/>
			</clipPath>
			<path class="st32" d="M256,349.5v-93.8c-6.3,0.5-9.4,0.7-15.7,1.2v57.5l-20.4-55.7c-6.8,0.6-10.2,0.9-16.9,1.6v93.8
				c6.3-0.6,9.4-0.9,15.7-1.5v-57.5c6.8,18.6,13.6,37.1,20.4,55.7C245.9,350.3,249.2,350,256,349.5"/>
		</g>
	</g>
	<g>
		<g>
			<defs>
				<rect id="SVGID_67_" x="41.4" y="110.1" width="867.3" height="438.7"/>
			</defs>
			<clipPath id="SVGID_68_">
				<use xlink:href="#SVGID_67_"  style="overflow:visible;"/>
			</clipPath>
			<path class="st33" d="M203.6,435.4c0.3-0.5,1.2-0.6,1.9-0.7c0.2,0,0.8,1,0.6,1.2c-0.3,0.6-0.9,1-1.8,1.8
				C203.9,436.8,203.4,435.9,203.6,435.4L203.6,435.4z M192,437.9c-11.8,1.2-17.7,1.8-29.5,3.2v-64.9c-10.5,1.2-15.7,1.8-26.2,3.1
				v156.8c10.5-1.3,15.7-1.9,26.2-3.1v-66.7c11.8-1.3,17.7-2,29.5-3.2v66.7c10.5-1.1,15.7-1.6,26.2-2.5V370.4
				c-10.5,1-15.7,1.5-26.2,2.5V437.9z"/>
		</g>
	</g>
</g>
</svg>
