<?xml version="1.0" encoding="utf-8"?>
<!-- Generator: Adobe Illustrator 21.0.1, SVG Export Plug-In . SVG Version: 6.00 Build 0)  -->
<svg version="1.1" id="Layer_1" xmlns="https://www.w3.org/2000/svg" xmlns:xlink="https://www.w3.org/1999/xlink" x="0px" y="0px"
	 viewBox="0 0 950 635" style="enable-background:new 0 0 950 635;" xml:space="preserve">
<style type="text/css">
	.st0{clip-path:url(#SVGID_2_);}
	.st1{fill:#FFF9E5;}
	.st2{clip-path:url(#SVGID_4_);}
	.st3{clip-path:url(#SVGID_6_);}
	.st4{clip-path:url(#SVGID_8_);}
	.st5{clip-path:url(#SVGID_10_);}
	.st6{clip-path:url(#SVGID_12_);}
	.st7{clip-path:url(#SVGID_14_);}
	.st8{clip-path:url(#SVGID_16_);}
	.st9{clip-path:url(#SVGID_18_);}
	.st10{clip-path:url(#SVGID_20_);}
	.st11{clip-path:url(#SVGID_22_);}
	.st12{clip-path:url(#SVGID_24_);}
	.st13{clip-path:url(#SVGID_26_);}
	.st14{clip-path:url(#SVGID_28_);}
	.st15{clip-path:url(#SVGID_30_);}
	.st16{clip-path:url(#SVGID_32_);}
	.st17{clip-path:url(#SVGID_34_);}
	.st18{clip-path:url(#SVGID_36_);}
	.st19{clip-path:url(#SVGID_38_);}
	.st20{clip-path:url(#SVGID_40_);}
	.st21{clip-path:url(#SVGID_42_);}
	.st22{clip-path:url(#SVGID_44_);}
	.st23{clip-path:url(#SVGID_46_);}
	.st24{clip-path:url(#SVGID_48_);}
	.st25{clip-path:url(#SVGID_50_);}
	.st26{clip-path:url(#SVGID_52_);}
	.st27{clip-path:url(#SVGID_54_);}
	.st28{clip-path:url(#SVGID_56_);}
	.st29{clip-path:url(#SVGID_58_);}
	.st30{clip-path:url(#SVGID_60_);}
	.st31{clip-path:url(#SVGID_62_);}
	.st32{clip-path:url(#SVGID_64_);}
	.st33{clip-path:url(#SVGID_66_);}
	.st34{clip-path:url(#SVGID_68_);}
	.st35{clip-path:url(#SVGID_70_);}
	.st36{clip-path:url(#SVGID_72_);}
	.st37{clip-path:url(#SVGID_74_);}
	.st38{clip-path:url(#SVGID_76_);}
	.st39{clip-path:url(#SVGID_78_);}
	.st40{clip-path:url(#SVGID_80_);}
	.st41{clip-path:url(#SVGID_82_);}
	.st42{clip-path:url(#SVGID_84_);}
	.st43{clip-path:url(#SVGID_86_);}
	.st44{clip-path:url(#SVGID_88_);}
	.st45{clip-path:url(#SVGID_90_);}
	.st46{clip-path:url(#SVGID_92_);}
	.st47{clip-path:url(#SVGID_94_);}
	.st48{clip-path:url(#SVGID_96_);}
</style>
<title>BUCK_WEB_Headline_Menu</title>
<g>
	<g>
		<g>
			<defs>
				<rect id="SVGID_1_" x="5.9" y="161.4" width="938.1" height="372.3"/>
			</defs>
			<clipPath id="SVGID_2_">
				<use xlink:href="#SVGID_1_"  style="overflow:visible;"/>
			</clipPath>
			<g class="st0">
				<path class="st1" d="M220.1,399.1v-20.9c-20.6,1.8-41.2,3.7-61.8,5.9v129.4c20.6-2.2,41.2-4.1,61.8-5.9v-20.9
					c-13.4,1.1-26.8,2.4-40.2,3.7V456c12-1.2,17.9-1.8,29.9-2.8v-20.9c-12,1.1-17.9,1.6-29.9,2.8v-32.2
					C193.2,401.6,206.6,400.3,220.1,399.1"/>
			</g>
		</g>
	</g>
</g>
<g>
	<g>
		<g>
			<defs>
				<rect id="SVGID_3_" x="5.9" y="161.4" width="938.1" height="372.3"/>
			</defs>
			<clipPath id="SVGID_4_">
				<use xlink:href="#SVGID_3_"  style="overflow:visible;"/>
			</clipPath>
			<g class="st2">
				<path class="st1" d="M223.2,224c-0.6,0.4-1.3,0.8-2,1.1c-0.2,0-0.6-0.7-1-1.1c0.6-0.5,1.2-0.9,1.8-1.3
					C222.2,222.5,222.8,223.3,223.2,224z M257,249c0.4,0.3,0.7,0.7,0.9,1.2c-0.4,0.7-0.9,1.4-1.5,2l-1.2-2.4
					C255.7,249.4,256.3,249.1,257,249z M257.1,241.7c0.7,0.5,1.2,1,1.7,1.7l-2.4,0.9c-0.3-0.6-0.5-1.3-0.6-2
					C256.2,242,256.6,241.8,257.1,241.7L257.1,241.7z M223,171.9c-7.1,0.6-10.7,0.9-17.9,1.6v107c7.1-0.6,10.7-1,17.9-1.6v-32.6
					c-0.3,0.1-0.5,0.2-0.8,0.3s-0.8-1.2-0.7-1.2c0.5-0.4,1-0.7,1.5-1v-11c8-0.7,12.1-1,20.1-1.6v45.5c7.1-0.6,10.7-0.8,17.9-1.3
					v-94.6l-2.4,0.6v-9.8c0.8,0.1,1.6,0.2,2.4,0.4v-3.7c-7.1,0.5-10.7,0.8-17.9,1.3v44.2c-8.1,0.6-12.1,1-20.1,1.7V171.9z"/>
			</g>
		</g>
	</g>
</g>
<g>
	<g>
		<g>
			<defs>
				<rect id="SVGID_5_" x="5.9" y="161.4" width="938.1" height="372.3"/>
			</defs>
			<clipPath id="SVGID_6_">
				<use xlink:href="#SVGID_5_"  style="overflow:visible;"/>
			</clipPath>
			<g class="st3">
				<path class="st1" d="M347,196.4c-0.5-0.3-1.1-0.6-1.5-0.9c0.3-0.7,0.6-1.3,1-1.9c0.4,0.3,1.3,0.6,1.3,0.8
					C347.6,195,347.3,195.7,347,196.4 M377.9,184.3l0.2,3.1l-6.1,0.3l-0.2-2.6L377.9,184.3z M373.9,175.7c0.4,0.6,0.8,1.3,1.1,2
					l-1.8,0.7c-0.3-0.7-0.5-1.4-0.6-2.2C373,175.8,373.4,175.6,373.9,175.7z M376.6,210.9c-1,0-1.9-0.7-3.9-1.6
					c2-1.1,2.9-2.1,3.7-1.9s1.4,1.3,2.1,2.1C377.7,209.9,377.2,210.9,376.6,210.9 M391.4,162.5c-7.2,0.2-10.7,0.3-17.9,0.6l-13.5,80
					l-13.5-79c-7.2,0.3-10.7,0.5-17.9,0.8c6.7,35.5,13.4,70.9,20,106.2c9.2-0.4,13.7-0.6,22.8-0.9
					C378,234.3,384.7,198.4,391.4,162.5"/>
			</g>
		</g>
	</g>
</g>
<g>
	<g>
		<g>
			<defs>
				<rect id="SVGID_7_" x="5.9" y="161.4" width="938.1" height="372.3"/>
			</defs>
			<clipPath id="SVGID_8_">
				<use xlink:href="#SVGID_7_"  style="overflow:visible;"/>
			</clipPath>
			<g class="st4">
				<path class="st1" d="M915.7,242.2l-17.1-2.5v-30.6l17.1,2.5l2,2.3v26.4L915.7,242.2z M928.4,236.6c0.6,0.4,1.1,0.9,1.6,1.4
					l-1.3,1.2c-0.5-0.6-0.9-1.2-1.3-1.8C927.3,237.4,928.3,236.5,928.4,236.6 M926.7,261.2l8.7-7.4V206l-8.7-10l-0.9-0.1l0.6,1.6
					l3.9,3.1l-1.7,1.4l-2.5-4.3c-3.2-0.2-4.2-0.3-3.9-2.4c-13.8-2.1-27.6-4.1-41.4-6v107.1l17.8,2.5v-41.8l10.6,1.6l8.7,43l17.5,2.6
					L926.7,261.2z"/>
			</g>
		</g>
	</g>
</g>
<g>
	<g>
		<g>
			<defs>
				<rect id="SVGID_9_" x="5.9" y="161.4" width="938.1" height="372.3"/>
			</defs>
			<clipPath id="SVGID_10_">
				<use xlink:href="#SVGID_9_"  style="overflow:visible;"/>
			</clipPath>
			<g class="st5">
				<path class="st1" d="M403.5,306.5v-13.2l-5.3-5.1c-8.6,0.2-13,0.3-21.6,0.6l-5.3,5.4v26.1l5.3,5c5.9-0.2,8.9-0.3,14.8-0.4
					l1.3,1.2v14.4l-1.3,1.3l-8.1,0.2l-1.3-1.2V334l-10.6,0.3v13.2l5.3,5c8.6-0.3,13-0.4,21.6-0.6l5.3-5.3v-27.2l-5.1-5.1
					c-6,0.1-8.9,0.2-14.9,0.4l-1.3-1.2v-13.2l1.3-1.3l3.1-0.1c0.5-0.4,1.1-0.8,1.7-1.1c0.3,0.3,0.6,0.7,0.8,1.1l2.5-0.1l1.3,1.2v6.7
					L403.5,306.5z"/>
			</g>
		</g>
	</g>
</g>
<g>
	<g>
		<g>
			<defs>
				<rect id="SVGID_11_" x="5.9" y="161.4" width="938.1" height="372.3"/>
			</defs>
			<clipPath id="SVGID_12_">
				<use xlink:href="#SVGID_11_"  style="overflow:visible;"/>
			</clipPath>
			<g class="st6">
				<path class="st1" d="M266.9,306.1l1.2-1.3l8-0.5l1.3,1.1v40.7l-1.3,1.3l-8,0.5l-1.2-1.1V306.1z M256.4,353.8l5.2,4.8
					c8.6-0.6,12.8-0.9,21.4-1.4l5.2-5.5v-53.2l-5.2-4.9c-8.6,0.6-12.8,0.8-21.4,1.4l-5.2,5.6V353.8z"/>
			</g>
		</g>
	</g>
</g>
<g>
	<g>
		<g>
			<defs>
				<rect id="SVGID_13_" x="5.9" y="161.4" width="938.1" height="372.3"/>
			</defs>
			<clipPath id="SVGID_14_">
				<use xlink:href="#SVGID_13_"  style="overflow:visible;"/>
			</clipPath>
			<g class="st7">
				<path class="st1" d="M412.1,305.2c-2.1,2-2.2,5.4-0.2,7.5c1,1,2.3,1.6,3.7,1.6h0.2c1.4,0,2.8-0.6,3.8-1.6s1.6-2.4,1.5-3.8
					c0-2.8-2.3-5.2-5.1-5.2h-0.1l0,0C414.5,303.7,413.1,304.2,412.1,305.2"/>
			</g>
		</g>
	</g>
</g>
<g>
	<g>
		<g>
			<defs>
				<rect id="SVGID_15_" x="5.9" y="161.4" width="938.1" height="372.3"/>
			</defs>
			<clipPath id="SVGID_16_">
				<use xlink:href="#SVGID_15_"  style="overflow:visible;"/>
			</clipPath>
			<g class="st8">
				<path class="st1" d="M608,290.5c-13.4-0.6-20.1-0.9-33.5-1.3v10.3l11.5,0.4v53.3l10.6,0.4v-53.3l11.5,0.5L608,290.5L608,290.5z"
					/>
			</g>
		</g>
	</g>
</g>
<g>
	<g>
		<g>
			<defs>
				<rect id="SVGID_17_" x="5.9" y="161.4" width="938.1" height="372.3"/>
			</defs>
			<clipPath id="SVGID_18_">
				<use xlink:href="#SVGID_17_"  style="overflow:visible;"/>
			</clipPath>
			<g class="st9">
				<path class="st1" d="M344.6,300.5l9.6-0.4l1.3,1.1V317l-1.3,1.3l-9.6,0.4V300.5z M334,354.2l10.6-0.5V329
					c6.6-0.3,9.8-0.4,16.4-0.7l5.3-5.4v-28.4l-5.3-5c-10.8,0.4-16.2,0.6-27,1.1V354.2z"/>
			</g>
		</g>
	</g>
</g>
<g>
	<g>
		<g>
			<defs>
				<rect id="SVGID_19_" x="5.9" y="161.4" width="938.1" height="372.3"/>
			</defs>
			<clipPath id="SVGID_20_">
				<use xlink:href="#SVGID_19_"  style="overflow:visible;"/>
			</clipPath>
			<g class="st10">
				<path class="st1" d="M888.8,361.8V375l5.1,5.9c8.6,1.2,12.9,1.8,21.4,3.1l5.1-4.4v-27.1l-5.1-6l-1.5-0.2c-0.3,0.4-0.6,0.7-0.9,1
					c-0.7-0.4-1.3-0.9-1.9-1.4l-10.4-1.5l-1.3-1.4v-13.2l1.3-1.1l8.1,1.2l1.3,1.4v6.7l10.6,1.6v-13.2l-5.1-6
					c-8.6-1.3-12.8-1.9-21.4-3.1l-5.1,4.5v26l5.1,5.9c5.9,0.8,8.8,1.3,14.7,2.1l1.3,1.4v14.4l-1.3,1.1l-8.1-1.2l-1.3-1.4v-6.8
					L888.8,361.8z"/>
			</g>
		</g>
	</g>
</g>
<g>
	<g>
		<g>
			<defs>
				<rect id="SVGID_21_" x="5.9" y="161.4" width="938.1" height="372.3"/>
			</defs>
			<clipPath id="SVGID_22_">
				<use xlink:href="#SVGID_21_"  style="overflow:visible;"/>
			</clipPath>
			<g class="st11">
				<path class="st1" d="M929.5,371.5l-3.2,2.7v3.5l0.3-0.1c0.1,0,0.4,0.5,0.3,0.6c-0.2,0.3-0.4,0.5-0.6,0.8v1.7l3.2,3.7l3.1,0.5
					l0.7,0.9v1.2l-3.8,3.3v3.5l5.8-2.3l3.9-3.3v-12l-3.2-3.7L929.5,371.5z"/>
			</g>
		</g>
	</g>
</g>
<g>
	<g>
		<g>
			<defs>
				<rect id="SVGID_23_" x="5.9" y="161.4" width="938.1" height="372.3"/>
			</defs>
			<clipPath id="SVGID_24_">
				<use xlink:href="#SVGID_23_"  style="overflow:visible;"/>
			</clipPath>
			<g class="st12">
				<path class="st1" d="M302.5,196.8l7.5,35.7c-6,0.3-9,0.5-14.9,0.9L302.5,196.8z M320.6,228.6c0.1,0,0.7,0.3,0.6,0.4
					c-0.1,0.5-0.3,0.9-0.5,1.3l-1.3-0.7C319.7,229.2,320.1,228.8,320.6,228.6 M291.5,250.9l22-1.3l4.8,22.9c7.3-0.4,11-0.6,18.3-0.9
					c-8.5-35.2-17-70.5-25.4-105.8l-17.5,1c-8.4,36.2-16.8,72.4-25.3,108.7c7.3-0.5,11-0.8,18.3-1.2L291.5,250.9z"/>
			</g>
		</g>
	</g>
</g>
<g>
	<g>
		<g>
			<defs>
				<rect id="SVGID_25_" x="5.9" y="161.4" width="938.1" height="372.3"/>
			</defs>
			<clipPath id="SVGID_26_">
				<use xlink:href="#SVGID_25_"  style="overflow:visible;"/>
			</clipPath>
			<g class="st13">
				<path class="st1" d="M770.2,193.4l13.5,1.3l2.1,2.2v68.4l-2.1,1.7l-13.5-1.3l-2-2.2v-68.3L770.2,193.4z M750.4,272.5l8.7,9.6
					c14.4,1.4,21.6,2.1,36,3.7l8.7-7.8v-89.6l-8.7-9.7c-14.4-1.6-21.6-2.3-36-3.7l-8.7,7.9V272.5"/>
			</g>
		</g>
	</g>
</g>
<g>
	<g>
		<g>
			<defs>
				<rect id="SVGID_27_" x="5.9" y="161.4" width="938.1" height="372.3"/>
			</defs>
			<clipPath id="SVGID_28_">
				<use xlink:href="#SVGID_27_"  style="overflow:visible;"/>
			</clipPath>
			<g class="st14">
				<path class="st1" d="M659.2,320.5l-1.3,1.2l-9.6-0.6V303l9.6,0.6l1.3,1.3V320.5z M637.7,292v63.6l10.6,0.6v-24.8l16.4,1l5.2-4.8
					v-28.4l-5.2-5.5C653.9,292.9,648.5,292.6,637.7,292"/>
			</g>
		</g>
	</g>
</g>
<g>
	<g>
		<g>
			<defs>
				<rect id="SVGID_29_" x="5.9" y="161.4" width="938.1" height="372.3"/>
			</defs>
			<clipPath id="SVGID_30_">
				<use xlink:href="#SVGID_29_"  style="overflow:visible;"/>
			</clipPath>
			<g class="st15">
				<path class="st1" d="M825,319.8l1.2-1l8,1l1.3,1.3v40.6l-1.3,1l-8-1l-1.2-1.3V319.8z M819.6,371.1c8.5,1,12.8,1.5,21.3,2.6
					l5.2-4.5V316l-5.2-5.9l-21.3-2.6l-5.1,4.6v53.3L819.6,371.1z"/>
			</g>
		</g>
	</g>
</g>
<g>
	<g>
		<g>
			<defs>
				<rect id="SVGID_31_" x="5.9" y="161.4" width="938.1" height="372.3"/>
			</defs>
			<clipPath id="SVGID_32_">
				<use xlink:href="#SVGID_31_"  style="overflow:visible;"/>
			</clipPath>
			<g class="st16">
				<path class="st1" d="M686.3,306.5l1.2-1.1l8,0.6l1.3,1.3V348l-1.3,1.1l-8-0.6l-1.2-1.3V306.5z M702.3,359.8l5.2-4.8v-53.2
					l-5.2-5.6c-8.6-0.7-12.8-1-21.4-1.6l-5.2,4.8v53.1l5.3,5.5C689.5,358.8,693.8,359.1,702.3,359.8"/>
			</g>
		</g>
	</g>
</g>
<g>
	<g>
		<g>
			<defs>
				<rect id="SVGID_33_" x="5.9" y="161.4" width="938.1" height="372.3"/>
			</defs>
			<clipPath id="SVGID_34_">
				<use xlink:href="#SVGID_33_"  style="overflow:visible;"/>
			</clipPath>
			<g class="st17">
				<path class="st1" d="M601.5,253.8c-12.5-0.5-18.7-0.8-31.1-1.2v-89.7l-18-0.5v107c16.4,0.4,32.8,1,49.2,1.7v-17.3L601.5,253.8
					L601.5,253.8z"/>
			</g>
		</g>
	</g>
</g>
<g>
	<g>
		<g>
			<defs>
				<rect id="SVGID_35_" x="5.9" y="161.4" width="938.1" height="372.3"/>
			</defs>
			<clipPath id="SVGID_36_">
				<use xlink:href="#SVGID_35_"  style="overflow:visible;"/>
			</clipPath>
			<g class="st18">
				<path class="st1" d="M658.7,256.8c-12.4-0.8-18.7-1.1-31.1-1.8v-89.6c-7.2-0.4-10.8-0.6-18-0.9v107c16.4,0.7,32.8,1.6,49.2,2.6
					v-17.3H658.7z"/>
			</g>
		</g>
	</g>
</g>
<g>
	<g>
		<g>
			<defs>
				<rect id="SVGID_37_" x="5.9" y="161.4" width="938.1" height="372.3"/>
			</defs>
			<clipPath id="SVGID_38_">
				<use xlink:href="#SVGID_37_"  style="overflow:visible;"/>
			</clipPath>
			<g class="st19">
				<path class="st1" d="M883.5,326v-10.3c-12.1-1.7-18.2-2.5-30.2-4v63.6c12.1,1.6,18.2,2.4,30.2,4V369c-7.9-1.1-11.8-1.6-19.7-2.6
					v-16.9l14.6,2v-10.3l-14.6-2v-15.8C871.7,324.5,875.7,325,883.5,326"/>
			</g>
		</g>
	</g>
</g>
<g>
	<g>
		<g>
			<defs>
				<rect id="SVGID_39_" x="5.9" y="161.4" width="938.1" height="372.3"/>
			</defs>
			<clipPath id="SVGID_40_">
				<use xlink:href="#SVGID_39_"  style="overflow:visible;"/>
			</clipPath>
			<g class="st20">
				<path class="st1" d="M741.5,190.6v-17.3c-17.1-1.5-34.1-2.9-51.2-4.2v107.1l17.9,1.3v-44.9l24.6,2v-17.3
					c-9.8-0.9-14.8-1.3-24.6-2v-27.5C721.5,188.8,728.2,189.4,741.5,190.6"/>
			</g>
		</g>
	</g>
</g>
<g>
	<g>
		<g>
			<defs>
				<rect id="SVGID_41_" x="5.9" y="161.4" width="938.1" height="372.3"/>
			</defs>
			<clipPath id="SVGID_42_">
				<use xlink:href="#SVGID_41_"  style="overflow:visible;"/>
			</clipPath>
			<g class="st21">
				<path class="st1" d="M798.5,368.8v-53.3l11.4,1.3v-10.3c-13.4-1.5-20-2.2-33.4-3.6V313l11.4,1.2v53.3L798.5,368.8z"/>
			</g>
		</g>
	</g>
</g>
<g>
	<g>
		<g>
			<defs>
				<rect id="SVGID_43_" x="5.9" y="161.4" width="938.1" height="372.3"/>
			</defs>
			<clipPath id="SVGID_44_">
				<use xlink:href="#SVGID_43_"  style="overflow:visible;"/>
			</clipPath>
			<g class="st22">
				<path class="st1" d="M425.4,256c0,0-0.5-0.5-0.4-0.6c0.2-0.4,0.5-0.8,0.8-1.2l0.9,1.1C426.1,255.6,425.8,255.8,425.4,256z
					 M450.1,251.2c-13.4,0.1-20,0.2-33.4,0.4v-28.5c9.9-0.2,14.9-0.3,24.8-0.4v-17.3c-9.9,0.1-14.9,0.2-24.8,0.4v-26.6
					c13.4-0.2,20-0.3,33.4-0.4v-17.4c-17.1,0.1-34.2,0.4-51.4,0.8v107.2c17.1-0.4,34.2-0.7,51.3-0.8L450.1,251.2z"/>
			</g>
		</g>
	</g>
</g>
<g>
	<g>
		<g>
			<defs>
				<rect id="SVGID_45_" x="5.9" y="161.4" width="938.1" height="372.3"/>
			</defs>
			<clipPath id="SVGID_46_">
				<use xlink:href="#SVGID_45_"  style="overflow:visible;"/>
			</clipPath>
			<g class="st23">
				<path class="st1" d="M510.9,192.1l7.4,36.2c-6-0.1-9-0.1-14.9-0.2L510.9,192.1z M499.9,245.4c8.8,0.1,13.1,0.1,22,0.3l4.8,23.2
					c7.3,0.1,11,0.2,18.4,0.4c-8.5-35.9-17-71.8-25.5-107.6c-7-0.1-10.5-0.2-17.5-0.2c-8.5,35.7-17,71.4-25.4,107
					c7.3,0,11,0,18.4,0.1L499.9,245.4z"/>
			</g>
		</g>
	</g>
</g>
<path class="st1" d="M756.7,340.5l4.4-21l4.4,21.8L756.7,340.5z M766.2,301.9l-10.3-1l-15,62.2l10.9,1l2.8-13.4l13,1.3l2.8,13.9
	l10.8,1.1L766.2,301.9z"/>
<g>
	<g>
		<g>
			<defs>
				<rect id="SVGID_47_" x="5.9" y="161.4" width="938.1" height="372.3"/>
			</defs>
			<clipPath id="SVGID_48_">
				<use xlink:href="#SVGID_47_"  style="overflow:visible;"/>
			</clipPath>
			<g class="st24">
				<path class="st1" d="M868.8,286v-98.4c-7.1-0.9-10.7-1.4-17.8-2.3v87.8l-2,1.7l-13.7-1.7l-2-2.2v-87.8
					c-7.1-0.9-10.7-1.3-17.8-2.1v98.4l8.7,9.8c14.4,1.7,21.5,2.6,35.9,4.5L868.8,286z"/>
			</g>
		</g>
	</g>
</g>
<g>
	<g>
		<g>
			<defs>
				<rect id="SVGID_49_" x="5.9" y="161.4" width="938.1" height="372.3"/>
			</defs>
			<clipPath id="SVGID_50_">
				<use xlink:href="#SVGID_49_"  style="overflow:visible;"/>
			</clipPath>
			<g class="st25">
				<path class="st1" d="M734.2,362.5v-53.2l11.4,1V300c-13.4-1.2-20.1-1.8-33.5-2.9v10.3l11.4,0.9v53.2L734.2,362.5z"/>
			</g>
		</g>
	</g>
</g>
<g>
	<g>
		<g>
			<defs>
				<rect id="SVGID_51_" x="5.9" y="161.4" width="938.1" height="372.3"/>
			</defs>
			<clipPath id="SVGID_52_">
				<use xlink:href="#SVGID_51_"  style="overflow:visible;"/>
			</clipPath>
			<g class="st26">
				<path class="st1" d="M483.9,289.8c0.9,1.2,2.1,2.3,2.2,3.5s-1.6,2.4-3.1,4.4c-0.4-0.6-0.8-1.1-1.3-1.6l-7.5,21.4l-10.5-30
					l-13.2,0.1v63.6h10.6v-43l10.3,29.2h5.6l10.3-29.2V351l10.6,0.1v-63.5l-13.2-0.1L483.9,289.8z"/>
			</g>
		</g>
	</g>
</g>
<g>
	<g>
		<g>
			<defs>
				<rect id="SVGID_53_" x="5.9" y="161.4" width="938.1" height="372.3"/>
			</defs>
			<clipPath id="SVGID_54_">
				<use xlink:href="#SVGID_53_"  style="overflow:visible;"/>
			</clipPath>
			<g class="st27">
				<path class="st1" d="M91.3,323.5l1.2-1.3l8-1l1.2,1v40.6l-1.2,1.3l-8,1l-1.2-1V323.5z M107.2,373.6l5.1-5.8v-53.2l-5.2-4.6
					c-8.5,1.1-12.8,1.6-21.3,2.7l-5.1,5.9v53.2l5.2,4.5C94.5,375.1,98.7,374.6,107.2,373.6"/>
			</g>
		</g>
	</g>
</g>
<g>
	<g>
		<g>
			<defs>
				<rect id="SVGID_55_" x="5.9" y="161.4" width="938.1" height="372.3"/>
			</defs>
			<clipPath id="SVGID_56_">
				<use xlink:href="#SVGID_55_"  style="overflow:visible;"/>
			</clipPath>
			<g class="st28">
				<path class="st1" d="M140.8,358l-1.2,1.4l-9.4,1.1v-43.1l9.4-1.1l1.2,1.1V358z M119.4,308.5V372c10.7-1.3,16.1-1.9,26.8-3.1
					l5.2-5.8V310l-5.2-4.6C135.6,306.6,130.2,307.2,119.4,308.5"/>
			</g>
		</g>
	</g>
</g>
<g>
	<g>
		<g>
			<defs>
				<rect id="SVGID_57_" x="5.9" y="161.4" width="938.1" height="372.3"/>
			</defs>
			<clipPath id="SVGID_58_">
				<use xlink:href="#SVGID_57_"  style="overflow:visible;"/>
			</clipPath>
			<g class="st29">
				<path class="st1" d="M106.1,498.6v-34.4c11.9-1.5,17.9-2.2,29.8-3.6v-20.9c-11.9,1.3-17.9,2.1-29.8,3.6v-32.2
					c13.4-1.7,26.8-3.2,40.2-4.7v-20.9c-20.6,2.3-41.2,4.7-61.7,7.5v129.3c20.5-2.7,41.1-5.2,61.7-7.5V494
					C132.8,495.4,119.3,497,106.1,498.6"/>
			</g>
		</g>
	</g>
</g>
<g>
	<g>
		<g>
			<defs>
				<rect id="SVGID_59_" x="5.9" y="161.4" width="938.1" height="372.3"/>
			</defs>
			<clipPath id="SVGID_60_">
				<use xlink:href="#SVGID_59_"  style="overflow:visible;"/>
			</clipPath>
			<g class="st30">
				<path class="st1" d="M535.5,341.4c-7.9-0.2-11.9-0.2-19.8-0.3v-16.9c5.9,0.1,8.8,0.1,14.7,0.2v-10.3c-5.9-0.1-8.8-0.2-14.7-0.2
					v-15.8c7.9,0.1,11.9,0.2,19.8,0.3v-10.3l-30.5-0.5v63.6c12.2,0.1,18.3,0.2,30.5,0.5V341.4z"/>
			</g>
		</g>
	</g>
</g>
<g>
	<g>
		<g>
			<defs>
				<rect id="SVGID_61_" x="5.9" y="161.4" width="938.1" height="372.3"/>
			</defs>
			<clipPath id="SVGID_62_">
				<use xlink:href="#SVGID_61_"  style="overflow:visible;"/>
			</clipPath>
			<g class="st31">
				<path class="st1" d="M553.8,474.2l-2.4,2.5c-7.7-0.2-11.5-0.3-19.2-0.4v-87.7c7.7,0.2,11.5,0.2,19.2,0.4l2.4,2.6V474.2
					L553.8,474.2z M510.4,367.6V497c18.3,0.3,36.6,0.7,54.9,1.2l10.5-10.2V379.8l-10.5-10.9C547,368.4,528.7,367.9,510.4,367.6"/>
			</g>
		</g>
	</g>
</g>
<g>
	<g>
		<g>
			<defs>
				<rect id="SVGID_63_" x="5.9" y="161.4" width="938.1" height="372.3"/>
			</defs>
			<clipPath id="SVGID_64_">
				<use xlink:href="#SVGID_63_"  style="overflow:visible;"/>
			</clipPath>
			<g class="st32">
				<path class="st1" d="M398.1,461.5c0.2-0.8,1.3-1.5,2.1-2c0.2-0.1,1.5,1.1,1.5,1.6c0,0.9-0.8,1.9-1.7,3.8
					C398.9,463.1,397.9,462.1,398.1,461.5 M363.6,450l9-43.9l9,43.3C374.4,449.6,370.8,449.8,363.6,450z M362,369.6
					c-10.2,43.6-20.4,87.2-30.6,130.7l22.1-1l5.7-28.2c10.6-0.4,15.9-0.6,26.6-0.9l5.8,27.8l22.1-0.5
					c-10.2-42.9-20.4-85.8-30.7-128.6C374.8,369.1,370.5,369.2,362,369.6"/>
			</g>
		</g>
	</g>
</g>
<path class="st1" d="M554.5,328.1l4.5-21.3l4.4,21.5L554.5,328.1z M553.8,288.5l-15.1,63.2l10.9,0.3l2.9-13.6l13,0.4l2.9,13.8
	l10.9,0.4l-15-64.1L553.8,288.5z"/>
<g>
	<g>
		<g>
			<defs>
				<rect id="SVGID_65_" x="5.9" y="161.4" width="938.1" height="372.3"/>
			</defs>
			<clipPath id="SVGID_66_">
				<use xlink:href="#SVGID_65_"  style="overflow:visible;"/>
			</clipPath>
			<g class="st33">
				<path class="st1" d="M433.8,422c-0.3-6.6,0-6.9,7.5-6.4C439,418.5,438,421.9,433.8,422z M474.4,446.8
					c-9.4-26.4-18.7-52.8-28.1-79.2c-9.3,0.1-14,0.1-23.3,0.3v129.4c8.7-0.1,13-0.2,21.6-0.3v-79.3c9.4,26.4,18.7,52.8,28.1,79.2
					c9.3,0,14,0,23.3,0.1V367.5c-8.7,0-13-0.1-21.6-0.1V446.8z"/>
			</g>
		</g>
	</g>
</g>
<g>
	<g>
		<g>
			<defs>
				<rect id="SVGID_67_" x="5.9" y="161.4" width="938.1" height="372.3"/>
			</defs>
			<clipPath id="SVGID_68_">
				<use xlink:href="#SVGID_67_"  style="overflow:visible;"/>
			</clipPath>
			<g class="st34">
				<path class="st1" d="M421.6,330.6c0-3-2.4-5.5-5.4-5.5H416c-1.5,0-2.9,0.6-4,1.7c-2.2,2.1-2.3,5.6-0.2,7.8
					c1,1.1,2.4,1.7,3.9,1.7h0.2c1.5,0,2.9-0.6,4-1.7C421.1,333.7,421.7,332.2,421.6,330.6"/>
			</g>
		</g>
	</g>
</g>
<g>
	<g>
		<g>
			<defs>
				<rect id="SVGID_69_" x="5.9" y="161.4" width="938.1" height="372.3"/>
			</defs>
			<clipPath id="SVGID_70_">
				<use xlink:href="#SVGID_69_"  style="overflow:visible;"/>
			</clipPath>
			<g class="st35">
				<path class="st1" d="M326.9,349.5v-58.4l-10.6,0.5v52.1l-1.2,1.2l-8.1,0.5l-1.2-1.1v-52.1l-10.6,0.6v58.4l5.2,4.9
					c8.6-0.5,12.8-0.7,21.4-1.2L326.9,349.5z"/>
			</g>
		</g>
	</g>
</g>
<g>
	<g>
		<g>
			<defs>
				<rect id="SVGID_71_" x="5.9" y="161.4" width="938.1" height="372.3"/>
			</defs>
			<clipPath id="SVGID_72_">
				<use xlink:href="#SVGID_71_"  style="overflow:visible;"/>
			</clipPath>
			<g class="st36">
				<path class="st1" d="M276.8,429.5l-2.4,2.7c-8.3,0.6-12.5,0.8-20.8,1.5v-37l20.8-1.5l2.4,2.2V429.5z M232.1,377.2v129.4
					c8.6-0.7,13-1,21.6-1.7v-50.4l12.9-0.9l10.5,49.7c8.5-0.6,12.8-0.8,21.3-1.3l-10.5-49.8l10.5-11.2v-57.9l-10.5-9.9
					C269.2,374.5,250.7,375.8,232.1,377.2"/>
			</g>
		</g>
	</g>
</g>
<g>
	<g>
		<g>
			<defs>
				<rect id="SVGID_73_" x="5.9" y="161.4" width="938.1" height="372.3"/>
			</defs>
			<clipPath id="SVGID_74_">
				<use xlink:href="#SVGID_73_"  style="overflow:visible;"/>
			</clipPath>
			<g class="st37">
				<path class="st1" d="M228,308l10.2-0.8l1.2,1.1V324l-1.2,1.3l-10.2,0.8V308z M239.5,360.2l10.4-0.8l-5.2-24.4l5.2-5.6V301
					l-5.2-4.8c-11,0.8-16.4,1.3-27.4,2.2V362l10.6-0.9v-24.7l6.3-0.5L239.5,360.2z"/>
			</g>
		</g>
	</g>
</g>
<g>
	<g>
		<g>
			<defs>
				<rect id="SVGID_75_" x="5.9" y="161.4" width="938.1" height="372.3"/>
			</defs>
			<clipPath id="SVGID_76_">
				<use xlink:href="#SVGID_75_"  style="overflow:visible;"/>
			</clipPath>
			<g class="st38">
				<path class="st1" d="M123.6,227.9c2.9-4.7,5.7-3.7,8.4-2.7v2.7H123.6z M172.6,266.2c-13.3,1.3-20,2.1-33.3,3.6v-28.5
					c9.9-1.1,14.8-1.6,24.7-2.6v-17.4c-9.9,1-14.8,1.6-24.7,2.6v-26.6c13.3-1.5,20-2.2,33.3-3.6v-17.3c-17.1,1.8-34.1,3.6-51.1,5.6
					v107.1c17-2,34-3.9,51.1-5.6V266.2z"/>
			</g>
		</g>
	</g>
</g>
<g>
	<g>
		<g>
			<defs>
				<rect id="SVGID_77_" x="5.9" y="161.4" width="938.1" height="372.3"/>
			</defs>
			<clipPath id="SVGID_78_">
				<use xlink:href="#SVGID_77_"  style="overflow:visible;"/>
			</clipPath>
			<g class="st39">
				<path class="st1" d="M96.1,185.2l-13.1,79l-12.8-75.6c-7.9,1.1-11.8,1.6-19.6,2.7c-4.2,26.4-8.5,52.8-12.7,79.2l-13.1-75.4
					c-7.2,1.2-10.8,1.8-18,2.9L27,302c8.9-1.3,13.4-2,22.3-3.3l11.1-75.1l11.1,72l22.4-3c6.8-36.6,13.6-73.2,20.4-109.7
					C106.9,183.8,103.3,184.3,96.1,185.2"/>
			</g>
		</g>
	</g>
</g>
<g>
	<g>
		<g>
			<defs>
				<rect id="SVGID_79_" x="5.9" y="161.4" width="938.1" height="372.3"/>
			</defs>
			<clipPath id="SVGID_80_">
				<use xlink:href="#SVGID_79_"  style="overflow:visible;"/>
			</clipPath>
			<g class="st40">
				<path class="st1" d="M63,368l-1.3,1.3l-8,1.1l-1.2-1v-40.6l1.2-1.3l8-1.1l1.3,1V368z M47.3,318.1l-5.1,5.9v53.2l5.1,4.4l21.3-3
					l5.1-5.9v-53.2l-5.1-4.5C60,316.3,55.8,316.9,47.3,318.1"/>
			</g>
		</g>
	</g>
</g>
<g>
	<g>
		<g>
			<defs>
				<rect id="SVGID_81_" x="5.9" y="161.4" width="938.1" height="372.3"/>
			</defs>
			<clipPath id="SVGID_82_">
				<use xlink:href="#SVGID_81_"  style="overflow:visible;"/>
			</clipPath>
			<g class="st41">
				<path class="st1" d="M847.3,431.2c-0.5,0.4-1,0.7-1.6,0.9c-0.3-0.7-0.5-1.4-0.7-2.1c0-0.2,0.8-0.5,1.3-0.8
					C846.7,429.9,847.1,430.6,847.3,431.2z M826.8,469l9-42.5l9,44.8C837.6,470.4,834,469.9,826.8,469z M832.2,392
					c0.2,0,1,0.8,0.9,1.1c-0.3,0.8-0.8,1.5-1.4,2.1l-1.3-2.3C831,392.5,831.6,392.2,832.2,392L832.2,392z M825.3,388.3
					c-10.2,42-20.4,84-30.5,125.9c8.8,1,13.2,1.4,22,2.5l5.8-27.2c10.5,1.3,15.9,1.9,26.4,3.2l5.8,28.7c8.8,1.1,13.1,1.7,22,2.9
					c-10.1-44.5-20.2-89-30.4-133.4C837.9,389.8,833.7,389.3,825.3,388.3"/>
			</g>
		</g>
	</g>
</g>
<g>
	<g>
		<g>
			<defs>
				<rect id="SVGID_83_" x="5.9" y="161.4" width="938.1" height="372.3"/>
			</defs>
			<clipPath id="SVGID_84_">
				<use xlink:href="#SVGID_83_"  style="overflow:visible;"/>
			</clipPath>
			<g class="st42">
				<path class="st1" d="M933,510.4c-3,0-5.8,1.1-7.9,3.2c-2.1,2-3.3,4.9-3.3,7.8c0,3,1.1,5.8,3.2,7.9c2.1,2.1,4.9,3.3,7.9,3.3
					c3,0.1,5.9-1.1,7.9-3.3c2.1-2.1,3.2-4.9,3.2-7.9c0.1-6-4.8-10.9-10.8-11C933.1,510.3,933.1,510.3,933,510.4L933,510.4z"/>
			</g>
		</g>
	</g>
</g>
<g>
	<g>
		<g>
			<defs>
				<rect id="SVGID_85_" x="5.9" y="161.4" width="938.1" height="372.3"/>
			</defs>
			<clipPath id="SVGID_86_">
				<use xlink:href="#SVGID_85_"  style="overflow:visible;"/>
			</clipPath>
			<g class="st43">
				<path class="st1" d="M935,403.4c-22.6-3.5-45.2-6.8-67.8-9.8v20.9c9.3,1.2,13.9,1.9,23.2,3.2v108.5c8.6,1.2,12.9,1.8,21.5,3.1
					V420.8c9.2,1.3,13.9,2.1,23.1,3.5V403.4z"/>
			</g>
		</g>
	</g>
</g>
<g>
	<g>
		<g>
			<defs>
				<rect id="SVGID_87_" x="5.9" y="161.4" width="938.1" height="372.3"/>
			</defs>
			<clipPath id="SVGID_88_">
				<use xlink:href="#SVGID_87_"  style="overflow:visible;"/>
			</clipPath>
			<g class="st44">
				<path class="st1" d="M726.5,507.5c20.6,1.8,41.2,3.7,61.7,5.9v-20.9c-13.4-1.4-26.8-2.7-40.2-4v-34.4c12,1.1,17.9,1.7,29.9,2.9
					v-20.9c-12-1.2-17.9-1.8-29.9-2.9V401c13.4,1.2,26.8,2.5,40.2,4v-20.9c-20.6-2.2-41.2-4.2-61.7-5.9V507.5z"/>
			</g>
		</g>
	</g>
</g>
<g>
	<g>
		<g>
			<defs>
				<rect id="SVGID_89_" x="5.9" y="161.4" width="938.1" height="372.3"/>
			</defs>
			<clipPath id="SVGID_90_">
				<use xlink:href="#SVGID_89_"  style="overflow:visible;"/>
			</clipPath>
			<g class="st45">
				<path class="st1" d="M693,449c0.6,0.5,1.2,1,1.7,1.5c-0.4,0.4-0.9,1.2-1.1,1.1c-0.7-0.3-1.4-0.7-2-1.2
					C692.1,450,692.6,449.5,693,449L693,449z M671.4,434.8L670,433c0.4-0.3,1-1,1.3-0.9c0.6,0.4,1.2,0.9,1.7,1.4L671.4,434.8z
					 M657.6,425.5c-0.6-1-1.1-2.1-1.3-3.2c0-0.5,1.1-1.1,1.6-1.6c0.7,0.7,1.2,1.6,1.6,2.5C659.7,423.6,658.6,424.3,657.6,425.5
					 M663.8,434.6l-21.3-62.4c-10.8-0.6-16.1-0.9-26.9-1.4v129.4c8.6,0.4,13,0.6,21.6,1.1V414c7,20.3,14,40.5,20.9,60.8l11.2,0.7
					c7-19.4,14-38.8,20.9-58.1v87.3c8.6,0.6,13,1,21.6,1.7V377c-10.7-0.9-16.1-1.3-26.9-2C678,394.9,670.9,414.8,663.8,434.6"/>
			</g>
		</g>
	</g>
</g>
<g>
	<g>
		<g>
			<defs>
				<rect id="SVGID_91_" x="5.9" y="161.4" width="938.1" height="372.3"/>
			</defs>
			<clipPath id="SVGID_92_">
				<use xlink:href="#SVGID_91_"  style="overflow:visible;"/>
			</clipPath>
			<g class="st46">
				<path class="st1" d="M207.4,316.5l-4.3,0.8l-0.1-2.1h4.2L207.4,316.5z M183.4,301.5l-5.2,5.7v53.2l5.2,4.7
					c8.8-0.9,13.3-1.3,22.1-2.1l5.2-5.6v-29.6c-6.3,0.6-9.5,0.8-15.8,1.4v10.5l5.2-0.5V352l-1.2,1.3l-8.8,0.8l-1.3-1.1v-40.6
					l1.3-1.3l8.8-0.8l1.2,1.1v6.9l10.6-1V304l-5.1-4.7C196.6,300.3,192.2,300.7,183.4,301.5"/>
			</g>
		</g>
	</g>
</g>
<polygon class="st1" points="606.5,358.2 606.5,361.8 612.3,358.8 616.2,355 616.2,343 613,339.5 606.5,339.2 603.2,342.4 
	603.2,348.9 606.5,352.2 609.5,352.4 610.3,353.2 610.3,354.5 "/>
<g>
	<g>
		<g>
			<defs>
				<rect id="SVGID_93_" x="5.9" y="161.4" width="938.1" height="372.3"/>
			</defs>
			<clipPath id="SVGID_94_">
				<use xlink:href="#SVGID_93_"  style="overflow:visible;"/>
			</clipPath>
			<g class="st47">
				<path class="st1" d="M37,330v-10.3c-12.1,1.8-18.1,2.7-30.2,4.6v63.6l10.5-1.6v-26.7l14.4-2.2v-10.2c-5.8,0.9-8.7,1.3-14.5,2.2
					v-16.3C25.2,331.6,29.1,331.1,37,330"/>
			</g>
		</g>
	</g>
</g>
<g>
	<g>
		<g>
			<defs>
				<rect id="SVGID_95_" x="5.9" y="161.4" width="938.1" height="372.3"/>
			</defs>
			<clipPath id="SVGID_96_">
				<use xlink:href="#SVGID_95_"  style="overflow:visible;"/>
			</clipPath>
			<g class="st48">
				<path class="st1" d="M47.3,506.4c-7.9,1.1-11.8,1.7-19.6,2.9V475c7.9-1.2,11.8-1.8,19.6-2.9l2.4,2v29.3L47.3,506.4z M27.7,421.5
					c7.9-1.2,11.8-1.8,19.6-2.9l2.4,2.2v27.4l-2.4,2.9c-7.9,1.1-11.8,1.7-19.6,2.9C27.7,454,27.7,421.5,27.7,421.5z M71.2,468.6
					l-10.5-9.1l8.6-9.9h-0.6c-1.7-0.7-3-2.2-3.3-4c-0.1-1.3,2-2.7,3.1-4.1l2.6,2.2v-38.4l-10.5-9.1c-18.2,2.6-36.4,5.4-54.6,8.2
					v129.4c18.2-2.8,36.4-5.6,54.6-8.2l10.5-12C71,498.5,71.1,483.5,71.2,468.6"/>
			</g>
		</g>
	</g>
</g>
</svg>
