<svg id="Layer_1" data-name="Layer 1" xmlns="http://www.w3.org/2000/svg" xmlns:xlink="http://www.w3.org/1999/xlink" viewBox="0 0 950 635"><defs><style>.cls-1{fill:none;}.cls-2{clip-path:url(#clip-path);}.cls-3{fill:#fff9e5;}</style><clipPath id="clip-path"><rect class="cls-1" x="71.5" y="109.95" width="807" height="415.1"/></clipPath></defs><title>BUCK_WEB_Headline_About</title><g class="cls-2"><path class="cls-3" d="M824,488.55c0-.2.8-.8,1-.7a5.39,5.39,0,0,1,1.6,1.4l-2,1a11.5,11.5,0,0,1-.6-1.7Zm-34.6-29.3L799.8,410l10.4,52c-8.3-1.2-12.5-1.7-20.8-2.8Zm-30,29a5.36,5.36,0,0,1-.5-1.1,1,1,0,0,1,.4-.5l1,.7ZM812,368.85c-9.8-1.4-14.6-2-24.4-3.3q-17.7,72.9-35.5,145.8c10.3,1.1,15.4,1.8,25.6,3.1l6.8-31.5c12.3,1.6,18.4,2.4,30.7,4.1l6.7,33.3c10.2,1.5,15.3,2.2,25.5,3.8Q829.7,446.6,812,368.85"/></g><g class="cls-2"><path class="cls-3" d="M122.2,379.05c-.3-.3-.9-.5-.9-.9s.4-.7.6-1.1l1.3,1.1Zm.8,121.8,2,.3c-.3,1.2-.6,2.5-1,3.7a2.66,2.66,0,0,1-1.2-.3,15.33,15.33,0,0,1,.2-3.7ZM86.2,373.65c-4.9,5.6-7.3,8.5-12.2,14.1v125.6l12.2,10.4c17.3-2.6,34.7-5.1,52.1-7.4,4.9-5.6,7.3-8.3,12.3-13.8v-69.9c-12.4,1.6-24.8,3.3-37.2,5v24.7c4.9-.7,7.3-1,12.2-1.7v30l-2.8,3.3c-8.3,1.1-12.4,1.7-20.6,2.9l-3-2.5v-95.8l3-3.3c8.3-1.2,12.4-1.8,20.6-2.9l2.7,2.6v16.4c10-1.4,15-2,25-3.3v-31.1l-12.3-10.7c-17.3,2.3-34.7,4.8-52,7.4"/></g><g class="cls-2"><path class="cls-3" d="M452.4,194c-10.5,0-20.9.2-31.4.4v-26.7c9.3-.2,14-.2,23.3-.3v-16.2c-9.3.1-14,.1-23.3.3v-25c10.5-.2,20.9-.3,31.4-.4v-16.2c-16.1.1-32.2.4-48.2.7V211c16.1-.3,32.2-.6,48.2-.7Z"/></g><g class="cls-2"><path class="cls-3" d="M424.9,241.35v-16.6c-16.4.3-32.9.7-49.3,1.3v102.7c16.4-.5,32.9-1,49.3-1.3v-16.6c-10.7.2-21.4.4-32.1.7v-27.3c9.5-.3,14.3-.4,23.9-.6V267c-9.5.2-14.3.3-23.9.6V242c10.7-.3,21.4-.5,32.1-.7"/></g><g class="cls-2"><path class="cls-3" d="M561.1,115.35c-.5-.1-1-.9-1.4-1.3a9.17,9.17,0,0,1,2.1-1.3c.2-.1.8,1,1.3,1.8-.8.4-1.5,1-2,.8m6.1-3.4c-17.7-.7-35.4-1.3-53.1-1.6v16.3c7.3.1,10.9.2,18.2.4v84.1l16.8.5v-84.1c7.3.2,10.9.4,18.1.7Z"/></g><g class="cls-2"><path class="cls-3" d="M467.2,240.75l1.9,2v65.5l-1.9,2H451.9v-69.6h15.3Zm9.4-12.7c.5,0,.9.8,1.3,1.2-.4.4-.9,1.2-1.3,1.2s-1-.7-1.7-1.2c.7-.6,1.2-1.3,1.7-1.2m-42-3.4v84.4c1.8-1.3,3.5-.7,5.2-.1v2.3h-5.2v16.1c14.5-.2,29.1-.2,43.6-.2l8.4-8.3V233l-8.4-8.4c-14.5-.2-29.1-.1-43.6.1"/></g><g class="cls-2"><path class="cls-3" d="M229.3,385.25a5.67,5.67,0,0,1-1.8-1.2l2-1.1a8,8,0,0,1,.8,1.6c0,.1-.8.8-1,.7m-11.4,36.3-2.8,3.2-24.1,2.5v-42.9c9.6-1.1,14.5-1.6,24.1-2.5l2.8,2.5Zm-31.3.5c-.2,0-.5-.7-.8-1a13,13,0,0,1,1.5-1,9.38,9.38,0,0,1,.9,1.2,4,4,0,0,1-1.6.8Zm-11.4-2.3a3.59,3.59,0,0,1-1-.7l.9-.8c.2.4.4.7.6,1.1,0,.1-.4.5-.5.4Zm-7.8,49.8c-.6-.7-1.3-1.3-1.3-1.7a1.3,1.3,0,1,1,2.6-.2v.2c.1.5-.7,1.1-1.3,1.7m63.3-22c4.9-5.4,7.3-8,12.3-13.4v-67.1l-12.3-11.1q-32.4,3-64.6,6.9v150.1c10-1.2,15-1.8,25-2.9v-58.4c6-.7,9-1,15-1.6l12.3,57.2c9.9-1,14.8-1.4,24.7-2.3Z"/></g><g class="cls-2"><path class="cls-3" d="M874.7,502.95a12.55,12.55,0,0,0-9.1-3.8,12.38,12.38,0,0,0-9.2,3.8,12.92,12.92,0,0,0,0,18.3,13.1,13.1,0,0,0,18.5,0h0a12.92,12.92,0,0,0-.2-18.3"/></g><g class="cls-2"><path class="cls-3" d="M625,332.15c6.9.4,10.3.7,17.2,1.1V230.55c-6.9-.5-10.3-.7-17.2-1.1Z"/></g><g class="cls-2"><path class="cls-3" d="M210.7,139.25c6.4-.7,9.7-1,16.1-1.6l1.8,1.7v24.8l-1.8,2.2c-6.4.6-9.7.9-16.1,1.6Zm0,44.9,10-1,8.2,38.3,16.5-1.5-8.2-38.4,8.2-8.9v-44.9l-8.2-7.5c-14.4,1.3-28.9,2.8-43.3,4.3v100.4c6.7-.7,10-1.1,16.7-1.8Z"/></g><g class="cls-2"><path class="cls-3" d="M171.2,258.25c7.4-.9,11.1-1.3,18.5-2.1v-16.6c-18,2-36.1,4.2-54.1,6.5v16.6c7.4-1,11.1-1.4,18.5-2.4v86.1c6.8-.9,10.3-1.3,17.1-2.1Z"/></g><g class="cls-2"><path class="cls-3" d="M349.5,243.75c7.4-.3,11.1-.5,18.6-.8v-16.7q-27.15,1-54.3,2.7v16.6c7.4-.4,11.1-.7,18.5-1v86.1c6.9-.4,10.3-.5,17.2-.8Z"/></g><g class="cls-2"><path class="cls-3" d="M96.1,297.45l.8.9c-.4.2-.7.4-1.1.6,0,0-.4-.4-.4-.5a8.65,8.65,0,0,0,.7-1m33-20.9v-21.2l-8.3-7.3c-11.6,1.6-23.1,3.3-34.7,5.1l-8.3,9.6v42l8.3,7.1c9.5-1.4,14.3-2.2,23.8-3.5l2,1.7v23.2l-2.1,2.3c-5.2.7-7.8,1.1-13,1.9l-2-1.7v-10.8c-6.8,1-10.2,1.5-17.1,2.6v21.2l8.4,7.1c11.5-1.8,23.1-3.4,34.7-5l8.3-9.5v-43.7l-8.3-7.2c-9.6,1.3-14.4,2-23.9,3.4l-2-1.7v-21.3l2.1-2.4c5.2-.8,7.8-1.1,13-1.9l2,1.7v10.7c6.7-1,10.2-1.4,17.1-2.4"/></g><g class="cls-2"><path class="cls-3" d="M132.6,132v92.2l8.2,7.1c11.2-1.5,22.5-2.9,33.7-4.2l8.2-9.1v-92.2c-6.7.8-10,1.1-16.7,2v82.3l-1.8,2.1c-5.2.6-7.8.9-12.9,1.6l-1.9-1.6v-82.4c-6.7.8-10.1,1.3-16.8,2.2"/></g><g class="cls-2"><path class="cls-3" d="M88.2,156.55l1.8-2.1,12.6-1.9,2,1.6v64.1l-2,2.2c-5,.7-7.6,1.1-12.6,1.9l-1.9-1.6v-64.2ZM113.3,235l8.2-9.3v-84l-8.2-7.1c-11.3,1.6-22.5,3.2-33.6,5l-8.2,9.5v84l8.2,6.9c11.1-1.7,22.3-3.4,33.6-5"/></g><g class="cls-2"><path class="cls-3" d="M377.1,154.55l-1.9,2.1c-6.5.2-9.7.4-16.2.6v-28.7c6.5-.3,9.7-.4,16.2-.6l1.9,1.8Zm-34.8-41.6v100.4c6.7-.3,10.1-.5,16.8-.8v-39.1l10-.4,8.2,38.8,16.6-.5-3-14.3c-1.4,2.1-2.1,2-6.5,1.3l6.3-2.4-5-23.5,8.2-8.4v-28.7l-1.4,2.5c-.5-1.6-1-2.4-.9-2.9a2.17,2.17,0,0,1,1.3-1.5,1.8,1.8,0,0,1,1,.2V119l-8.2-8c-14.4.6-28.9,1.2-43.4,1.9"/></g><g class="cls-2"><path class="cls-3" d="M685.4,336.75v-86.1c7.4.6,11.1,1,18.5,1.7v-16.6c-18-1.7-36.1-3.3-54.2-4.6v16.6c7.4.5,11.1.8,18.5,1.4v86.1l17.2,1.5"/></g><g class="cls-2"><path class="cls-3" d="M754.9,169.25h-6.8c1.7-2,2.6-3.9,3.5-3.9,1.4,0,2.9,1.3,4.4,2.1Zm33.9,11.1a2.44,2.44,0,0,1,.8,1.5,2.55,2.55,0,0,1-1,.7,22,22,0,0,1-1.8-1.4c1-.4,1.7-.9,2-.8m9.6,52.1V132l-16.7-2.2v61.6c-7.2-21.5-14.5-42.9-21.7-64.3-7.2-.8-10.8-1.3-18.1-2.1v100.4c6.7.7,10,1.1,16.7,1.9v-61.5Q769.55,198,780.3,230c7.3.9,10.9,1.4,18.1,2.4"/></g><g class="cls-2"><path class="cls-3" d="M501.8,369.45v-24.3q-39.75-.45-79.4.1v24.3c10.9-.2,16.3-.2,27.1-.3v125.8c10-.1,15.1-.1,25.2,0V369.25c10.9,0,16.2.1,27.1.2"/></g><g class="cls-2"><path class="cls-3" d="M816,225.55a6.28,6.28,0,0,1-.3-1.9c0-.2.7-.3,1.1-.5a12.09,12.09,0,0,1,.5,1.8c-.4.2-.9.4-1.3.6Zm43.6-5.6-1-1a8.79,8.79,0,0,0,1-.6v-77.4c-6.7-1.1-10-1.6-16.7-2.6v82.3l-1.8,1.6c-5.1-.8-7.7-1.1-12.9-1.9l-1.8-2.2v-82.3c-6.7-1-10-1.4-16.7-2.4v92.2l8.2,9.3c11.2,1.6,22.4,3.2,33.6,5l8.1-6.9c0-4.3,0-8.7,0-13.1"/></g><g class="cls-2"><path class="cls-3" d="M410.3,437.35c.1,0,.3.5.3.6a6.47,6.47,0,0,1-.9.8l-.5-1.1a2,2,0,0,1,1.1-.3m-35,2.6,10.5-50.9,10.4,50.2c-8.3.3-12.5.4-20.9.7Zm-1.8-93.3q-17.85,75.75-35.7,151.6c10.3-.5,15.4-.8,25.7-1.1l6.7-32.6c12.3-.5,18.5-.7,30.9-1l6.7,32.2,25.7-.5-35.6-149.3c-9.7.2-14.6.4-24.4.7"/></g><g class="cls-2"><path class="cls-3" d="M482.6,172.45l7-33.8,7,33.9c-5.7,0-8.4-.1-14-.1m-3-26a13,13,0,0,1-2.2-1.9c1-.7,1.9-1.6,2.1-1.4a4.53,4.53,0,0,1,1.5,2.1c.1.3-1.1,1.3-1.4,1.2m18.2-36.3c-6.6-.1-9.9-.1-16.4-.2l-23.9,100.3h17.2l2.9-14.1h-.1c-.5,0-.9-.7-1.9-1.6,1.1-.3,1.9-.5,2.5-.6l1.1-5.4c8.3,0,12.4.1,20.7.2l4.5,21.7c6.9.1,10.3.2,17.2.3q-11.85-50.1-23.8-100.6"/></g><g class="cls-2"><path class="cls-3" d="M732.6,140.35v-16.2c-16-1.7-32-3.2-48.1-4.7v100.4c16,1.4,32.1,3,48.1,4.7v-16.3c-10.4-1.1-20.8-2.2-31.3-3.1v-26.7c9.3.9,13.9,1.3,23.2,2.3v-16.3c-9.3-1-13.9-1.4-23.2-2.3v-25c10.4,1,20.8,2.1,31.3,3.2"/></g><g class="cls-2"><path class="cls-3" d="M835.1,316.95a7.5,7.5,0,0,1-2,1c0-1-.1-1.9.2-2.2s1.1-.2,1.7,0a2.46,2.46,0,0,1,.1,1.2Zm-3.1-53.3-5.6-7.2c6.4-.4,6.4-.4,5.6,7.2Zm-15.6,49.2,7.1-33.6,7.1,35.7c-5.7-.8-8.5-1.3-14.2-2.1m17.2-14.5a10.9,10.9,0,0,1,1.1.6l-.9.9c-.2-.3-.5-.7-.7-1a1.21,1.21,0,0,1,.5-.5m-1.8-47.2c-6.7-1-10-1.5-16.7-2.4Q803,298.4,790.9,348.15c7,.9,10.5,1.4,17.5,2.3L813,329c8.4,1.1,12.6,1.8,21,3l4.6,22.8c7,1,10.5,1.6,17.5,2.7q-12.15-53-24.3-106.3"/></g><g class="cls-2"><path class="cls-3" d="M537.9,345.95v150.1c10,.3,15.1.5,25.1.8v-150c-10-.4-15-.5-25.1-.9"/></g><g class="cls-2"><path class="cls-3" d="M735,366.45c.4-1.3,2-2.2,3-3.3.8,1.1,2.1,2.2,2.2,3.4,0,1-1.4,2.1-2.6,3.7-1.3-1.6-2.9-3-2.6-3.8Zm-62.4,137.1c24,2,47.9,4.4,71.9,7v-24.3q-23.4-2.55-46.8-4.8v-6.2a5.85,5.85,0,0,1-1.9.4c-.2-3.8-.1-5.1,1.9-5.4v-28.6c11.6,1.1,23.2,2.2,34.8,3.5v-24.3c-11.6-1.2-23.1-2.4-34.7-3.5v-37.4q23.4,2.25,46.8,4.8v-24.3q-35.85-3.9-71.9-7Z"/></g><g class="cls-2"><path class="cls-3" d="M331.8,205.65v-46.8c-10,.5-15,.8-25,1.4v16.7l8.2-.5v20.1l-1.9,2.1c-5.6.3-8.3.5-13.9.9l-2-1.9v-64.1l2-2.1c5.6-.4,8.3-.5,13.9-.9l1.9,1.9v11c6.7-.4,10-.6,16.8-.9v-20.9l-8.2-7.7c-11.7.7-23.4,1.4-35.1,2.2l-8.2,8.8v84l8.2,7.6c11.7-.8,23.4-1.6,35.1-2.2Z"/></g><g class="cls-2"><path class="cls-3" d="M233.1,328.25c-.1,0-.5-.4-.5-.4a8.65,8.65,0,0,1,.7-1l.8.9a4.61,4.61,0,0,1-1,.5Zm-25.6-26.7,7.2-35.3,7.2,33.9c-5.8.6-8.7.8-14.4,1.4Zm33.8,14.4-2.4-3.3c.6-.3,1.5-1,1.6-.9a12.67,12.67,0,0,1,1.1,1.3c-6.2-25.6-12.4-51.3-18.6-76.9-6.7.6-10,1-16.7,1.7L182,343.15c7-.8,10.5-1.2,17.5-1.9l4.6-22.6c8.4-.9,12.6-1.3,21.1-2.1l4.6,21.7c7-.7,10.5-1,17.6-1.6l-5.1-21.2Z"/></g><g class="cls-2"><path class="cls-3" d="M602,184.75c5.7,2.4,5.7,2.4,6.4,6.3-3.8.1-5-2.2-6.4-6.3m54.5,32.8c6.7.5,10,.8,16.8,1.3v-26.4l-.9,1.2-2.5-2.2,2.9-3.1.5.5v-70.3c-8.3-.7-12.5-1-20.9-1.6q-8.25,23.1-16.6,46.2c-5.5-16.2-11-32.3-16.5-48.5-8.4-.5-12.5-.7-20.9-1.2v100.4c6.7.4,10,.5,16.8.9v-67.8c5.4,15.8,10.9,31.5,16.3,47.3l8.7.6,16.3-45q0,33.75,0,67.7"/></g><g class="cls-2"><path class="cls-3" d="M569.5,271.95a10,10,0,0,1-1.9-2.2c-.1-.3,1-1.5,1.3-1.4a4.26,4.26,0,0,1,2,1.5c.1.2-.7,1.1-1.4,2.1Zm-24.1,53.2a8.45,8.45,0,0,1-.5-1.7c0-.2.8-.7,1.1-.6.5.2.8.8,1.5,1.5Zm-15.8-39.3c-.4,0-.9-.9-1.3-1.4a7.71,7.71,0,0,1,2.1-1.4c.4-.1,1,.8,2,1.7a10.85,10.85,0,0,1-2.8,1.1Zm70.2,26c.1,0,.6.2.5.3a3.58,3.58,0,0,1-.4,1.1l-1.1-.6a3.92,3.92,0,0,1,1-.8Zm18-82.8-17.5-1-3.2,18.4,1.4-.5c.4.9.8,1.4.7,1.7-.6,1.9-1.5,2.7-2.7,2.5l-8.9,51.4-12.3-74.7c-7.6-.3-11.4-.5-18.9-.8l-6.5,38.7c2.6,1.1,3.1,3.3,3,6.2l-4.2,1.1-4.6,27.8-12.7-74.5c-7-.2-10.5-.3-17.5-.4q9.9,51.6,19.6,103.1c8.7.2,13,.4,21.7.7l10.7-70.1,10.7,71,21.7,1c6.4-33.9,13-67.8,19.5-101.6"/></g><g class="cls-2"><path class="cls-3" d="M627.6,475.75c-8.9-.6-13.4-.8-22.4-1.3V372.75c8.9.5,13.4.8,22.4,1.3l2.8,3.1v95.8Zm28.1-104.2.1-.1v-7.1c-4.9-5.3-7.4-7.9-12.3-13.1-21.2-1.4-42.5-2.7-63.7-3.7v150.1c21.3,1,42.5,2.3,63.7,3.7l12.3-11.3V371.75Z"/></g><g class="cls-2"><path class="cls-3" d="M258.2,503.55c24-1.9,48-3.6,72-4.9v-24.3c-15.6.9-31.2,1.9-46.9,3v-39.9c11.6-.8,23.2-1.6,34.8-2.2V411c-11.6.7-23.2,1.4-34.8,2.2v-37.3c5.3-.4,10.7-.7,16-1.1l.2-.6.6.6c10-.7,20.1-1.3,30.1-1.8v-24.3q-36,2.1-72,4.9v150Z"/></g><g class="cls-2"><path class="cls-3" d="M765,344.95V242.25l-17.1-2v42.4c-7.7-.9-11.6-1.3-19.3-2.1v-42.4c-6.9-.7-10.3-1.1-17.1-1.7v35.2a6.8,6.8,0,0,1,2,.2,5,5,0,0,1-2,3.3v63.9c6.9.7,10.3,1,17.1,1.7v-43.6c7.7.8,11.6,1.2,19.3,2.1v43.7l17.1,2"/></g><g class="cls-2"><path class="cls-3" d="M258,307.45c-.3,0-.6-.6-.8-.9l1-.9,1.1,1.2c-.5.2-.9.6-1.3.6m13.7-58.8c6.6-.5,9.9-.8,16.5-1.2l1.9,1.8v25.4l-1.9,2.2c-6.6.5-9.9.7-16.5,1.2Zm21.7,24.1a6.47,6.47,0,0,1,.9.8l-1,.6a4.87,4.87,0,0,1-.4-1.1,2.19,2.19,0,0,1,.5-.3m-21.7,43.9-.3-.7.3-.2v-21.2l10.3-.8,8.4,39.4c6.8-.5,10.1-.7,16.9-1.1l-8.4-39.5,8.4-8.9v-46l-8.4-7.8q-22.2,1.5-44.4,3.3v102.7c6.9-.6,10.3-.9,17.2-1.4Z"/></g></svg>