<?xml version="1.0" encoding="utf-8"?>
<!-- Generator: Adobe Illustrator 20.1.0, SVG Export Plug-In . SVG Version: 6.00 Build 0)  -->
<svg version="1.1" id="Layer_1" xmlns="https://www.w3.org/2000/svg" xmlns:xlink="https://www.w3.org/1999/xlink" x="0px" y="0px"
	 viewBox="0 0 256.5 272.8" style="enable-background:new 0 0 256.5 272.8;" xml:space="preserve">
<style type="text/css">
	.st0{clip-path:url(#SVGID_2_);fill:#FFF7E5;}
</style>
<title>BUCK_Mobile_Headline_Home</title>
<g>
	<defs>
		<rect id="SVGID_1_" width="256.5" height="272.8"/>
	</defs>
	<clipPath id="SVGID_2_">
		<use xlink:href="#SVGID_1_"  style="overflow:visible;"/>
	</clipPath>
	<path class="st0" d="M233,239.7c-0.1-0.3-0.2-0.6-0.2-0.9c0-0.1,0.5-0.3,0.5-0.2c0.2,0.2,0.3,0.5,0.4,0.8
		C233.5,239.5,233.3,239.6,233,239.7 M231.4,258.9c-0.4,0.4-0.6,0.6-1,1c-3.3-0.4-4.9-0.6-8.2-1v-37.8c3.3,0.4,4.9,0.6,8.2,1
		c0.4,0.5,0.6,0.7,1,1.2C231.4,235.2,231.4,247.1,231.4,258.9 M216.8,251.5c0-0.4-0.1-0.7-0.1-1.1c1-1.2,1.9-0.9,3.4,0.9
		C218.5,251.4,217.7,251.5,216.8,251.5 M212.9,211.3V267c9.3,1,14,1.5,23.3,2.7c1.8-1.6,2.7-2.4,4.5-3.9c0-15.6,0-31.1,0-46.7
		c-1.8-2.1-2.7-3.1-4.5-5.2C226.9,212.8,222.2,212.2,212.9,211.3"/>
	<path class="st0" d="M44.6,14.5c0.4-0.5,0.6-0.7,1-1.1c2.8-0.3,4.2-0.4,7.1-0.7c0.4,0.4,0.7,0.6,1.1,0.9v27.1
		c0.6,0.2,1.2,0.5,1.9,1c-0.7,0.4-1.3,0.7-1.9,0.8v7.3c-0.4,0.5-0.7,0.7-1.1,1.1c-2.8,0.3-4.2,0.4-7.1,0.7c-0.4-0.4-0.6-0.6-1-0.9
		V14.5z M53.5,52.9c-0.1-0.1-0.3-0.3-0.4-0.4c0.2-0.1,0.4-0.2,0.5-0.2c0,0.2,0.1,0.4,0.1,0.5C53.8,52.8,53.6,53,53.5,52.9
		 M35.3,57.2c1.8,1.6,2.7,2.5,4.6,4.1c7.5-0.8,11.3-1.2,18.8-1.8c1.8-2,2.7-3,4.6-5c0-15.8,0-31.6,0-47.4c-1.8-1.7-2.7-2.6-4.6-4.2
		c-7.5,0.6-11.3,1-18.8,1.8c-1.8,2-2.7,3.1-4.6,5.1V57.2z"/>
	<path class="st0" d="M241.2,33.8c-3.6-0.5-5.4-0.8-8.9-1.3V16.4c3.6,0.5,5.4,0.7,8.9,1.3c0.4,0.5,0.6,0.7,1,1.2c0,5.6,0,8.4,0,14
		C241.8,33.2,241.6,33.4,241.2,33.8 M225,31.1c-0.6-0.7-0.9-1-0.9-1.2c0.1-0.2,0.4-0.6,0.7-0.6c0.2,0,0.6,0.3,0.6,0.6
		C225.5,30.3,225.2,30.6,225,31.1 M247,43.8c1.8-1.6,2.7-2.4,4.5-3.9c0-10.1,0-15.2,0-25.3c-1.8-2.1-2.7-3.2-4.5-5.3
		c-9.6-1.5-14.4-2.1-24-3.3c0,18.9,0,37.7,0,56.6c3.7,0.5,5.6,0.7,9.3,1.2V41.7c2.2,0.3,3.3,0.5,5.6,0.8c1.8,9.1,2.7,13.6,4.5,22.7
		c3.7,0.5,5.5,0.8,9.1,1.4C249.7,57.5,248.8,52.9,247,43.8"/>
	<path class="st0" d="M14.4,259.7c0,0.2,0,0.4,0.1,0.5c-0.6,0.1-1.2,0.2-1.7,0.3c0-0.3,0-0.6-0.1-0.9H14.4z M20.5,221.2
		c0,0,0.3,0.3,0.5,0.5c-0.3,0.2-0.5,0.4-0.8,0.4c-0.1,0-0.3-0.3-0.4-0.4C20,221.6,20.2,221.3,20.5,221.2 M0,226.3
		c3.9-0.6,5.9-0.9,9.9-1.5v46.7c3.7-0.5,5.5-0.8,9.2-1.3v-46.7c4-0.5,5.9-0.8,9.9-1.3v-9c-11.6,1.4-17.4,2.3-28.9,4.1V226.3z"/>
	<path class="st0" d="M34.5,230.2c-0.1-0.3-0.2-0.6-0.2-0.8c0-0.1,0.4-0.3,0.5-0.3c0.2,0.1,0.4,0.4,0.7,0.7
		C35.1,230,34.8,230.1,34.5,230.2 M34.5,233.5c-0.2-0.5-0.4-0.7-0.5-1c0.3-0.1,0.5-0.3,0.8-0.3c0.1,0,0.4,0.4,0.3,0.5
		C35,232.9,34.8,233.1,34.5,233.5 M60.8,223.7c0,0,0.3,0.1,0.3,0.2c0,0.2-0.1,0.4-0.2,0.6c-0.2-0.1-0.3-0.2-0.5-0.3
		C60.5,224,60.7,223.8,60.8,223.7 M61.7,265.6c0-18.6,0-37.2,0-55.8c-3.7,0.3-5.5,0.5-9.2,0.8c0,9.2,0,13.8,0,23
		c-4.1,0.4-6.2,0.6-10.4,1c0-9.2,0-13.8,0-23c-3.7,0.4-5.5,0.6-9.2,1c0,18.6,0,37.2,0,55.8c3.7-0.4,5.5-0.6,9.2-1v-23.7
		c4.1-0.4,6.2-0.7,10.4-1v23.7C56.2,266,58,265.9,61.7,265.6"/>
	<path class="st0" d="M143.4,91c0.7,0.1,1.3,0.2,1.9,0.4c0,0-0.1,0.7-0.2,1.1c-0.7-0.1-1.3-0.3-2-0.4
		C143.3,91.7,143.3,91.4,143.4,91 M124.2,66.8c4,11.5,8,23,12,34.5v18.4c3.5,0,5.2,0.1,8.7,0.2v-18.4c4-11.4,8-22.7,12-34.1
		c-3.8-0.1-5.7-0.2-9.5-0.3c-2.7,8.8-4.1,13.2-6.8,22c-2.7-8.9-4.1-13.4-6.8-22.3C129.9,66.8,128,66.8,124.2,66.8"/>
	<path class="st0" d="M24.3,14.7c-0.2-0.1-0.3-0.2-0.5-0.3c0.1-0.1,0.2-0.3,0.4-0.4c0,0,0.2,0.1,0.2,0.1
		C24.5,14.3,24.4,14.5,24.3,14.7 M5.2,62.1c1.4-0.6,2.4-1,3.7-1.6C8,63.4,8,63.4,5.2,62.1 M2.2,50.4c0,0-0.2-0.2-0.2-0.2
		c0.1-0.2,0.2-0.3,0.3-0.5c0.1,0.1,0.2,0.3,0.4,0.4C2.5,50.2,2.4,50.4,2.2,50.4 M29.8,10.5C28,8.8,27.1,8,25.3,6.4
		C17.8,7.4,14,7.9,6.5,9c-1.6,1.8-2.5,2.9-3.9,4.5C2.7,13.6,2.9,13.8,3,14c-0.2,0.2-0.4,0.4-0.7,0.6c-0.1-0.1-0.2-0.2-0.3-0.3
		c0,0,0,0.1-0.1,0.1v47.4c1.8,1.6,2.7,2.3,4.5,3.9C14,64.5,17.8,64,25.3,63c1.8-2.1,2.7-3.1,4.5-5.2V46.2c-3.7,0.5-5.6,0.7-9.3,1.2
		v6c-0.4,0.5-0.7,0.8-1.1,1.3c-2.8,0.4-4.2,0.6-7,1c-0.4-0.4-0.7-0.6-1.1-1c0-12,0-23.9,0-35.9c0.4-0.5,0.7-0.8,1.1-1.3
		c2.8-0.4,4.2-0.6,7-1c0.4,0.4,0.7,0.6,1.1,1c0,2.4,0,3.6,0,6c3.7-0.5,5.6-0.7,9.3-1.2V10.5z"/>
	<path class="st0" d="M13.3,100.5c0.2,0.1,0.3,0.5,0.4,0.8c0,0.1-0.4,0.3-0.5,0.3c-0.3-0.1-0.4-0.4-0.8-0.7
		C12.8,100.7,13.2,100.4,13.3,100.5 M18,127V82.7c3.7-0.5,5.6-0.8,9.4-1.2V73c-11,1.4-16.5,2.2-27.4,3.9v8.6
		c3.7-0.6,5.6-0.9,9.4-1.4v44.3C12.8,127.8,14.6,127.5,18,127"/>
	<path class="st0" d="M68.5,92.5c0.2,0.1,0.3,0.5,0.4,0.8c0,0.1-0.4,0.4-0.5,0.3c-0.3-0.1-0.5-0.4-0.9-0.7
		C68,92.7,68.4,92.4,68.5,92.5 M71.4,116c0,0.2,0.1,0.4,0.1,0.5c0,0-0.2,0.2-0.3,0.1c-0.1-0.1-0.3-0.3-0.4-0.4
		C71,116.1,71.2,116,71.4,116 M67.1,102.3c-0.2-0.1-0.3-0.2-0.5-0.3c0.1-0.1,0.3-0.2,0.4-0.4c0.1,0.2,0.2,0.3,0.3,0.5
		C67.3,102.1,67.1,102.3,67.1,102.3 M64.3,76.5c1.1-0.5,2.2-0.6,3.6,0.2c-0.6,2.4-1.5,3.2-3.6,2.8v42.6c3.5-0.3,5.2-0.4,8.7-0.6
		V68.6c-3.5,0.2-5.2,0.4-8.7,0.6V76.5z"/>
	<path class="st0" d="M179.6,24.2c0.6-1.1,1.2-2.2,2.2-4c0.6,1.7,0.9,2.5,1.4,3.7c-1.2,0.3-2.1,0.6-3,0.8
		C180,24.6,179.8,24.4,179.6,24.2 M175.2,47.8c-0.4,0.4-0.6,0.6-1,1.1c-3.3-0.2-5-0.3-8.3-0.5V33.5c0-0.2,0-0.3,0-0.5V10
		c3.3,0.2,5,0.3,8.3,0.5c0.4,0.5,0.6,0.7,1,1.2V47.8z M184.7,54.2V6.8c-1.8-2-2.7-3-4.6-4.9c-9.5-0.6-14.2-0.9-23.7-1.3v56.6
		c9.5,0.4,14.2,0.6,23.7,1.3C182,56.7,182.9,55.9,184.7,54.2"/>
	<path class="st0" d="M130.5,56.6c1.8-1.8,2.7-2.8,4.6-4.6V27.9c-1.8-1.9-2.7-2.8-4.6-4.7c-5.3,0-7.9,0-13.1,0
		c-0.4-0.4-0.7-0.7-1.1-1.1V10.4c0.4-0.5,0.7-0.7,1.1-1.1c2.9,0,4.3,0,7.2,0c0.4,0.4,0.7,0.7,1.1,1.1v6c3.8,0,5.7,0,9.4,0V4.7
		c-1.8-1.9-2.7-2.8-4.6-4.7c-7.6,0-11.4,0-19,0.1c-1.8,1.9-2.7,2.8-4.6,4.7c0,9.3,0,13.9,0,23.2c1.8,1.8,2.7,2.7,4.6,4.5
		c5.2-0.1,7.8-0.1,13.1-0.1c0.4,0.4,0.7,0.7,1.1,1.1v12.8c-0.4,0.4-0.7,0.7-1.1,1.1c-2.9,0-4.3,0-7.2,0c-0.4-0.4-0.7-0.7-1.1-1.1v-6
		c-3.7,0-5.6,0.1-9.4,0.2v11.7c1.8,1.8,2.7,2.7,4.6,4.5C119,56.6,122.9,56.6,130.5,56.6"/>
	<path class="st0" d="M91.7,35.5c-4-11.4-8.1-22.7-12.2-34.1c-4,0.2-6.1,0.4-10.1,0.7v56.6c3.7-0.3,5.6-0.4,9.4-0.6
		c0-11.6,0-23.1,0-34.7C82.9,34.7,87,46,91,57.4c4-0.2,6.1-0.3,10.1-0.4V0.4c-3.7,0.1-5.6,0.2-9.4,0.3
		C91.7,12.3,91.7,23.9,91.7,35.5"/>
	<path class="st0" d="M143.7,197.2c-0.2-0.1-0.3-0.2-0.4-0.4c0,0,0.1-0.3,0.1-0.3c0.2,0,0.4,0.1,0.5,0.1
		C143.8,196.8,143.8,197,143.7,197.2 M132.2,155.3H129c0.8-0.9,1.2-1.9,1.7-1.9c0.7,0,1.4,0.6,2.1,1
		C132.5,154.7,132.4,155,132.2,155.3 M155.6,186.5c-8-0.3-12-0.4-20.1-0.5v-50.5c-0.2-0.1-0.3-0.2-0.5-0.4c0.2-0.1,0.3-0.3,0.5-0.4
		v-7.2c-4.7-0.1-7-0.1-11.6-0.1v5.2c0.8-0.7,1.5-1.3,2.2-1.9c0.7,2.3,0.3,3.2-2.2,3.4v63.1c10.6-0.1,21.1,0.1,31.7,0.5V186.5z"/>
	<path class="st0" d="M147.5,12.4c0.3,0.3,0.6,0.6,0.7,1c0.1,0.1-0.4,0.4-0.7,0.9c-0.3-0.6-0.6-0.9-0.6-1.3
		C146.8,12.9,147.2,12.6,147.5,12.4 M140.8,56.8c3.7,0.1,5.6,0.1,9.4,0.2V0.4c-3.7-0.1-5.6-0.2-9.4-0.2V56.8z"/>
	<path class="st0" d="M102.3,71.9c0.1,0,0.3,0.1,0.9,0.5c-0.4,0.2-0.7,0.4-1,0.4c-0.1,0-0.3-0.3-0.3-0.4
		C102,72.2,102.2,71.9,102.3,71.9 M100.4,120.1c1.7-1.8,2.6-2.7,4.3-4.4V93.1c-1.7-1.7-2.6-2.5-4.3-4.2c-4.9,0.2-7.4,0.3-12.3,0.5
		c-0.4-0.4-0.6-0.6-1-1v-11c0.4-0.4,0.6-0.7,1-1.1c2.7-0.1,4-0.2,6.7-0.3c0.4,0.4,0.6,0.6,1,1v5.6c3.5-0.1,5.3-0.2,8.8-0.3V71.4
		c-1.7-1.7-2.6-2.5-4.3-4.2c-7.1,0.2-10.7,0.4-17.8,0.8c-1.7,1.8-2.6,2.7-4.3,4.6v21.6c1.7,1.6,2.6,2.4,4.3,4.1
		c4.9-0.3,7.3-0.4,12.2-0.6c0.4,0.4,0.6,0.6,1,1v12c-0.4,0.4-0.6,0.6-1,1.1c-2.7,0.1-4,0.2-6.7,0.3c-0.4-0.4-0.6-0.6-1-1v-5.6
		c-3.4,0.2-5.1,0.3-8.3,0.5c0.1,0.1,0.1,0.1,0.1,0.2c0.1,0.2-0.1,0.5-0.2,1.2c-0.1-0.1-0.2-0.3-0.3-0.4v10c1.7,1.6,2.6,2.4,4.3,4.1
		C89.8,120.5,93.3,120.3,100.4,120.1"/>
	<path class="st0" d="M198.7,29.7c-0.3-0.4-0.5-0.7-0.6-0.9c0.3-0.2,0.7-0.5,1.1-0.7c0.1,0,0.6,0.6,0.5,0.6
		C199.4,29.1,199.1,29.3,198.7,29.7 M197.3,14.3c0.4-0.2,0.7-0.3,1.1-0.5c0.1,0.3,0.4,0.6,0.3,0.9c-0.1,0.2-0.5,0.3-0.9,0.5
		C197.7,14.8,197.5,14.5,197.3,14.3 M206.2,5.8c0.1,0,0.5,0.2,0.5,0.3c0,0.3-0.1,0.5-0.2,1c-0.4-0.3-0.7-0.5-0.7-0.7
		C205.7,6.2,206,5.9,206.2,5.8 M217.7,52.8c-7-0.8-10.4-1.2-17.4-1.8v-15c5.2,0.5,7.8,0.7,12.9,1.3c0-3.7,0-5.5,0-9.2
		c-5.2-0.6-7.8-0.8-12.9-1.3V12.6c7,0.7,10.5,1,17.4,1.8V5.3c-10.7-1.2-16-1.8-26.8-2.6c0,18.9,0,37.7,0,56.6
		c10.7,0.9,16.1,1.4,26.8,2.6V52.8z"/>
	<path class="st0" d="M34.5,102.1c-0.2-0.1-0.4-0.1-0.5-0.2c0.1-0.5,0.2-1,0.3-1.4c0.3,0.1,0.5,0.2,0.8,0.3
		C34.9,101.2,34.7,101.6,34.5,102.1 M54.1,98.1c0.2,0.2,0.6,0.4,0.6,0.6c0,0.4-0.3,0.8-0.6,1.3c-0.4-0.5-0.7-0.8-0.7-0.9
		C53.6,98.8,53.9,98.5,54.1,98.1 M39.9,101.9c3.9-0.4,5.9-0.6,9.8-1v15.3c1.6-0.3,2,0.9,2.9,2.5c-1.6,0-2.4-0.4-2.9-1.1v5.8
		c3.5-0.3,5.2-0.5,8.7-0.8v-8.8c-0.2,0.1-0.3,0.2-0.4,0.1c-0.2,0-0.4-0.4-0.6-0.6c0.2-0.1,0.3-0.4,0.5-0.3c0.1,0,0.3,0.1,0.4,0.2
		V69.7c-3.5,0.3-5.2,0.5-8.7,0.8v21.8c-3.9,0.4-5.9,0.6-9.8,1V71.5c-3.5,0.4-5.2,0.6-8.7,1v52.9c3.5-0.4,5.2-0.6,8.7-1V101.9z"/>
	<path class="st0" d="M36.3,182.3c-4.6,0.5-6.9,0.8-11.5,1.4v7.3c-0.5,0.6-0.8,0.9-1.4,1.6c-3.5,0.5-5.2,0.7-8.7,1.2
		c-0.5-0.5-0.8-0.7-1.4-1.2v-44.2c0.5-0.6,0.8-0.9,1.4-1.6c3.5-0.5,5.2-0.7,8.7-1.2c0.5,0.5,0.8,0.7,1.4,1.2v7.3
		c4.6-0.6,6.9-0.9,11.5-1.4v-14.4c-2.2-2-3.4-3-5.6-5c-9.3,1.1-13.9,1.7-23.1,3.1c-2.2,2.6-3.4,3.9-5.6,6.5v0.3
		c0.3-0.3,0.6-0.5,0.7-0.5c0.3,0.3,0.6,0.6,0.7,1c0,0.1-0.5,0.6-0.7,0.6c-0.3-0.1-0.5-0.3-0.7-0.6v23.3c0.1,0,0.2,0,0.2,0
		c0.1,0,0.4,0.6,0.3,0.7c-0.1,0.1-0.3,0.3-0.5,0.3v33.2c2.2,1.9,3.3,2.9,5.6,4.8c9.2-1.4,13.8-2,23.1-3.1c2.2-2.5,3.4-3.8,5.6-6.3
		V182.3z"/>
	<path class="st0" d="M174.5,226.2c-0.2,0.2-0.5,0.3-1,0.5c0-0.5-0.1-0.9,0.1-1.1c0.2-0.1,0.6-0.1,0.8,0
		C174.5,225.6,174.6,226.1,174.5,226.2 M173.8,217.1c0.2,0.1,0.3,0.2,0.5,0.3c-0.1,0.1-0.3,0.3-0.4,0.4c-0.1-0.2-0.2-0.3-0.3-0.5
		C173.5,217.3,173.7,217.1,173.8,217.1 M177.4,208.4c-3.7-0.2-5.5-0.3-9.2-0.5v55.8c3.7,0.2,5.5,0.3,9.2,0.5
		C177.4,245.6,177.4,227,177.4,208.4"/>
	<path class="st0" d="M208.9,257.6c-6.4-0.6-9.6-0.9-16-1.4v-46.7c-3.7-0.3-5.6-0.4-9.3-0.7c0,18.6,0,37.2,0,55.8
		c10.1,0.7,15.2,1.1,25.3,2.1V257.6z"/>
	<path class="st0" d="M93.4,166.9c-0.4-0.4-0.8-0.7-1.2-1.1c0.5-0.5,0.9-1,1.4-1.5c0.3,0.3,0.7,0.6,1,0.9
		C94.2,165.8,93.8,166.4,93.4,166.9 M118.9,186c-8,0.1-12,0.2-20.1,0.4c0-19.5,0-39,0-58.4c-4.6,0.2-7,0.3-11.6,0.5
		c0,23.2,0,46.5,0,69.7c10.5-0.5,21.1-0.8,31.7-0.9V186z"/>
	<path class="st0" d="M176.8,111.8c-0.4,0.4-0.6,0.5-1,0.9c-2.6-0.2-4-0.2-6.6-0.4c-0.4-0.4-0.6-0.6-1-1c0-11.2,0-22.5,0-33.7
		c0.4-0.4,0.6-0.6,1-0.9c2.6,0.1,4,0.2,6.6,0.4c0.4,0.4,0.6,0.6,1,1V111.8z M172.5,72.6c0.1,0,0.4,0.3,0.3,0.4
		c-0.1,0.3-0.3,0.5-0.6,0.9c-0.2-0.4-0.5-0.7-0.4-0.9C171.9,72.8,172.2,72.6,172.5,72.6 M185.6,117.6V73.3c-1.7-1.9-2.6-2.8-4.3-4.6
		c-7-0.5-10.6-0.7-17.6-1c-1.7,1.6-2.6,2.5-4.3,4.1v44.2c1.7,1.8,2.6,2.7,4.3,4.5c7,0.3,10.6,0.5,17.6,1
		C183,120,183.9,119.2,185.6,117.6"/>
	<path class="st0" d="M217.5,72.1c-3.5-0.4-5.2-0.6-8.7-1v43.3c-0.4,0.3-0.6,0.5-1,0.9c-2.7-0.3-4-0.4-6.7-0.7
		c-0.4-0.4-0.6-0.6-1-1.1V70.3c-3.5-0.3-5.2-0.5-8.7-0.8V118c1.7,1.9,2.6,2.8,4.3,4.7c7,0.6,10.5,1,17.6,1.7
		c1.7-1.5,2.6-2.3,4.2-3.8V72.1z"/>
	<path class="st0" d="M200.7,161.7c0.8-0.2,1.6-0.3,2.8-0.6c-0.8,2-1.6,2.4-2.7,1.5C200.8,162.3,200.8,162,200.7,161.7 M196,187.8
		c-0.5,0.5-0.8,0.7-1.4,1.2c-3.5-0.3-5.2-0.4-8.7-0.7c-0.5-0.6-0.8-0.8-1.3-1.4v-44.5c0.5-0.5,0.8-0.7,1.3-1.2
		c3.5,0.3,5.2,0.4,8.7,0.7c0.5,0.6,0.8,0.8,1.4,1.4v7.5c0.4-0.2,0.8-0.4,1.2-0.6c0.1,0.2,0.2,0.4,0.3,0.5c-0.5,0.3-1,0.5-1.5,0.8
		V187.8z M182.5,180.2c-0.5-0.2-0.8-0.6-1.4-1.2c0.6-0.4,1.1-0.8,1.3-0.7c0.4,0.3,0.7,0.8,1,1.2
		C183.3,179.6,182.6,180.3,182.5,180.2 M192.1,134.6c0.2,0.2,0.4,0.4,0.7,0.8c-0.4,0.1-0.7,0.3-0.9,0.3c-0.1,0-0.4-0.4-0.3-0.5
		C191.7,134.9,191.9,134.8,192.1,134.6 M205.8,169c-0.1,0.2-0.2,0.3-0.3,0.5c-0.8-0.3-1.5-0.5-2.7-0.9c0.6-0.4,0.9-0.7,1.1-0.7
		C204.6,168.3,205.2,168.7,205.8,169 M207.6,195.8c0-19.4,0-38.9,0-58.3c-2.2-2.5-3.4-3.8-5.6-6.2c-9.3-0.9-13.9-1.3-23.2-1.9
		c-2.2,2.1-3.4,3.2-5.6,5.3V193c2.2,2.4,3.4,3.6,5.6,6c9.3,0.6,13.9,1,23.2,1.9C204.2,198.8,205.3,197.8,207.6,195.8"/>
	<path class="st0" d="M240.3,98.8c-3.3-0.5-5-0.7-8.3-1.2V82.5c3.3,0.4,5,0.7,8.3,1.2c0.4,0.4,0.6,0.7,1,1.1c0,5.2,0,7.8,0,13.1
		C240.9,98.2,240.7,98.4,240.3,98.8 M223.3,72.8v52.9c3.5,0.4,5.2,0.7,8.7,1.1v-20.6c2.1,0.3,3.1,0.4,5.2,0.7
		c1.7,8.5,2.5,12.7,4.2,21.2c3.4,0.5,5.1,0.8,8.5,1.3c-1.7-8.5-2.5-12.7-4.2-21.2c1.7-1.5,2.5-2.2,4.2-3.7c0-9.5,0-14.2,0-23.6
		c-1.7-2-2.5-3-4.2-5C236.8,74.5,232.3,73.9,223.3,72.8"/>
	<path class="st0" d="M233.6,173.9c0.2,0.1,0.3,0.2,0.4,0.4c-0.2,0.1-0.3,0.2-0.5,0.3c-0.1-0.2-0.2-0.3-0.2-0.5
		C233.4,174,233.6,173.9,233.6,173.9 M248.1,148.2V137c-10.9-1.7-21.9-3.2-32.8-4.4c0,23.2,0,46.5,0,69.7c4.6,0.5,6.9,0.8,11.5,1.4
		v-29.3c6.3,0.8,9.5,1.2,15.8,2.2v-11.3c-6.3-0.9-9.5-1.4-15.8-2.2v-17.9C235.3,146.3,239.5,146.9,248.1,148.2"/>
	<path class="st0" d="M71.6,210.4c-0.3-0.2-0.6-0.3-0.6-0.4c0.1-0.3,0.3-0.5,0.4-0.8c0.2,0.1,0.5,0.2,0.5,0.3
		C71.9,209.8,71.8,210.1,71.6,210.4 M83.7,214.9c0.3,0.1,0.6,0.6,0.9,0.9c-0.3,0.2-0.5,0.6-0.8,0.6c-0.4,0-0.8-0.3-1.6-0.7
		C82.9,215.2,83.3,214.8,83.7,214.9 M94.3,254.5c-6.9,0.3-10.3,0.5-17.2,0.9v-14.8c5.1-0.3,7.7-0.5,12.8-0.7v-9
		c-5.1,0.2-7.7,0.4-12.8,0.7v-13.9c6.9-0.4,10.3-0.6,17.2-0.9v-9c-10.6,0.5-15.9,0.8-26.4,1.6v55.8c10.6-0.8,15.8-1.1,26.4-1.6
		V254.5z"/>
	<path class="st0" d="M74.9,171c0-0.1,0.2-0.3,0.3-0.4c0.2,0.1,0.3,0.3,0.5,0.4c-0.2,0.2-0.3,0.4-0.5,0.6
		C75.1,171.3,74.9,171.2,74.9,171 M68.5,164.9c-0.3-0.3-0.5-0.6-0.8-0.8c0.2-0.2,0.5-0.5,0.7-0.5c0.2,0,0.4,0.4,0.7,0.6
		C68.9,164.5,68.7,164.7,68.5,164.9 M55.6,174.1c1.9-9.6,2.9-14.3,4.8-23.9c1.9,9.2,2.9,13.9,4.8,23.1
		C61.4,173.6,59.5,173.7,55.6,174.1 M66,129.8c-4.5,0.3-6.7,0.5-11.2,0.9c-5.4,23.8-10.9,47.6-16.3,71.4c4.7-0.5,7.1-0.8,11.8-1.2
		c1.2-6.1,1.8-9.2,3.1-15.3c5.7-0.5,8.5-0.8,14.1-1.2c1.2,5.9,1.8,8.9,3.1,14.8c4.7-0.3,7.1-0.5,11.8-0.7
		C76.9,175.6,71.5,152.7,66,129.8"/>
	<path class="st0" d="M147.5,255c-0.1-0.1-0.3-0.3-0.4-0.4c0.2-0.1,0.3-0.2,0.5-0.3c0,0,0.2,0.2,0.2,0.2
		C147.7,254.6,147.6,254.8,147.5,255 M140.9,243.3c-0.4-0.3-0.7-0.8-1-1.3c0.4-0.2,0.8-0.7,1.1-0.5c0.4,0.2,0.8,0.7,1.4,1.4
		C141.7,243.1,141.1,243.4,140.9,243.3 M127.4,252.3c-0.6-0.8-1.4-1.5-1.3-1.9c0.2-0.6,0.9-1.1,1.5-1.7c0.4,0.6,1,1.1,1.1,1.7
		C128.7,251,128,251.5,127.4,252.3 M116.6,244.2c-0.3-0.1-0.5-0.4-0.9-0.7c0.4-0.2,0.8-0.5,0.9-0.4c0.2,0.1,0.3,0.5,0.4,0.8
		C117.1,243.9,116.7,244.2,116.6,244.2 M148.2,247.5c-2.2-13.5-4.4-26.9-6.6-40.4c-4.1-0.1-6.1-0.1-10.2-0.1
		c-2.2,13.4-4.4,26.9-6.6,40.3c-2.3-13.4-4.6-26.8-6.8-40.2c-3.7,0.1-5.6,0.1-9.4,0.2c3.5,18.5,7,37,10.5,55.6
		c4.6-0.1,7-0.1,11.6-0.1c1.9-12.8,3.8-25.5,5.7-38.3c1.9,12.8,3.8,25.6,5.7,38.4c4.6,0.1,7,0.1,11.6,0.3c3.5-18.5,7-36.9,10.5-55.4
		c-3.7-0.2-5.6-0.2-9.4-0.3C152.7,220.8,150.4,234.1,148.2,247.5"/>
	<path class="st0" d="M256.5,266.5c0,3.5-2.8,6.3-6.2,6.3s-6.2-2.8-6.2-6.3c0-3.5,2.8-6.3,6.2-6.3S256.5,263,256.5,266.5"/>
</g>
</svg>
