<?xml version="1.0" encoding="utf-8"?>
<!-- Generator: Adobe Illustrator 21.0.2, SVG Export Plug-In . SVG Version: 6.00 Build 0)  -->
<!DOCTYPE svg PUBLIC "-//W3C//DTD SVG 1.1//EN" "https://www.w3.org/Graphics/SVG/1.1/DTD/svg11.dtd">
<svg version="1.1" id="Layer_1" xmlns="https://www.w3.org/2000/svg" xmlns:xlink="https://www.w3.org/1999/xlink" x="0px" y="0px"
	 viewBox="0 0 950 635" style="enable-background:new 0 0 950 635;" xml:space="preserve">
<style type="text/css">
	.st0{fill:#FFF9E4;}
</style>
<path class="st0" d="M369.9,331.3c-0.5,0.3-1,0.6-1.5,0.8c-0.2,0-0.5-0.5-0.8-0.8c0.4-0.4,0.9-0.7,1.4-1
	C369.4,330.6,369.6,330.9,369.9,331.3L369.9,331.3z M359.5,274.5l-2.1,2.3c-7.3,0.4-11,0.5-18.3,0.9v-32.4c7.3-0.4,11-0.6,18.3-0.9
	l2.1,2V274.5z M335.2,228.8c-0.4,0.4-1,0.7-1.6,0.7c-0.5,0-0.8-0.7-1.8-1.5c0.9-0.3,1.8-0.5,2.8-0.6
	C334.9,227.5,335.4,228.6,335.2,228.8L335.2,228.8z M332.7,260.8c-0.4,0-0.9-0.6-1.6-1.1c0.7-0.5,1.1-1.1,1.6-1.1s0.8,0.7,1.2,1.1
	C333.6,260,333.2,260.7,332.7,260.8L332.7,260.8z M378.5,234.2l-9.3-8.9c-16.4,0.7-32.7,1.5-49.1,2.6v113.5c7.6-0.5,11.4-0.7,19-1.1
	v-44.2c4.5-0.2,6.8-0.4,11.4-0.6l9.3,43.7c7.5-0.4,11.2-0.5,18.7-0.8l-9.3-43.9l9.3-9.6V234.2z"/>
<path class="st0" d="M105.5,405.9l1.7-1c0.3,0.4,0.6,0.9,0.7,1.5c0,0.2-0.7,0.7-0.9,0.7c-0.6-0.3-1.1-0.6-1.6-1v1.9
	c9.8-1.6,19.6-3,29.4-4.5V541c10.9-1.6,16.4-2.3,27.3-3.8V399.7l8.5-1.1l0.4-1.6c0.6,0.6,1,1,1.3,1.4c6.4-0.8,12.8-1.6,19.2-2.4
	v-26.5c-28.8,3.5-57.5,7.5-86.2,12L105.5,405.9z"/>
<path class="st0" d="M335.1,107.4c0.4,0.1,0.8,0.2,1.1,0.3l-0.6,0.9c-0.3-0.2-0.6-0.5-0.8-0.8L335.1,107.4z M352.9,210.8l8.7-9.1
	v-45.2l-8.7-8.2c-10,0.5-14.9,0.8-24.9,1.3l-2.1-2v-22l2.1-2.2c5.4-0.3,8.1-0.5,13.6-0.8l2.1,2v11.2c7.1-0.4,10.7-0.6,17.9-0.9
	v-21.9l-8.7-8.2c-12,0.6-24,1.2-36.1,2l-8.7,9.2v43.3l8.7,8.1c9.9-0.6,14.8-0.9,24.7-1.4l2.1,2v24l-2.1,2.2
	c-5.4,0.3-8.1,0.4-13.6,0.8l-2.1-2.1v-11.3c-7.1,0.4-10.6,0.7-17.8,1.1v21.9l8.7,8.1C328.9,212.1,340.9,211.4,352.9,210.8"/>
<path class="st0" d="M118.9,222.3c-0.2-0.1-0.3-0.2-0.4-0.4c0.2-0.3,0.4-0.6,0.7-0.9l0.8,0.8C119.5,222,119.2,222.1,118.9,222.3
	 M162.3,152.6v-21.9l-8.6-7.5c-11.9,1.6-23.7,3.3-35.6,5.1l-8.6,10v88.7l8.6,7.3c11.8-1.8,23.7-3.5,35.6-5.1l8.6-9.8v-21.9
	c-7.1,0.9-10.6,1.4-17.6,2.4v11.2l-2,2.4c-5.3,0.8-8,1.1-13.3,1.9l-2-1.8v-67.3l2-2.4c5.3-0.8,8-1.2,13.3-1.9l2,1.8v11.2
	C151.6,154.1,155.2,153.6,162.3,152.6"/>
<path class="st0" d="M190.4,137.8l2-2.2c5.4-0.6,8-0.9,13.4-1.6l2.1,1.7v67.7l-2.1,2.2c-5.4,0.6-8,0.9-13.4,1.6l-2-1.7V137.8z
	 M217,221.5l8.6-9.6v-88.7l-8.6-7.7c-11.9,1.3-23.8,2.7-35.6,4.1l-8.6,9.7v88.7l8.6,7.6C193.2,224.2,205.1,222.8,217,221.5"/>
<path class="st0" d="M218.8,329.6l-2.2,2.3c-5.7,0.6-8.6,1-14.3,1.6l-2.1-1.9v-72.4l2.1-2.3c5.7-0.7,8.6-1,14.3-1.6l2.2,1.9V329.6z
	 M237.9,338.8v-95l-9.3-8.3c-12.7,1.3-25.5,2.8-38.2,4.3l-9.2,10.4v95l9.2,8.1c12.7-1.5,25.4-3,38.2-4.3L237.9,338.8z"/>
<path class="st0" d="M237.4,219.4c7.1-0.7,10.6-1,17.7-1.7v-65c7.7,21,15.3,42,23,63.1c7.6-0.6,11.5-0.9,19.1-1.5v-77.6l-2.2,1.6
	l-0.8-1l2.8-2.7l0.3,0.3v-26.8c-7.1,0.5-10.6,0.8-17.7,1.4v65c-7.7-21-15.3-42-23-63.1c-7.6,0.7-11.5,1-19.1,1.8L237.4,219.4z"/>
<path class="st0" d="M133.4,329.3l1,1.1c-0.4,0.2-0.8,0.6-1.1,0.5s-0.5-0.5-0.8-0.8L133.4,329.3z M120.3,256.6
	c5.4-0.5,5.4-0.5,6.4,5.2C122.2,262.2,121.3,259.6,120.3,256.6L120.3,256.6z M120.9,276.6c-0.3-0.7-0.9-1.3-0.7-1.6
	c0.3-0.5,0.8-0.9,1.4-1c0.2,0,1,0.9,0.9,1.2C122.2,275.7,121.6,276,120.9,276.6 M147,338.1l0.5,1c-0.5,0.4-0.9,0.7-1.5,0.9l-0.6-1.2
	C145.9,338.5,146.4,338.3,147,338.1 M130.9,361.2c7.5-1.1,11.2-1.6,18.7-2.7V319c6.9-20.6,13.8-41.2,20.7-61.8l-3.1-2.2
	c1.3-0.5,1.9-1,2.4-0.9c0.6,0.1,1.1,0.2,1.7,0.4l4.3-12.9c-8.2,1-12.4,1.6-20.5,2.7c-4.9,16.6-9.9,33.1-14.8,49.7
	c-4.9-15.2-9.8-30.3-14.7-45.5c-8.2,1.2-12.3,1.9-20.5,3.1c8.6,23.3,17.2,46.7,25.8,70L130.9,361.2z"/>
<path class="st0" d="M483,108.4c-0.7-0.7-1.3-1.4-1.8-2.2c-0.1-0.2,0.6-0.8,0.9-1.2c0.5,0.4,1.1,0.7,1.3,1.2S483.3,107.2,483,108.4
	 M518.7,191.6c-11.1-0.2-22.1-0.4-33.2-0.5v-28.2c9.9,0.1,14.8,0.2,24.6,0.4v-17.2c-9.9-0.2-14.8-0.3-24.6-0.4v-26.4
	c11.1,0.1,22.1,0.3,33.2,0.5v-17.2c-17-0.4-33.9-0.6-50.9-0.6v23.5l0.9-0.4c0.1,0.3,0.2,0.7,0.2,1l-0.5,0.2
	c-0.2-0.2-0.4-0.4-0.6-0.7v82.3c17,0,33.9,0.2,50.9,0.6L518.7,191.6z"/>
<path class="st0" d="M719.7,214.5l-0.1-1.9l5.5-1C723.4,215.4,721.9,216.2,719.7,214.5L719.7,214.5z M702.3,162.8
	c-0.2,0-0.7-0.8-0.7-0.9c0.3-0.4,0.7-0.8,1.1-1.1l1.3,1.5C703.6,162.6,703,162.8,702.3,162.8L702.3,162.8z M688.9,140.4l-1.6,0.5
	l-1.5-4.4C689.4,137,689.4,138.6,688.9,140.4L688.9,140.4z M730.6,117.5l-17.7-2v43.8c-8-0.9-12-1.3-19.9-2v-43.9
	c-7.1-0.7-10.6-1-17.7-1.7v106c7.1,0.6,10.6,1,17.7,1.7v-45c8,0.8,12,1.2,19.9,2v14.7l0.3,0.6l-0.3,0.1v29.7
	c7.1,0.8,10.6,1.2,17.7,2V117.5"/>
<path class="st0" d="M410.5,149c0.2-0.1,0.7,0.9,1.2,1.6c-0.8,0.4-1.4,0.9-1.8,0.8s-0.9-0.8-1.3-1.2
	C409.1,149.7,409.8,149.3,410.5,149L410.5,149z M420,119.5c6.3-0.1,9.5-0.2,15.8-0.2l2,2v67.7l-2,2.1c-6.3,0.1-9.5,0.1-15.8,0.2
	V119.5L420,119.5z M442.8,119.5c0.7,0.2,1.3,0.5,1.9,0.8c-0.9,0.5-1.4,1-1.8,1s-0.7-0.7-1.1-1.1
	C442.2,119.9,442.5,119.5,442.8,119.5L442.8,119.5z M402.2,209c15-0.4,30-0.6,45.1-0.8l8.7-8.7v-88.8l-8.7-8.6
	c-15,0.2-30,0.4-45.1,0.8V209z"/>
<path class="st0" d="M823.9,139l-8.6-10c-11.9-1.8-23.9-3.6-35.8-5.2l-8.6,7.5v43.4l8.6,9.8c9.8,1.4,14.8,2,24.6,3.5l2,2.4v24
	l-2,1.8c-5.4-0.8-8.1-1.2-13.5-2l-2-2.4v-11.3c-7.1-1-10.6-1.5-17.7-2.4V220l8.6,9.8c12,1.7,23.9,3.4,35.8,5.2l8.6-7.3v-45.2
	l-8.6-10c-9.9-1.5-14.8-2.3-24.7-3.7l-2-2.4v-22l2-1.8c5.4,0.8,8.1,1.2,13.5,2l2,2.4v11.2c7.1,1.1,10.7,1.6,17.8,2.8
	c0-8.8,0-13.2,0-21.9"/>
<path class="st0" d="M788.5,251.9c-0.5-0.4-0.8-0.8-1.2-1.3c-0.1-0.2,0.4-0.7,0.6-1.1l1.3,1L788.5,251.9z M823.9,251.7
	c-18-2.8-36-5.4-54.1-7.9v113.5c7.6,1,11.3,1.5,18.9,2.6v-47.6c10.4,1.5,15.6,2.3,26,3.9v-18.4c-10.4-1.6-15.6-2.4-26-3.9v-29.1
	c11.8,1.7,23.5,3.4,35.2,5.3L823.9,251.7z"/>
<path class="st0" d="M611.7,323.2c-11-0.7-22.1-1.3-33.1-1.9v-95.1c-7.7-0.4-11.5-0.6-19.2-0.9v113.5c17.4,0.8,34.8,1.7,52.2,2.8
	V323.2z"/>
<path class="st0" d="M620.7,116.2c-1-1.3-1.8-1.9-1.8-2.5s0.9-1.1,1.4-1.7c0.5,0.4,1.2,0.8,1.3,1.3
	C621.7,114,621.2,114.7,620.7,116.2 M667.4,111.1c-18.7-1.6-37.3-3-55.9-4.3V124c7.7,0.5,11.5,0.8,19.1,1.3v83
	c0.2-0.2,0.4-0.4,0.6-0.5c0.1-0.1,0.9,0.4,0.9,0.6c-0.1,0.6-0.2,1.3-0.5,1.9c-0.4-0.4-0.8-0.6-1.1-0.9v4.7
	c7.1,0.5,10.6,0.8,17.7,1.4v-88.8c7.7,0.6,11.5,0.9,19.1,1.6L667.4,111.1z"/>
<path class="st0" d="M546.4,120.9c6.8,0.2,10.2,0.4,17.1,0.7l2,2v26.2l-2,2c-6.8-0.3-10.2-0.4-17.1-0.7V120.9z M563.4,110.6l1.3,1.8
	c-0.9,0.6-1.8,1.2-2.8,1.6c-0.2,0.1-0.8-0.8-1.2-1.2L563.4,110.6z M536.1,116.2c-0.2-0.3-0.3-0.7-0.5-1c0.1-0.2,0.2-0.3,0.4-0.4
	c0.3,0.2,0.6,0.4,0.9,0.6L536.1,116.2z M575,153.6c1.6,5.3,0.1,6.6-7.6,6.6L575,153.6z M565.7,210.3c7,0.3,10.5,0.5,17.5,0.8
	l-2.2-10.8h-0.5l0.4-0.5l-6.3-30.5l8.7-8.2v-47.4l-8.7-9.1c-15.3-0.7-30.6-1.2-45.9-1.7V209c7.1,0.2,10.7,0.3,17.8,0.6v-41.3
	l10.6,0.4L565.7,210.3z"/>
<path class="st0" d="M760.1,121.2c-7.1-0.9-10.6-1.4-17.7-2.2v25.4c1.8-0.6,2.8,0.6,3,2.5c0.3,2.5,0,4.9-3,5.5V225
	c7.1,0.9,10.6,1.3,17.7,2.2V121.2z"/>
<path class="st0" d="M435.9,278.4c-0.5-0.3-0.9-0.6-1.3-1c0.4-0.6,0.8-1.2,1.2-1.8c0.3,0.6,0.5,1.3,0.7,1.9
	C436.5,277.7,436.1,278.1,435.9,278.4 M445.2,335l0.5,0.3c-0.1,0.3-0.2,0.7-0.4,1l-1-0.6C444.6,335.5,444.9,335.2,445.2,335
	 M465.2,307.9c0.4,0.2,1,0.4,1,0.6c-0.1,0.5-0.3,1.1-0.5,1.6c-0.4-0.2-0.8-0.4-1.2-0.7C464.6,308.9,464.9,308.4,465.2,307.9
	 M475.3,256.1v-23.5l-9.3-9.3h-13.2c0.1,0.4,0.1,0.8,0.2,1.4c-1.3,0.1-2.7-0.4-3.6-1.4c-7.3,0-14.5,0.1-21.8,0.2l-9.3,9.4v63.1
	c0.2,0.2,0.3,0.3,0.5,0.5c0.1,0.1-0.2,0.4-0.5,0.8v30.7l9.3,9.1c12.8-0.2,25.6-0.3,38.4-0.3l9.3-9.2v-23.5h-19v12l-2.3,2.2
	c-5.8,0-8.6,0-14.4,0.1l-2.2-2.2v-72l2.2-2.3c5.8-0.1,8.6-0.1,14.4-0.1l2.2,2.3v11.9C463.9,256.1,467.7,256.1,475.3,256.1"/>
<path class="st0" d="M272.3,454.6l0.2,0.5c-0.3,0.3-0.5,0.5-0.9,0.7l-0.5-1C271.6,454.7,271.9,454.7,272.3,454.6L272.3,454.6z
	 M280.7,376.7l0.4,1.3l-3.9,1.2l-0.4-1.9L280.7,376.7z M262,526.1c11-1,16.5-1.4,27.5-2.3v-164l-6.5,0.5c0.8,0.5,1.6,1,2.5,1.3
	c-4.5,3-5.9,0.3-8.4-0.8c-4.5,0.4-8.9,0.8-15,1.3v67.8c-10.3,0.9-20.6,1.9-30.9,3V365c-11,1.1-16.4,1.7-27.4,3v164
	c10.9-1.3,16.4-1.9,27.4-3v-69.7c10.3-1.1,20.6-2.1,30.9-3V526.1z"/>
<path class="st0" d="M507.4,294.4l7.9-38l8,38.4C516.9,294.7,513.7,294.6,507.4,294.4L507.4,294.4z M503.9,293.3
	c-0.6-0.3-1.1-0.6-1.6-1.1l1.8-1c0.3,0.4,0.5,0.9,0.7,1.4C504.8,292.9,504.1,293.4,503.9,293.3 M488.5,321.3c-0.7,0-1.5-0.6-3-1.3
	c1.5-0.8,2.3-1.6,2.9-1.5s1.1,1,1.6,1.6C489.5,320.6,489,321.3,488.5,321.3 M534.6,332.9c0.3,0.2,0.6,0.4,1,0.7l-0.8,0.8
	c-0.2-0.3-0.4-0.7-0.5-1L534.6,332.9z M551.6,338.6c-9-38.1-18-76.3-27-114.4l-10.9-0.3l0.1,0.1l-2.4,3.1l-2.3-2l1.1-1.2l-4.3-0.1
	c-6.1,25.7-12.2,51.4-18.4,77.2l2-0.2l0.2,2.4l-2.7,0.1c-2.7,11.2-5.3,22.5-8,33.7c7.8,0,11.7,0.1,19.5,0.2l5.1-24.4
	c9.3,0.2,14,0.3,23.4,0.5l5.1,24.6C539.9,338.1,543.8,338.3,551.6,338.6"/>
<path class="st0" d="M820,524.1c-2.7,0-5.2,1-7.1,2.9c-1.9,1.9-3,4.4-3,7.1c0,2.7,1,5.2,2.9,7.1c1.9,2,4.5,3.1,7.2,3
	c2.7,0,5.3-1,7.1-3c1.9-1.9,2.9-4.5,2.9-7.1c0-5.5-4.4-10-9.9-10.1C820.1,524.1,820.1,524.1,820,524.1L820,524.1z"/>
<path class="st0" d="M550.5,376.2c0.4,0.2,0.6,0.9,0.8,1.4c0,0.1-0.7,0.7-0.9,0.6c-0.6-0.3-1.1-0.8-1.6-1.2
	C549.6,376.6,550.3,376.1,550.5,376.2L550.5,376.2z M559.2,421.1c0.2,0,0.7,0.6,0.7,0.9c-0.3,0.6-0.6,1.1-1.1,1.6l-1-1.8
	C558.3,421.5,558.8,421.3,559.2,421.1L559.2,421.1z M532.8,489.6c-0.2-5.1,0-5.4,5.8-4.9C536.9,486.8,536.1,489.5,532.8,489.6
	L532.8,489.6z M498.2,397.8c-0.7-1-1.4-2.1-2-3.2c0.4-0.3,0.9-0.7,1.4-0.9c0.8,1,1.5,2,2.2,3L498.2,397.8z M527.2,472.4
	c-6.6-39.7-13.1-79.4-19.7-119.1c-10.1-0.3-20.2-0.4-30.3-0.5c-6.6,39.4-13.1,78.9-19.7,118.4l-20.4-118.5
	c-11.2,0.1-16.8,0.1-27.9,0.3c10.5,54.6,20.9,109.2,31.4,163.8c11.5,0,23.1,0,34.6,0.1l17.1-112.4c5.7,37.6,11.4,75.3,17.1,113
	c11.5,0.3,23.1,0.7,34.6,1.1c8.3-42.6,16.5-85.2,24.7-127.9c-0.1-0.2-0.2-0.4-0.2-0.7c0.1-0.3,0.3-0.6,0.5-0.8l6.4-33.2
	c-11.2-0.6-16.7-0.9-27.9-1.3L527.2,472.4"/>
<path class="st0" d="M738.1,332.8l-2.3,1.8c-5.7-0.7-8.6-1-14.3-1.7l-2-2.3v-72.4l2.1-1.9c5.7,0.6,8.6,1,14.3,1.7l2.2,2.4
	L738.1,332.8z M705.3,344.1c-0.3-0.5-1-1-0.9-1.4c0.3-0.6,0.7-1.1,1.4-1.3c0.5-0.1,1.2,0.2,2.3,0.5L705.3,344.1z M757.2,346.4v-95
	l-9.2-10.4c-12.7-1.6-25.4-3.1-38.2-4.4l-9.3,8.3v95l9.3,10.2c12.7,1.3,25.5,2.8,38.2,4.4L757.2,346.4z"/>
<path class="st0" d="M343.5,356.5l-0.1-0.3c-11.9,0.7-23.8,1.4-35.6,2.2v164c26.2-1.8,52.5-3.2,78.7-4.2v-26.5
	c-17.1,0.6-34.2,1.4-51.3,2.4v-43.6c12.7-0.7,25.4-1.4,38.1-1.9V422c-12.7,0.5-25.4,1.2-38.1,1.9v-40.8c17.1-1,34.2-1.8,51.3-2.4
	v-26.5c-14.2,0.6-28.3,1.2-42.4,2L343.5,356.5z"/>
<path class="st0" d="M612.9,506.5l-0.7-0.8c0.3-0.2,0.6-0.4,1-0.5c0,0,0.4,0.4,0.3,0.5C613.3,505.9,613.1,506.2,612.9,506.5
	L612.9,506.5z M608.9,398.3l-0.8-0.8c0.3-0.2,0.6-0.4,0.9-0.6c0,0,0.4,0.4,0.4,0.5C609.2,397.7,609,398,608.9,398.3L608.9,398.3z
	 M596.5,376.5c-0.7-0.7-1.4-1.5-1.8-2.4c0.7-0.4,1.6-1.2,2-1c0.8,0.4,1.4,1.4,2.7,2.6C597.8,376.2,596.8,376.8,596.5,376.5
	 M590.8,501c-0.2-0.3-0.3-0.7-0.5-1c0.1-0.2,0.2-0.3,0.4-0.4c0.3,0.2,0.6,0.4,0.9,0.7L590.8,501z M588.5,377.4
	c0.6-0.3,1-0.7,1.2-0.6c0.4,0.2,0.6,0.6,0.7,1c0,0.3-0.4,0.6-0.7,0.9L588.5,377.4z M586.9,356.5v164c11,0.6,16.5,1,27.5,1.8v-164
	C603.3,357.5,597.8,357.2,586.9,356.5"/>
<path class="st0" d="M793.8,452.6l-1.5-2.3c0.5-0.2,1.2-0.8,1.6-0.6c0.6,0.2,1,0.7,1.2,1.3C795.2,451.3,794.5,451.8,793.8,452.6
	L793.8,452.6z M771.9,512.1c-9.7-1.3-14.6-2-24.3-3.2V397.7c9.7,1.2,14.6,1.9,24.3,3.2l3.1,3.7v104.7L771.9,512.1z M739.7,391.9
	l-0.2-2c1.8-2.3,3.5-1.7,6.3,1.7L739.7,391.9z M734.1,512.4c-0.5-0.3-1.1-0.6-1.5-1c0.3-0.4,0.6-0.7,1-1c0.5,0.3,0.9,0.7,1.3,1.2
	C734.7,511.9,734.3,512.5,734.1,512.4 M789.3,377.3c-23.1-3.3-46.1-6.4-69.3-9.1v164c23.1,2.7,46.2,5.8,69.3,9.1
	c5.3-4.6,8-6.8,13.3-11.4V392.6C797.3,386.5,794.6,383.4,789.3,377.3"/>
<path class="st0" d="M659.9,339.6c-0.6,0.4-1.2,0.7-1.8,0.9c0-1-0.1-1.7,0.2-2s1-0.2,1.6,0C659.9,338.9,660,339.2,659.9,339.6
	 M672.2,327.9c-11-1-22-1.9-33-2.8V230c-7.7-0.6-11.5-0.9-19.1-1.4v113.5c17.4,1.2,34.8,2.6,52.2,4.1L672.2,327.9z"/>
<path class="st0" d="M650.4,502.9c-0.3-0.5-0.5-1-0.6-1.5c0-0.2,0.7-0.7,0.9-0.6c0.6,0.3,1.1,0.8,1.5,1.2L650.4,502.9z M708,504.3
	c-15.9-1.7-31.8-3.3-47.7-4.8V362c-11.1-1-16.6-1.5-27.6-2.3v164c25.1,2,50.2,4.4,75.3,7.1C708,520.2,708,514.9,708,504.3"/>
<path class="st0" d="M299.2,332.3v2.1h-6.6C294.9,330.8,297.1,331.6,299.2,332.3L299.2,332.3z M288.4,323.2l-2.1,2.3
	c-5.9,0.5-8.8,0.7-14.6,1.2l-2.1-1.9v-93.1c-7.6,0.6-11.4,1-19,1.7v104.3l9.3,8.4c12.7-1.1,25.5-2.2,38.3-3l9.3-9.9V228.8
	c-7.6,0.5-11.4,0.8-19,1.4L288.4,323.2z"/>
<path class="st0" d="M372.5,210c7.1-0.3,10.7-0.4,17.8-0.6v-106c-7.1,0.2-10.7,0.4-17.8,0.6V210z"/>
</svg>
