<svg id="Layer_1" data-name="Layer 1" xmlns="http://www.w3.org/2000/svg" viewBox="0 0 259.05 213.77"><style type="text/css">.st0{fill:#fffcdf;}</style><path class="cls-1" d="M49.19,73.94V68.18c-6.81.68-10.22,1-17,1.86v35.59c6.8-.82,10.21-1.19,17-1.86V98c-4.44.44-6.65.67-11.09,1.17V89.73c3.29-.37,4.94-.55,8.23-.89V83.08c-3.29.34-4.94.51-8.23.89V75.12C42.53,74.62,44.75,74.38,49.19,73.94Z" transform="translate(-1.07 -4.41)"/><path class="cls-1" d="M24.71,156.74v-38.5L21,115c-6.18.83-9.26,1.27-15.43,2.21l-3.73,4.33V160l3.73,3.17c6.16-.94,9.25-1.38,15.43-2.21ZM17,153.23l-.9,1L10.3,155l-.84-.72V125l.84-1,5.79-.83.9.72Z" transform="translate(-1.07 -4.41)"/><path class="cls-1" d="M4.89,171.09l-3.82,4.44v39.41l3.82,3.25c6.53-1,9.8-1.47,16.35-2.35l3.83-4.34V189.56c-4.67.6-7,.92-11.67,1.58v7.75l3.83-.54v9.42l-.86,1c-2.59.36-3.89.55-6.48.93L9,209V178.9l.93-1.07c2.59-.38,3.88-.57,6.48-.93l.86.81v5.14c3.14-.43,4.7-.64,7.84-1v-9.73l-3.83-3.34C14.69,169.61,11.42,170.08,4.89,171.09Zm11.69,26.58-.41-.25a2.72,2.72,0,0,1,.36-.32s.22.1.21.13A2.63,2.63,0,0,1,16.58,197.67ZM7.29,215.38l-.4-.35c.1-.15.18-.38.31-.42s.34.1.51.16Z" transform="translate(-1.07 -4.41)"/><path class="cls-1" d="M64.49,156.33c3.08-.25,4.62-.36,7.7-.58V117.18c3.32-.24,5-.35,8.31-.55v-7.45Q68.32,110,56.19,111v7.45c3.32-.3,5-.44,8.3-.71Z" transform="translate(-1.07 -4.41)"/><path class="cls-1" d="M29.95,167.63v47.09c3.14-.38,4.71-.57,7.85-.92V195.45l4.7-.52,3.84,17.94c3.1-.32,4.64-.47,7.74-.76l-3.84-18,3.84-4.21V168.87l-3.84-3.48C42.11,166.19,38.05,166.63,29.95,167.63ZM45.35,187c-3,.31-4.53.48-7.55.82V174.39c3-.34,4.53-.5,7.55-.82l.87.78c0,4.66,0,7,0,11.65Z" transform="translate(-1.07 -4.41)"/><path class="cls-1" d="M49.05,157.71l3.75-4.12V111.34c-3.07.29-4.61.44-7.68.76v37.71l-.85.94-5.92.64-.85-.75V112.93c-3.07.35-4.6.53-7.67.91v42.26l3.74,3.3C39.76,158.66,42.86,158.33,49.05,157.71Z" transform="translate(-1.07 -4.41)"/><path class="cls-1" d="M160.63,92.57l1.6,7.74,6.1.25q-4.22-18-8.45-35.93l-5.82-.18q-4.23,17.7-8.45,35.4l6.11.13,1.6-7.64C156.24,92.42,157.7,92.46,160.63,92.57Zm1.45-11.23a2.43,2.43,0,0,1,.46.1l-.2.46a2.91,2.91,0,0,1-.37-.33S162,81.34,162.08,81.34ZM157,74.7l2.49,12.07-5-.15Z" transform="translate(-1.07 -4.41)"/><path class="cls-1" d="M94.42,97.63V64.95l-6,.29V94.41l-.66.69-4.6.25-.66-.62V65.56l-6,.37V98.61l2.91,2.72c4.8-.3,7.21-.43,12-.66Z" transform="translate(-1.07 -4.41)"/><path class="cls-1" d="M220.06,60.25c3.49.38,5.24.57,8.72,1Q222.75,35,216.7,8.81c-3.33-.34-5-.51-8.33-.82q-6.06,25-12.1,50c3.5.27,5.25.42,8.74.73L207.3,48c4.19.39,6.29.59,10.48,1ZM211.83,11.3l.59.45-.35.58a2.39,2.39,0,0,1-.51-.56C211.52,11.68,211.73,11.46,211.83,11.3ZM209,39.84,212.54,23l3.56,17.56C213.25,40.25,211.82,40.11,209,39.84Z" transform="translate(-1.07 -4.41)"/><path class="cls-1" d="M106.14,32.71a2.69,2.69,0,0,1,1.23,0c-.24.89-.59,1.39-1.23,1.48v17.5l4.18,4.05c7.14-.18,10.72-.23,17.86-.26l4.18-4.17V27.52c-5.1,0-7.64,0-12.74.08V36l4.18,0V46.17l-.94,1c-2.83,0-4.25,0-7.08.1l-1-1V13.71l1-1c2.83-.05,4.25-.07,7.08-.1l.94,1v5.58c3.42,0,5.14,0,8.56,0V8.57l-4.18-4.16c-7.15,0-10.72.08-17.86.26l-4.18,4.28Z" transform="translate(-1.07 -4.41)"/><path class="cls-1" d="M127.15,74.4V67l-1.74-1.72c-.06.08-.15.16-.2.23l-.54-.59.24-.15-.67-.66c-4.85,0-7.27.08-12.12.19l-2.91,3V81.89l2.37,2.3a1,1,0,0,1,.32-.13c.08,0,.32.28.3.38a.81.81,0,0,1-.12.24l0,0c3.33-.08,5-.11,8.31-.15l.7.69v8.05l-.7.71-4.56.07-.7-.69V89.62l-6,.14v7.35l2.91,2.83c4.85-.11,7.27-.15,12.12-.19l2.91-2.92V81.66l-2.91-2.88c-3.34,0-5,.05-8.36.11l-.7-.69V70.8l.7-.72h.28a13.33,13.33,0,0,1,1-1c.22.31.53.62.72.94l2.55,0,.7.69c0,1.5,0,2.25,0,3.75Z" transform="translate(-1.07 -4.41)"/><path class="cls-1" d="M28.2,70.53c-3,.37-4.43.56-7.38,1C18.49,78.52,17.32,82,15,89.1l-5.83-16c-2.94.44-4.42.66-7.36,1.13v35.59l5.91-.91v-24l5.73,15.55,3.08-.43c2.29-6.88,3.44-10.31,5.74-17.17v24l5.93-.76Zm-5.88,8.11,0-.71H23.7l.06.43Z" transform="translate(-1.07 -4.41)"/><path class="cls-1" d="M72.69,37.65l5.12-.34L82,56.94c3.37-.2,5-.29,8.42-.46L86.22,36.8l4.18-4.38q0-11.43,0-22.85l-4.18-4q-11,.58-22.07,1.49V58.19c3.42-.28,5.12-.41,8.54-.65Zm15.07-8.11a2.29,2.29,0,0,1,.3.62c0,.08-.28.32-.38.3A3,3,0,0,1,87,30ZM79.35,34l2.08-.26.08,1-2.07.1Zm.27-3a.84.84,0,0,1,.47-.18,3.45,3.45,0,0,1,.36.69l-.62.24A3.68,3.68,0,0,1,79.61,31ZM81,42.67a5.08,5.08,0,0,1-1.34-.56c.66-.37,1-.7,1.25-.66s.48.46.72.71C81.38,42.35,81.17,42.68,81,42.67ZM72.69,14.8c3.28-.23,4.93-.34,8.21-.54l.94.88V27.78l-.94,1.06c-3.29.2-4.93.31-8.21.54ZM71,37.77a3.05,3.05,0,0,1-.52-.31,3.85,3.85,0,0,1,.34-.63c.15.09.43.19.42.26A2.56,2.56,0,0,1,71,37.77Z" transform="translate(-1.07 -4.41)"/><path class="cls-1" d="M58.44,54.5q0-23.45,0-46.91c-3.41.3-5.12.46-8.53.79q0,11.51,0,23a2,2,0,0,1,.6.51c0,.06-.28.42-.57.82l0,0V50.25l-.94,1c-2.63.26-3.95.4-6.58.68l-.94-.84V32.83l-.41.11v-3.3c.15,0,.28,0,.41.07V9.26c-3.41.37-5.11.56-8.52,1V57.14l4.16,3.68C44,60,47.39,59.68,54.27,59Zm-.51-31.82a4.1,4.1,0,0,1,.3.84c0,.12-.18.27-.28.4a4.91,4.91,0,0,1-.58-.46A8,8,0,0,1,57.93,22.68ZM34,38.3c-.18,0-.36-.37-.53-.57a3,3,0,0,1,.85-.55c.14,0,.38.31.79.67A3.56,3.56,0,0,1,34,38.3Zm6.3,18.28-.42-.81a2.33,2.33,0,0,1,.65-.28c.09,0,.32.3.29.4A3,3,0,0,1,40.3,56.59Zm0-2.64a2.38,2.38,0,0,1-.19-.68c0-.08.34-.27.43-.23s.33.31.59.59Z" transform="translate(-1.07 -4.41)"/><path class="cls-1" d="M1.81,61.44,5.95,65c6.84-1,10.27-1.53,17.13-2.43l4.15-4.7V15.09l-4.15-3.63c-6.86.9-10.29,1.38-17.13,2.43L1.81,18.69ZM17.6,55.81a2.85,2.85,0,0,1-.17-.44s.18-.15.21-.13a2.53,2.53,0,0,1,.37.31ZM12.88,15.23c.19,0,.36.32.53.49-.18.18-.35.48-.54.49s-.39-.27-.68-.5C12.49,15.49,12.7,15.21,12.88,15.23Zm-2.59,7.28.94-1.08c2.57-.37,3.85-.56,6.42-.91l1,.8V53.92l-1,1.08c-2.57.35-3.86.54-6.42.91l-.94-.8Z" transform="translate(-1.07 -4.41)"/><path class="cls-1" d="M58.45,81.09q3.87,10.59,7.73,21.18l6.42-.48V66.2l-6,.44V88.46q-3.86-10.59-7.73-21.19c-2.57.22-3.85.34-6.42.58q0,17.8,0,35.59l5.95-.54Z" transform="translate(-1.07 -4.41)"/><path class="cls-1" d="M146.24,35.72l5.12.11,4.18,20c3.37.1,5.05.16,8.42.29l-4.18-20,4.18-4V9.22L159.79,4.9q-11-.4-22.11-.47,0,25.54,0,51.08c3.42,0,5.14,0,8.56.11Zm9.62,15a3.46,3.46,0,0,1-.8.41c0-.41-.06-.75.07-.86s.46-.07.69,0A.58.58,0,0,1,155.86,50.68Zm-.53-6.82a3.77,3.77,0,0,1-.27-.42s.15-.17.2-.16a2.41,2.41,0,0,1,.42.24Zm-9.09-31c3.29.06,4.93.1,8.22.19l.94,1V26.67l-.65.67a12.42,12.42,0,0,1-.12,2.11l-1.41-1.84c-2.52-.07-4.14-.1-7-.16Z" transform="translate(-1.07 -4.41)"/><path class="cls-1" d="M229.23,113.44q-5.44,22.39-10.88,44.79c3.14.33,4.72.5,7.86.87l2.05-9.69c3.77.44,5.65.68,9.42,1.16l2.05,10.2c3.14.41,4.71.63,7.84,1.07q-5.42-23.74-10.86-47.47C233.72,114,232.23,113.8,229.23,113.44Zm.54,28.7L233,127l3.2,15.9C233.61,142.61,232.33,142.45,229.77,142.14Z" transform="translate(-1.07 -4.41)"/><path class="cls-1" d="M197.61,156.31c3.08.25,4.62.38,7.69.65V111c-3.08-.28-4.61-.41-7.69-.65v19c-3.47-.28-5.2-.41-8.67-.65v-19c-3.08-.21-4.62-.31-7.7-.5v8.65l.07.07-.07.05v37.24c3.08.19,4.62.29,7.7.5V136.11c3.47.24,5.2.37,8.67.65ZM188.32,124a3,3,0,0,1-.66-.41,3.6,3.6,0,0,1,.44-.46,4.61,4.61,0,0,1,.58.51C188.56,123.74,188.39,124,188.32,124Z" transform="translate(-1.07 -4.41)"/><path class="cls-1" d="M183.58,163.1c-8-.5-12-.71-20-1q0,23.55,0,47.09c8,.31,12,.52,20,1l3.85-3.59q0-19.7,0-39.41Zm-10.88,2.26c.07,0,.27.17.48.32a3.91,3.91,0,0,1-.71.44c-.08,0-.25-.17-.38-.26A3.31,3.31,0,0,1,172.7,165.36Zm6.72,36-.87.88c-2.81-.16-4.21-.23-7-.37V169.92c2.81.14,4.21.21,7,.37l.87,1ZM185,175.91a2.37,2.37,0,0,1-.19-.68c0-.08.33-.27.42-.23s.32.31.58.59Z" transform="translate(-1.07 -4.41)"/><path class="cls-1" d="M203.73,102.9V73.07c2.57.22,3.85.34,6.42.59V67.89c-7.51-.72-11.27-1-18.79-1.58v3.53c.57-.19,1.19.23,2.06,1.28l-2.06.12v.82l6.42.49V102.4Z" transform="translate(-1.07 -4.41)"/><path class="cls-1" d="M212.77,103.74c6.82.67,10.22,1,17,1.86V99.83c-4.43-.53-6.65-.78-11.08-1.25V89.13c3.29.35,4.94.53,8.23.91V84.28c-3.29-.38-4.94-.56-8.23-.91V74.51c4.44.47,6.65.72,11.08,1.25V70c-6.8-.81-10.21-1.18-17-1.86Zm13.65-33.85s.18.16.16.21a2.46,2.46,0,0,1-.24.44l-.34-.37A3.87,3.87,0,0,1,226.41,69.88Zm-12,26.68a.93.93,0,0,1,.54.58c0,.12-.29.35-.6.69l-.64-1C214,96.74,214.25,96.51,214.44,96.57Z" transform="translate(-1.07 -4.41)"/><path class="cls-1" d="M169.54,154.53V116c3.32.15,5,.24,8.31.43V109q-12.17-.62-24.33-1v7.45c3.33.09,5,.14,8.32.27v38.56C164.91,154.33,166.46,154.39,169.54,154.53Zm6.69-41a2.93,2.93,0,0,1,.56.84c0,.14-.32.39-.68.78a3.57,3.57,0,0,1-.43-1.09C175.67,113.87,176,113.69,176.23,113.52Z" transform="translate(-1.07 -4.41)"/><path class="cls-1" d="M81.43,162.93q-11.3.66-22.58,1.66v47.09q11.27-1,22.58-1.66V202.4c-5.88.35-8.83.56-14.71,1V190.9c4.37-.34,6.55-.49,10.92-.78V182.5c-4.37.28-6.55.44-10.92.78,0-4.68,0-7,0-11.71,5.88-.46,8.82-.66,14.71-1C81.43,167.51,81.43,166,81.43,162.93Z" transform="translate(-1.07 -4.41)"/><path class="cls-1" d="M192.7,210.82q11.29.82,22.56,2v-7.62c-5.87-.6-8.81-.87-14.68-1.36,0-5,0-7.51,0-12.52,4.36.37,6.55.56,10.91,1v-7.62c-4.36-.42-6.54-.62-10.91-1V172c5.88.49,8.81.76,14.68,1.36v-7.62q-11.26-1.16-22.56-2Q192.7,187.27,192.7,210.82Z" transform="translate(-1.07 -4.41)"/><circle class="cls-1" cx="254.14" cy="207.77" r="4.92"/><path class="cls-1" d="M228.8,167.2q-5.57,22.93-11.14,45.85c3.22.34,4.83.51,8,.88l2.1-9.92c3.86.45,5.79.69,9.64,1.19l2.1,10.44c3.21.42,4.82.64,8,1.09q-5.55-24.3-11.11-48.59C233.4,167.75,231.87,167.56,228.8,167.2Zm3.63,10.27a3.63,3.63,0,0,1,.41.63s-.27.21-.51.39a2.6,2.6,0,0,1-.3-.69C232,177.7,232.29,177.58,232.43,177.47Zm-3.07,19.1,3.28-15.47,3.28,16.27C233.29,197,232,196.88,229.36,196.57Zm9.22-6.06s.23.08.22.12a2.41,2.41,0,0,1-.1.46l-.45-.21A3,3,0,0,1,238.58,190.51Z" transform="translate(-1.07 -4.41)"/><path class="cls-1" d="M251.81,21.47V13.2q-13.4-2-26.86-3.49V18c3.68.42,5.51.64,9.19,1.09V61.88c3.4.42,5.11.65,8.51,1.11V20.18c2.77.37,4.49.61,6.75.94l-.05-.06a3.4,3.4,0,0,1,.42-.23s.17.16.15.2a1,1,0,0,1-.09.15ZM241.19,54.94l-.19-.45a2.48,2.48,0,0,1,.45-.09s.13.19.1.22A2.75,2.75,0,0,1,241.19,54.94ZM242.35,14a6.62,6.62,0,0,1-.43-1.41c0-.18.38-.56.48-.53a2.25,2.25,0,0,1,.85.6A10.7,10.7,0,0,1,242.35,14Z" transform="translate(-1.07 -4.41)"/><path class="cls-1" d="M251,75.72l-2.89-3.32c-6-.85-9-1.25-15-2V106c6,.74,9,1.14,15,2L251,105.5Zm-16,29.2-.46-.79a2.31,2.31,0,0,1,.63-.31c.09,0,.33.28.31.38A3,3,0,0,1,235,104.92ZM245,101l-.65.61-5.27-.71V76.83l5.27.71.65.79Z" transform="translate(-1.07 -4.41)"/><path class="cls-1" d="M193.65,49.56c-6.38-.48-9.57-.69-16-1V34.94c4.74.27,7.11.42,11.85.75V27.42c-4.74-.33-7.11-.48-11.85-.75V14c6.38.36,9.57.57,16,1V6.75q-12.25-.86-24.5-1.48,0,25.54,0,51.08,12.27.62,24.5,1.48Zm-21-9.3a3.24,3.24,0,0,1-.24-.43s.16-.17.2-.15a2.6,2.6,0,0,1,.41.27Zm2.66,11.8a1,1,0,0,1,.59-.57c.24-.07.54.09,1,.2l-1.2,1C175.58,52.45,175.29,52.19,175.33,52.06Zm1.18,3.9a2.22,2.22,0,0,1-.43-.55l.59-.26.32.63C176.83,55.84,176.59,56,176.51,56Z" transform="translate(-1.07 -4.41)"/><path class="cls-1" d="M189.11,69.06,186.21,66c-6.15-.41-9.23-.58-15.39-.88v35.59l6,.31V87.11l3.57.2,2.91,14,5.86.39-2.91-14.06L189.11,85C189.11,78.61,189.11,75.43,189.11,69.06Zm-6,12-.66.66-5.72-.33V71.19l5.72.33.66.7Z" transform="translate(-1.07 -4.41)"/><path class="cls-1" d="M125.65,140.89l-5.52-33.18c-3.4,0-5.1.08-8.5.16l-5.52,33.38-4.76-27.56a1.93,1.93,0,0,1-1,.3c-.06-1.46,0-2,.69-2.16l-.63-3.62c-3.13.12-4.7.18-7.83.33q4.4,22.82,8.8,45.65c3.88-.14,5.83-.2,9.71-.29l4.8-31.7,4.8,31.53c3.89,0,5.83-.06,9.72-.07q4.4-23,8.8-46c-3.13,0-4.7,0-7.83,0Zm-23.18,9.83a2.86,2.86,0,0,1-.37-.33s.08-.23.11-.22a2.39,2.39,0,0,1,.46.1Zm2.55-4a3.67,3.67,0,0,1-.68-.6c.36-.14.65-.36.77-.29a1,1,0,0,1,.31.64C105.44,146.58,105.1,146.81,105,146.77Zm30.41-26s.16.16.14.2a2.41,2.41,0,0,1-.26.39L135,121A3.27,3.27,0,0,1,135.43,120.79Z" transform="translate(-1.07 -4.41)"/><path class="cls-1" d="M95,162.23q-5.6,23.83-11.18,47.65c3.23-.18,4.84-.27,8.07-.42L94,199.2c3.88-.17,5.81-.25,9.69-.38l2.11,10.09c3.23-.1,4.85-.14,8.08-.21q-5.59-23.39-11.19-46.79C99.64,162,98.1,162.1,95,162.23Zm.56,29.29,3.29-16,3.29,15.74C99.53,191.35,98.21,191.4,95.58,191.51Z" transform="translate(-1.07 -4.41)"/><path class="cls-1" d="M110.36,161.7v7.62c3.41-.09,5.11-.12,8.51-.17v39.47c3.16,0,4.74-.06,7.89-.08q0-19.74,0-39.47c3.41,0,5.11,0,8.52,0,0-3,0-4.57,0-7.62Q122.81,161.46,110.36,161.7Z" transform="translate(-1.07 -4.41)"/><path class="cls-1" d="M148.29,64.31c-7.53-.16-11.3-.19-18.84-.17V69.9h6.44q0,14.92,0,29.83l6,.06q0-14.92,0-29.83c2.57,0,3.86.05,6.43.11Z" transform="translate(-1.07 -4.41)"/><path class="cls-1" d="M150.42,208.76c3.16.07,4.74.12,7.89.22V161.89c-3.16-.1-4.73-.15-7.89-.22Q150.42,185.21,150.42,208.76Z" transform="translate(-1.07 -4.41)"/><path class="cls-1" d="M142.4,107.72v46c3.08,0,4.63.07,7.71.14q0-23,0-46C147,107.79,145.49,107.76,142.4,107.72Z" transform="translate(-1.07 -4.41)"/></svg>